<mxfile host="app.diagrams.net" modified="2024-05-28T18:43:36.291Z" agent="Mozilla/5.0 (Windows NT 10.0; Win64; x64) AppleWebKit/537.36 (KHTML, like Gecko) Chrome/125.0.0.0 Safari/537.36" etag="6ioSZcaerO8YrxHKv3SM" version="24.4.9" type="device">
  <diagram name="Блок-схема алгоритму пошуку" id="Блок-схема_1">
    <mxGraphModel dx="2276" dy="1402" grid="1" gridSize="10" guides="1" tooltips="1" connect="1" arrows="1" fold="1" page="1" pageScale="1" pageWidth="1654" pageHeight="1169" background="#ffffff" math="0" shadow="0">
      <root>
        <mxCell id="0" />
        <mxCell id="1" parent="0" />
        <UserObject label="" tags="Фон" id="2">
          <mxCell style="vsdxID=3;fillColor=#FFFFFF;gradientColor=none;shape=stencil(UzV2Ls5ILEhVNTIoLinKz04tz0wpyVA1dlE1MsrMy0gtyiwBslSNXVWNndPyi1LTi/JL81Ig/IJEkEoQKze/DGRCBUSfAUiHkUElMs8NojAnMw+nQkMDcpUCGQi3QLyBLIfubqAQxM/GrgA=);strokeColor=#000000;strokeWidth=2;points=[];labelBackgroundColor=none;rounded=0;html=1;whiteSpace=wrap;" parent="1" vertex="1">
            <mxGeometry x="1639" y="9" width="1" height="1148" as="geometry" />
          </mxCell>
        </UserObject>
        <UserObject label="" tags="Фон" id="40">
          <mxCell style="vsdxID=4;edgeStyle=none;startArrow=none;endArrow=none;startSize=5;endSize=5;strokeWidth=2;strokeColor=#000000;spacingTop=0;spacingBottom=0;spacingLeft=0;spacingRight=0;verticalAlign=middle;html=1;labelBackgroundColor=none;rounded=0;" parent="1" edge="1">
            <mxGeometry relative="1" as="geometry">
              <Array as="points" />
              <mxPoint x="1640" y="1158" as="sourcePoint" />
              <mxPoint x="54" y="1155" as="targetPoint" />
            </mxGeometry>
          </mxCell>
        </UserObject>
        <UserObject label="" tags="Фон" id="42">
          <mxCell style="vsdxID=5;edgeStyle=none;startArrow=none;endArrow=none;startSize=5;endSize=5;strokeWidth=2;strokeColor=#000000;spacingTop=0;spacingBottom=0;spacingLeft=0;spacingRight=0;verticalAlign=middle;html=1;labelBackgroundColor=none;rounded=0;" parent="1" edge="1">
            <mxGeometry relative="1" as="geometry">
              <Array as="points" />
              <mxPoint x="54" y="1155" as="sourcePoint" />
              <mxPoint x="54" y="9" as="targetPoint" />
            </mxGeometry>
          </mxCell>
        </UserObject>
        <UserObject label="" tags="Фон" id="3">
          <mxCell style="vsdxID=6;fillColor=#FFFFFF;gradientColor=none;shape=stencil(rVBbDoAgDDvN/pEdwcc9SERZVCCIr9sLWYzGT+Nfu7bLOsByNsprkGKOwQ16ozYawAqkJGt0oJgQYA1Ydi7oPrjFtsy9ys6MJrfmDTvnRE5IcTArBPOGrSPZb9ZL/MOcwH08935q76JpxE/C+gQ=);strokeColor=#000000;strokeWidth=2;points=[];labelBackgroundColor=none;rounded=0;html=1;whiteSpace=wrap;" parent="1" vertex="1">
            <mxGeometry x="54" y="9" width="1586" height="1" as="geometry" />
          </mxCell>
        </UserObject>
        <UserObject label="&lt;div style=&quot;font-size: 1px&quot;&gt;&lt;/div&gt;" tags="Фон" id="5">
          <mxCell style="verticalAlign=middle;align=center;overflow=width;vsdxID=8;fillColor=#FFFFFF;gradientColor=none;shape=stencil(fY9LDoAgDERP0z3SI/i5B4koRAWD+Lu9NI3RGMNupn1tZgDLxahZgxRLDH7Qu22jAaxASuuMDjYmBVgDlp0Pug9+dS37WRFJavIbfTj4rhCCbqQ42bNrGB2ty6C3/4WzaBJPHq7y3n2zpxH3xvoC);strokeColor=#000000;strokeWidth=2;points=[];labelBackgroundColor=none;rounded=0;html=1;whiteSpace=wrap;" parent="1" vertex="1">
            <mxGeometry x="55" y="9" width="280" height="60" as="geometry" />
          </mxCell>
        </UserObject>
        <UserObject label="&lt;div style=&quot;font-size: 1px&quot;&gt;&lt;p style=&quot;text-align:center;margin-left:0;margin-right:0;margin-top:0px;margin-bottom:0px;text-indent:0;vertical-align:middle;direction:ltr;&quot;&gt;&lt;font style=&quot;font-size:16.93px;font-family:Arial;color:#ff0000;direction:ltr;letter-spacing:0px;line-height:120%;opacity:1&quot;&gt;&lt;font style=&quot;font-size: 16.93px; letter-spacing: 0px; color: rgb(0, 0, 0); direction: ltr; line-height: 20.316px; opacity: 1;&quot;&gt;КПІ.ІT-0425.&lt;/font&gt;&lt;font style=&quot;font-size: 16.93px; letter-spacing: 0px; color: rgb(0, 0, 0); direction: ltr; line-height: 20.316px; opacity: 1;&quot;&gt;&lt;span style=&quot;font-size: 14pt; font-family: &amp;quot;Times New Roman&amp;quot;, serif;&quot; lang=&quot;UK&quot;&gt;0&lt;/span&gt;&lt;span style=&quot;font-size: 14pt; line-height: 28px; font-family: &amp;quot;Times New Roman&amp;quot;, serif;&quot; lang=&quot;RU&quot;&gt;45440&lt;/span&gt;&lt;span style=&quot;font-size: 14pt; font-family: &amp;quot;Times New Roman&amp;quot;, serif;&quot; lang=&quot;UK&quot;&gt;.06.99&lt;/span&gt;.&lt;/font&gt;&lt;font style=&quot;font-size: 16.93px; letter-spacing: 0px; color: rgb(0, 0, 0); direction: ltr; line-height: 20.316px; opacity: 1;&quot;&gt;СCM&lt;/font&gt;&lt;span&gt;&lt;br&gt;&lt;/span&gt;&lt;/font&gt;&lt;/p&gt;&lt;/div&gt;" tags="Фон" id="7">
          <mxCell style="verticalAlign=middle;align=center;overflow=width;vsdxID=10;rotation=180;fillColor=none;gradientColor=none;strokeColor=none;spacingLeft=-1;spacingRight=-1;points=[];labelBackgroundColor=none;rounded=0;html=1;whiteSpace=wrap;fontStyle=0" parent="1" vertex="1">
            <mxGeometry x="54" y="9" width="280" height="58" as="geometry" />
          </mxCell>
        </UserObject>
        <UserObject label="&lt;div style=&quot;font-size: 1px&quot;&gt;&lt;/div&gt;" tags="Фон" id="8">
          <mxCell style="verticalAlign=middle;align=center;overflow=width;vsdxID=11;fillColor=#FFFFFF;gradientColor=none;shape=stencil(UzV2Ls5ILEhVNTIoLinKz04tz0wpyVA1dlE1MsrMy0gtyiwBslSNXVWNndPyi1LTi/JL81Ig/IJEkEoQKze/DGRCBUSfoYEBSI+RQSWED+G5QZTmZOYhKSVTobmRnrkxsYphzoEqBTIQDof4GVkO3ZNAIUgAGbsCAA==);strokeColor=#000000;strokeWidth=2;points=[];labelBackgroundColor=none;rounded=0;html=1;whiteSpace=wrap;" parent="1" vertex="1">
            <mxGeometry x="897" y="937" width="740" height="220" as="geometry" />
          </mxCell>
        </UserObject>
        <UserObject label="&lt;div style=&quot;font-size: 1px&quot;&gt;&lt;/div&gt;" tags="Фон" id="9">
          <mxCell style="verticalAlign=middle;align=center;overflow=width;vsdxID=12;fillColor=#FFFFFF;gradientColor=none;shape=stencil(jU9JCoAwEHvNXKXOHHyAyz8Eqy1qK7Vuv7dlDi4geEtmkpAA5bOqJwkoZu9sLzfdeAVUAKI2SjrtAwIqgfLWOtk5u5iG+VRHZUSjXWPCzj4RHSgOZqlgXrF00OZTmmGS0V/xIzWAqw0Puf/ezcOJV1N5Ag==);strokeColor=#000000;strokeWidth=2;points=[];labelBackgroundColor=none;rounded=0;html=1;whiteSpace=wrap;" parent="1" vertex="1">
            <mxGeometry x="965" y="937" width="1" height="220" as="geometry" />
          </mxCell>
        </UserObject>
        <UserObject label="" tags="Фон" id="10">
          <mxCell style="vsdxID=13;fillColor=#FFFFFF;gradientColor=none;shape=stencil(jU9JCoAwEHvNXKXOHHyAyz8Eqy1qK7Vuv7dlDi4geEtmkpAA5bOqJwkoZu9sLzfdeAVUAKI2SjrtAwIqgfLWOtk5u5iG+VRHZUSjXWPCzj4RHSgOZqlgXrF00OZTmmGS0V/xIzWAqw0Puf/ezcOJV1N5Ag==);strokeColor=#000000;strokeWidth=2;points=[];labelBackgroundColor=none;rounded=0;html=1;whiteSpace=wrap;" parent="1" vertex="1">
            <mxGeometry x="1057" y="937" width="1" height="220" as="geometry" />
          </mxCell>
        </UserObject>
        <UserObject label="" tags="Фон" id="11">
          <mxCell style="vsdxID=14;fillColor=#FFFFFF;gradientColor=none;shape=stencil(jU9JCoAwEHvNXKXOHHyAyz8Eqy1qK7Vuv7dlDi4geEtmkpAA5bOqJwkoZu9sLzfdeAVUAKI2SjrtAwIqgfLWOtk5u5iG+VRHZUSjXWPCzj4RHSgOZqlgXrF00OZTmmGS0V/xIzWAqw0Puf/ezcOJV1N5Ag==);strokeColor=#000000;strokeWidth=2;points=[];labelBackgroundColor=none;rounded=0;html=1;whiteSpace=wrap;" parent="1" vertex="1">
            <mxGeometry x="1117" y="937" width="1" height="220" as="geometry" />
          </mxCell>
        </UserObject>
        <UserObject label="" tags="Фон" id="12">
          <mxCell style="vsdxID=15;fillColor=#FFFFFF;gradientColor=none;shape=stencil(jU9JCoAwEHvNXKXOHHyAyz8Eqy1qK7Vuv7dlDi4geEtmkpAA5bOqJwkoZu9sLzfdeAVUAKI2SjrtAwIqgfLWOtk5u5iG+VRHZUSjXWPCzj4RHSgOZqlgXrF00OZTmmGS0V/xIzWAqw0Puf/ezcOJV1N5Ag==);strokeColor=#000000;strokeWidth=2;points=[];labelBackgroundColor=none;rounded=0;html=1;whiteSpace=wrap;" parent="1" vertex="1">
            <mxGeometry x="1157" y="937" width="1" height="220" as="geometry" />
          </mxCell>
        </UserObject>
        <UserObject label="" tags="Фон" id="44">
          <mxCell style="vsdxID=16;edgeStyle=none;startArrow=none;endArrow=none;startSize=5;endSize=5;strokeWidth=2;strokeColor=#000000;spacingTop=0;spacingBottom=0;spacingLeft=0;spacingRight=0;verticalAlign=middle;html=1;labelBackgroundColor=none;rounded=0;" parent="1" edge="1">
            <mxGeometry relative="1" as="geometry">
              <mxPoint as="offset" />
              <Array as="points" />
              <mxPoint x="897" y="957" as="sourcePoint" />
              <mxPoint x="1157" y="957" as="targetPoint" />
            </mxGeometry>
          </mxCell>
        </UserObject>
        <UserObject label="" tags="Фон" id="45">
          <mxCell style="vsdxID=17;edgeStyle=none;startArrow=none;endArrow=none;startSize=5;endSize=5;strokeWidth=2;strokeColor=#000000;spacingTop=0;spacingBottom=0;spacingLeft=0;spacingRight=0;verticalAlign=middle;html=1;labelBackgroundColor=none;rounded=0;" parent="1" edge="1">
            <mxGeometry relative="1" as="geometry">
              <mxPoint as="offset" />
              <Array as="points" />
              <mxPoint x="897" y="977" as="sourcePoint" />
              <mxPoint x="1157" y="977" as="targetPoint" />
            </mxGeometry>
          </mxCell>
        </UserObject>
        <UserObject label="" tags="Фон" id="46">
          <mxCell style="vsdxID=18;edgeStyle=none;startArrow=none;endArrow=none;startSize=5;endSize=5;strokeWidth=2;strokeColor=#000000;spacingTop=0;spacingBottom=0;spacingLeft=0;spacingRight=0;verticalAlign=middle;html=1;labelBackgroundColor=none;rounded=0;" parent="1" edge="1">
            <mxGeometry relative="1" as="geometry">
              <mxPoint as="offset" />
              <Array as="points" />
              <mxPoint x="897" y="997" as="sourcePoint" />
              <mxPoint x="1157" y="997" as="targetPoint" />
            </mxGeometry>
          </mxCell>
        </UserObject>
        <UserObject label="&lt;div style=&quot;font-size: 1px&quot;&gt;&lt;/div&gt;" tags="Фон" id="47">
          <mxCell style="vsdxID=19;edgeStyle=none;startArrow=none;endArrow=none;startSize=5;endSize=5;strokeWidth=2;strokeColor=#000000;spacingTop=0;spacingBottom=0;spacingLeft=0;spacingRight=0;verticalAlign=middle;html=1;labelBackgroundColor=none;rounded=0;align=center;overflow=width;" parent="1" edge="1">
            <mxGeometry relative="1" as="geometry">
              <mxPoint as="offset" />
              <Array as="points" />
              <mxPoint x="897" y="1017" as="sourcePoint" />
              <mxPoint x="1157" y="1017" as="targetPoint" />
            </mxGeometry>
          </mxCell>
        </UserObject>
        <UserObject label="&lt;div style=&quot;font-size: 1px&quot;&gt;&lt;/div&gt;" tags="Фон" id="48">
          <mxCell style="vsdxID=20;edgeStyle=none;startArrow=none;endArrow=none;startSize=5;endSize=5;strokeWidth=2;strokeColor=#000000;spacingTop=0;spacingBottom=0;spacingLeft=0;spacingRight=0;verticalAlign=middle;html=1;labelBackgroundColor=none;rounded=0;align=center;overflow=width;" parent="1" edge="1">
            <mxGeometry relative="1" as="geometry">
              <mxPoint as="offset" />
              <Array as="points" />
              <mxPoint x="897" y="1037" as="sourcePoint" />
              <mxPoint x="1157" y="1037" as="targetPoint" />
            </mxGeometry>
          </mxCell>
        </UserObject>
        <UserObject label="" tags="Фон" id="49">
          <mxCell style="vsdxID=21;edgeStyle=none;startArrow=none;endArrow=none;startSize=5;endSize=5;strokeWidth=2;strokeColor=#000000;spacingTop=0;spacingBottom=0;spacingLeft=0;spacingRight=0;verticalAlign=middle;html=1;labelBackgroundColor=none;rounded=0;" parent="1" edge="1">
            <mxGeometry relative="1" as="geometry">
              <mxPoint as="offset" />
              <Array as="points" />
              <mxPoint x="897" y="1057" as="sourcePoint" />
              <mxPoint x="1157" y="1057" as="targetPoint" />
            </mxGeometry>
          </mxCell>
        </UserObject>
        <UserObject label="&lt;div style=&quot;font-size: 1px&quot;&gt;&lt;/div&gt;" tags="Фон" id="50">
          <mxCell style="vsdxID=22;edgeStyle=none;startArrow=none;endArrow=none;startSize=5;endSize=5;strokeWidth=2;strokeColor=#000000;spacingTop=0;spacingBottom=0;spacingLeft=0;spacingRight=0;verticalAlign=middle;html=1;labelBackgroundColor=none;rounded=0;align=center;overflow=width;" parent="1" edge="1">
            <mxGeometry relative="1" as="geometry">
              <mxPoint as="offset" />
              <Array as="points" />
              <mxPoint x="897" y="1077" as="sourcePoint" />
              <mxPoint x="1157" y="1077" as="targetPoint" />
            </mxGeometry>
          </mxCell>
        </UserObject>
        <UserObject label="" tags="Фон" id="13">
          <mxCell style="vsdxID=23;fillColor=#FFFFFF;gradientColor=none;shape=stencil(UzV2Ls5ILEhVNTIoLinKz04tz0wpyVA1dlE1MsrMy0gtyiwBslSNXVWNndPyi1LTi/JL81Ig/IJEkEoQKze/DGRCBUSfAUiHkUElhGdoAOG7QZTmZObhVGpmpGdqgVsxzCSYchRzgQyEeyBeQZZDdztQCOJvY1cA);strokeColor=#000000;strokeWidth=2;points=[];labelBackgroundColor=none;rounded=0;html=1;whiteSpace=wrap;" parent="1" vertex="1">
            <mxGeometry x="1437" y="996" height="160" as="geometry" />
          </mxCell>
        </UserObject>
        <UserObject label="" tags="Фон" id="51">
          <mxCell style="vsdxID=24;edgeStyle=none;startArrow=none;endArrow=none;startSize=5;endSize=5;strokeWidth=2;strokeColor=#000000;spacingTop=0;spacingBottom=0;spacingLeft=0;spacingRight=0;verticalAlign=middle;html=1;labelBackgroundColor=none;rounded=0;" parent="1" edge="1">
            <mxGeometry relative="1" as="geometry">
              <Array as="points" />
              <mxPoint x="1497" y="1077" as="sourcePoint" />
              <mxPoint x="1497" y="996" as="targetPoint" />
            </mxGeometry>
          </mxCell>
        </UserObject>
        <UserObject label="" tags="Фон" id="14">
          <mxCell style="vsdxID=25;fillColor=#FFFFFF;gradientColor=none;shape=stencil(lY9LDoAgDERP0z3SI/i5B4koRAWC+Lu9NI3xs3M3075ppoDlbFTQIMWcoh/0ZttkACuQ0jqjo01ZAdaAZeej7qNfXMs+KCJJTX6lCzvnCiEoI8XBnl3D6GjdA32DV/A/msXdhh957r7N84i/xvoE);strokeColor=#000000;strokeWidth=2;points=[];labelBackgroundColor=none;rounded=0;html=1;whiteSpace=wrap;" parent="1" vertex="1">
            <mxGeometry x="1557" y="996" height="80" as="geometry" />
          </mxCell>
        </UserObject>
        <UserObject label="" tags="Фон" id="15">
          <mxCell style="vsdxID=26;fillColor=#FFFFFF;gradientColor=none;shape=stencil(UzV2Ls5ILEhVNTIoLinKz04tz0wpyVA1dlE1MsrMy0gtyiwBslSNXVWNndPyi1LTi/JL81Ig/IJEkEoQKze/DGRCBUSfoYEBSI+RQSUq3w2iOCczD0mxMQlq8SoFMhAOgvgFWQ7d8UAhiMeNXQE=);strokeColor=#000000;strokeWidth=2;points=[];labelBackgroundColor=none;rounded=0;html=1;whiteSpace=wrap;" parent="1" vertex="1">
            <mxGeometry x="1437" y="1017" width="199" height="1" as="geometry" />
          </mxCell>
        </UserObject>
        <UserObject label="" tags="Фон" id="52">
          <mxCell style="vsdxID=27;edgeStyle=none;startArrow=none;endArrow=none;startSize=5;endSize=5;strokeColor=#000000;spacingTop=0;spacingBottom=0;spacingLeft=0;spacingRight=0;verticalAlign=middle;html=1;labelBackgroundColor=none;rounded=0;" parent="1" edge="1">
            <mxGeometry relative="1" as="geometry">
              <Array as="points" />
              <mxPoint x="925" y="937" as="sourcePoint" />
              <mxPoint x="925" y="1037" as="targetPoint" />
            </mxGeometry>
          </mxCell>
        </UserObject>
        <UserObject label="&lt;div style=&quot;font-size: 1px&quot;&gt;&lt;p style=&quot;text-align:left;margin-left:0;margin-right:0;margin-top:0px;margin-bottom:0px;text-indent:0;vertical-align:middle;direction:ltr;&quot;&gt;&lt;font style=&quot;font-size:12.7px;font-family:Arial;color:#000000;direction:ltr;letter-spacing:0px;line-height:120%;opacity:1&quot;&gt;Розробив&lt;br/&gt;&lt;/font&gt;&lt;/p&gt;&lt;/div&gt;" tags="Фон" id="16">
          <mxCell style="verticalAlign=middle;align=left;overflow=width;vsdxID=28;fillColor=none;gradientColor=none;strokeColor=none;points=[];labelBackgroundColor=none;rounded=0;html=1;whiteSpace=wrap;" parent="1" vertex="1">
            <mxGeometry x="899" y="1037" width="72" height="20" as="geometry" />
          </mxCell>
        </UserObject>
        <UserObject label="&lt;div style=&quot;font-size: 1px&quot;&gt;&lt;p style=&quot;text-align:left;margin-left:0;margin-right:0;margin-top:0px;margin-bottom:0px;text-indent:0;vertical-align:middle;direction:ltr;&quot;&gt;&lt;font style=&quot;font-size:12.7px;font-family:Arial;color:#000000;direction:ltr;letter-spacing:0px;line-height:120%;opacity:1&quot;&gt;Перевірив&lt;br/&gt;&lt;/font&gt;&lt;/p&gt;&lt;/div&gt;" tags="Фон" id="17">
          <mxCell style="verticalAlign=middle;align=left;overflow=width;vsdxID=29;fillColor=none;gradientColor=none;strokeColor=none;points=[];labelBackgroundColor=none;rounded=0;html=1;whiteSpace=wrap;" parent="1" vertex="1">
            <mxGeometry x="899" y="1057" width="85" height="20" as="geometry" />
          </mxCell>
        </UserObject>
        <UserObject label="&lt;div style=&quot;font-size: 1px&quot;&gt;&lt;p style=&quot;text-align:left;margin-left:0;margin-right:0;margin-top:0px;margin-bottom:0px;text-indent:0;vertical-align:middle;direction:ltr;&quot;&gt;&lt;font style=&quot;font-size:12.7px;font-family:Arial;color:#000000;direction:ltr;letter-spacing:0px;line-height:120%;opacity:1&quot;&gt;Н. контр.&lt;br&gt;&lt;/font&gt;&lt;/p&gt;&lt;/div&gt;" tags="Фон" id="18">
          <mxCell style="verticalAlign=middle;align=left;overflow=width;vsdxID=30;fillColor=none;gradientColor=none;strokeColor=none;points=[];labelBackgroundColor=none;rounded=0;html=1;whiteSpace=wrap;" parent="1" vertex="1">
            <mxGeometry x="901" y="1117" width="53" height="20" as="geometry" />
          </mxCell>
        </UserObject>
        <UserObject label="&lt;div style=&quot;font-size: 1px&quot;&gt;&lt;p style=&quot;margin: 0px; text-indent: 0px; vertical-align: middle; direction: ltr;&quot;&gt;&lt;font style=&quot;font-size:12.7px;font-family:Arial;color:#000000;direction:ltr;letter-spacing:0px;line-height:120%;opacity:1&quot;&gt;Затвердив&lt;br&gt;&lt;/font&gt;&lt;/p&gt;&lt;/div&gt;" tags="Фон" id="19">
          <mxCell style="verticalAlign=middle;align=left;overflow=width;vsdxID=31;fillColor=none;gradientColor=none;strokeColor=none;points=[];labelBackgroundColor=none;rounded=0;html=1;whiteSpace=wrap;" parent="1" vertex="1">
            <mxGeometry x="900" y="1137" width="62" height="20" as="geometry" />
          </mxCell>
        </UserObject>
        <UserObject label="&lt;div style=&quot;font-size: 1px&quot;&gt;&lt;font style=&quot;font-size:12.7px;font-family:Arial;color:#000000;direction:ltr;letter-spacing:0px;line-height:120%;opacity:1&quot;&gt;Арк.&lt;br/&gt;&lt;/font&gt;&lt;/div&gt;" tags="Фон" id="20">
          <mxCell style="verticalAlign=middle;align=center;overflow=width;vsdxID=32;fillColor=none;gradientColor=none;strokeColor=none;points=[];labelBackgroundColor=none;rounded=0;html=1;whiteSpace=wrap;" parent="1" vertex="1">
            <mxGeometry x="925" y="1017" width="41" height="20" as="geometry" />
          </mxCell>
        </UserObject>
        <UserObject label="&lt;div style=&quot;font-size: 1px&quot;&gt;&lt;font style=&quot;font-size:12.7px;font-family:Arial;color:#000000;direction:ltr;letter-spacing:0px;line-height:120%;opacity:1&quot;&gt;№ документа&lt;br/&gt;&lt;/font&gt;&lt;/div&gt;" tags="Фон" id="21">
          <mxCell style="verticalAlign=middle;align=center;overflow=width;vsdxID=33;fillColor=none;gradientColor=none;strokeColor=none;points=[];labelBackgroundColor=none;rounded=0;html=1;whiteSpace=wrap;" parent="1" vertex="1">
            <mxGeometry x="962" y="1017" width="93" height="20" as="geometry" />
          </mxCell>
        </UserObject>
        <UserObject label="&lt;div style=&quot;font-size: 1px&quot;&gt;&lt;/div&gt;" tags="Фон" id="22">
          <mxCell style="verticalAlign=middle;align=center;overflow=width;vsdxID=34;fillColor=none;gradientColor=none;strokeColor=none;points=[];labelBackgroundColor=none;rounded=0;html=1;whiteSpace=wrap;" parent="1" vertex="1">
            <mxGeometry x="1057" y="958" width="60" height="19" as="geometry" />
          </mxCell>
        </UserObject>
        <UserObject label="&lt;div style=&quot;font-size: 1px&quot;&gt;&lt;font style=&quot;font-size:12.7px;font-family:Arial;color:#000000;direction:ltr;letter-spacing:0px;line-height:120%;opacity:1&quot;&gt;Підпис&lt;br/&gt;&lt;/font&gt;&lt;/div&gt;" tags="Фон" id="23">
          <mxCell style="verticalAlign=middle;align=center;overflow=width;vsdxID=35;fillColor=none;gradientColor=none;strokeColor=none;points=[];labelBackgroundColor=none;rounded=0;html=1;whiteSpace=wrap;" parent="1" vertex="1">
            <mxGeometry x="1057" y="1017" width="60" height="20" as="geometry" />
          </mxCell>
        </UserObject>
        <UserObject label="&lt;div style=&quot;font-size: 1px&quot;&gt;&lt;font style=&quot;font-size:12.7px;font-family:Arial;color:#000000;direction:ltr;letter-spacing:0px;line-height:120%;opacity:1&quot;&gt;Дата&lt;br/&gt;&lt;/font&gt;&lt;/div&gt;" tags="Фон" id="24">
          <mxCell style="verticalAlign=middle;align=center;overflow=width;vsdxID=36;fillColor=none;gradientColor=none;strokeColor=none;points=[];labelBackgroundColor=none;rounded=0;html=1;whiteSpace=wrap;" parent="1" vertex="1">
            <mxGeometry x="1122" y="1016" width="30" height="21" as="geometry" />
          </mxCell>
        </UserObject>
        <UserObject label="&lt;div style=&quot;font-size: 1px&quot;&gt;&lt;p style=&quot;text-align:left;margin-left:0;margin-right:0;margin-top:0px;margin-bottom:0px;text-indent:0;vertical-align:middle;direction:ltr;&quot;&gt;&lt;font style=&quot;font-size:12.7px;font-family:Arial;color:#000000;direction:ltr;letter-spacing:0px;line-height:120%;opacity:1&quot;&gt;Зм.&lt;br/&gt;&lt;/font&gt;&lt;/p&gt;&lt;/div&gt;" tags="Фон" id="25">
          <mxCell style="verticalAlign=middle;align=left;overflow=width;vsdxID=38;fillColor=none;gradientColor=none;strokeColor=none;points=[];labelBackgroundColor=none;rounded=0;html=1;whiteSpace=wrap;" parent="1" vertex="1">
            <mxGeometry x="899" y="1017" width="25" height="20" as="geometry" />
          </mxCell>
        </UserObject>
        <UserObject label="&lt;div style=&quot;font-size: 1px&quot;&gt;&lt;p style=&quot;text-align:left;margin-left:0;margin-right:0;margin-top:0px;margin-bottom:0px;text-indent:0;vertical-align:middle;direction:ltr;&quot;&gt;&lt;font style=&quot;font-size: 12.7px; font-family: Arial; direction: ltr; letter-spacing: 0px; line-height: 120%; opacity: 1;&quot;&gt;Чапча С.О.&lt;/font&gt;&lt;/p&gt;&lt;/div&gt;" tags="Фон" id="26">
          <mxCell style="verticalAlign=middle;align=left;overflow=width;vsdxID=39;fillColor=none;gradientColor=none;strokeColor=none;points=[];labelBackgroundColor=none;rounded=0;html=1;whiteSpace=wrap;fontColor=default;" parent="1" vertex="1">
            <mxGeometry x="969" y="1037" width="108" height="20" as="geometry" />
          </mxCell>
        </UserObject>
        <UserObject label="" tags="Фон" id="53">
          <mxCell style="vsdxID=40;edgeStyle=none;startArrow=none;endArrow=none;startSize=5;endSize=5;strokeWidth=2;strokeColor=#000000;spacingTop=0;spacingBottom=0;spacingLeft=0;spacingRight=0;verticalAlign=middle;html=1;labelBackgroundColor=none;rounded=0;" parent="1" edge="1">
            <mxGeometry relative="1" as="geometry">
              <Array as="points" />
              <mxPoint x="1637" y="1077" as="sourcePoint" />
              <mxPoint x="1437" y="1077" as="targetPoint" />
            </mxGeometry>
          </mxCell>
        </UserObject>
        <UserObject label="" tags="Фон" id="54">
          <mxCell style="vsdxID=41;edgeStyle=none;startArrow=none;endArrow=none;startSize=5;endSize=5;strokeWidth=2;strokeColor=#000000;spacingTop=0;spacingBottom=0;spacingLeft=0;spacingRight=0;verticalAlign=middle;html=1;labelBackgroundColor=none;rounded=0;" parent="1" edge="1">
            <mxGeometry relative="1" as="geometry">
              <Array as="points" />
              <mxPoint x="1637" y="1097" as="sourcePoint" />
              <mxPoint x="897" y="1097" as="targetPoint" />
            </mxGeometry>
          </mxCell>
        </UserObject>
        <mxCell id="55" value="&lt;div style=&quot;font-size: 1px&quot;&gt;&lt;/div&gt;" style="text;vsdxID=41;edgeStyle=none;startArrow=none;endArrow=none;startSize=5;endSize=5;strokeWidth=2;strokeColor=none;spacingTop=0;spacingBottom=0;spacingLeft=0;spacingRight=0;verticalAlign=middle;html=1;labelBackgroundColor=none;rounded=0;align=center;overflow=width;fillColor=none;gradientColor=none;whiteSpace=wrap;;html=1;;rotation=0" parent="54" vertex="1">
          <mxGeometry width="740" height="1" relative="1" as="geometry">
            <mxPoint x="-370" y="-0.5" as="offset" />
          </mxGeometry>
        </mxCell>
        <UserObject label="&lt;div style=&quot;font-size: 1px&quot;&gt;&lt;p style=&quot;text-align:left;margin-left:0;margin-right:0;margin-top:0px;margin-bottom:0px;text-indent:0;vertical-align:middle;direction:ltr;&quot;&gt;&lt;/p&gt;&lt;/div&gt;" tags="Фон" id="56">
          <mxCell style="vsdxID=42;edgeStyle=none;startArrow=none;endArrow=none;startSize=5;endSize=5;strokeWidth=2;strokeColor=#000000;spacingTop=0;spacingBottom=0;spacingLeft=0;spacingRight=0;verticalAlign=middle;html=1;labelBackgroundColor=none;rounded=0;align=left;overflow=width;" parent="1" edge="1">
            <mxGeometry relative="1" as="geometry">
              <mxPoint as="offset" />
              <Array as="points" />
              <mxPoint x="897" y="1117" as="sourcePoint" />
              <mxPoint x="1157" y="1117" as="targetPoint" />
            </mxGeometry>
          </mxCell>
        </UserObject>
        <UserObject label="&lt;div style=&quot;font-size: 1px&quot;&gt;&lt;/div&gt;" tags="Фон" id="57">
          <mxCell style="vsdxID=43;edgeStyle=none;startArrow=none;endArrow=none;startSize=5;endSize=5;strokeWidth=2;strokeColor=#000000;spacingTop=0;spacingBottom=0;spacingLeft=0;spacingRight=0;verticalAlign=middle;html=1;labelBackgroundColor=none;rounded=0;align=center;overflow=width;" parent="1" edge="1">
            <mxGeometry relative="1" as="geometry">
              <mxPoint as="offset" />
              <Array as="points" />
              <mxPoint x="897" y="1137" as="sourcePoint" />
              <mxPoint x="1157" y="1137" as="targetPoint" />
            </mxGeometry>
          </mxCell>
        </UserObject>
        <UserObject label="" tags="Фон" id="58">
          <mxCell style="vsdxID=44;edgeStyle=none;startArrow=none;endArrow=none;startSize=5;endSize=5;strokeWidth=2;strokeColor=#000000;spacingTop=0;spacingBottom=0;spacingLeft=0;spacingRight=0;verticalAlign=middle;html=1;labelBackgroundColor=none;rounded=0;" parent="1" edge="1">
            <mxGeometry relative="1" as="geometry">
              <mxPoint as="offset" />
              <Array as="points" />
              <mxPoint x="1157" y="997" as="sourcePoint" />
              <mxPoint x="1637" y="997" as="targetPoint" />
            </mxGeometry>
          </mxCell>
        </UserObject>
        <UserObject label="&lt;div style=&quot;font-size: 1px&quot;&gt;&lt;p style=&quot;text-align:center;margin-left:0;margin-right:0;margin-top:0px;margin-bottom:0px;text-indent:0;vertical-align:middle;direction:ltr;&quot;&gt;&lt;font style=&quot;font-size: 14.11px; font-family: Arial; direction: ltr; letter-spacing: 0px; line-height: 120%; opacity: 1;&quot;&gt;КПІ ім.Ігоря Сікорського&lt;br&gt;Кафедра ІПІ&lt;br&gt;гр. ІТ-&lt;/font&gt;&lt;font style=&quot;font-size: 14.11px; font-family: Arial; direction: ltr; letter-spacing: 0px; line-height: 120%; opacity: 1;&quot;&gt;0&lt;/font&gt;&lt;font style=&quot;font-size: 14.11px; font-family: Arial; direction: ltr; letter-spacing: 0px; line-height: 120%; opacity: 1;&quot;&gt;4&lt;br&gt;&lt;/font&gt;&lt;/p&gt;&lt;/div&gt;" tags="Фон" id="27">
          <mxCell style="verticalAlign=middle;align=center;overflow=width;vsdxID=45;fillColor=none;gradientColor=none;strokeColor=none;points=[];labelBackgroundColor=none;rounded=0;html=1;whiteSpace=wrap;fontColor=default;" parent="1" vertex="1">
            <mxGeometry x="1438" y="1103" width="200" height="52" as="geometry" />
          </mxCell>
        </UserObject>
        <UserObject label="" tags="Фон" id="59">
          <mxCell style="vsdxID=46;edgeStyle=none;startArrow=none;endArrow=none;startSize=5;endSize=5;strokeWidth=2;strokeColor=#000000;spacingTop=0;spacingBottom=0;spacingLeft=0;spacingRight=0;verticalAlign=middle;html=1;labelBackgroundColor=none;rounded=0;" parent="1" edge="1">
            <mxGeometry relative="1" as="geometry">
              <Array as="points" />
              <mxPoint x="1477" y="1017" as="sourcePoint" />
              <mxPoint x="1477" y="1077" as="targetPoint" />
            </mxGeometry>
          </mxCell>
        </UserObject>
        <UserObject label="" tags="Фон" id="60">
          <mxCell style="vsdxID=47;edgeStyle=none;startArrow=none;endArrow=none;startSize=5;endSize=5;strokeWidth=2;strokeColor=#000000;spacingTop=0;spacingBottom=0;spacingLeft=0;spacingRight=0;verticalAlign=middle;html=1;labelBackgroundColor=none;rounded=0;" parent="1" edge="1">
            <mxGeometry relative="1" as="geometry">
              <Array as="points" />
              <mxPoint x="1457" y="1017" as="sourcePoint" />
              <mxPoint x="1457" y="1077" as="targetPoint" />
            </mxGeometry>
          </mxCell>
        </UserObject>
        <UserObject label="&lt;div style=&quot;font-size: 1px&quot;&gt;&lt;p style=&quot;text-align:left;margin-left:0;margin-right:0;margin-top:0px;margin-bottom:0px;text-indent:0;vertical-align:middle;direction:ltr;&quot;&gt;&lt;font style=&quot;font-size:12.7px;font-family:Arial;color:#000000;direction:ltr;letter-spacing:0px;line-height:120%;opacity:1&quot;&gt;Аркуш&lt;br/&gt;&lt;/font&gt;&lt;/p&gt;&lt;/div&gt;" tags="Фон" id="28">
          <mxCell style="verticalAlign=middle;align=left;overflow=width;vsdxID=48;fillColor=none;gradientColor=none;strokeColor=none;points=[];labelBackgroundColor=none;rounded=0;html=1;whiteSpace=wrap;" parent="1" vertex="1">
            <mxGeometry x="1454" y="1077" width="68" height="20" as="geometry" />
          </mxCell>
        </UserObject>
        <UserObject label="&lt;div style=&quot;font-size: 1px&quot;&gt;&lt;p style=&quot;text-align:left;margin-left:0;margin-right:0;margin-top:0px;margin-bottom:0px;text-indent:0;vertical-align:middle;direction:ltr;&quot;&gt;&lt;font style=&quot;font-size:12.7px;font-family:Arial;color:#000000;direction:ltr;letter-spacing:0px;line-height:120%;opacity:1&quot;&gt;Аркушів&lt;br/&gt;&lt;/font&gt;&lt;/p&gt;&lt;/div&gt;" tags="Фон" id="29">
          <mxCell style="verticalAlign=middle;align=left;overflow=width;vsdxID=49;fillColor=none;gradientColor=none;strokeColor=none;points=[];labelBackgroundColor=none;rounded=0;html=1;whiteSpace=wrap;" parent="1" vertex="1">
            <mxGeometry x="1554" y="1077" width="76" height="20" as="geometry" />
          </mxCell>
        </UserObject>
        <UserObject label="" tags="Фон" id="61">
          <mxCell style="vsdxID=50;edgeStyle=none;startArrow=none;endArrow=none;startSize=5;endSize=5;strokeWidth=2;strokeColor=#000000;spacingTop=0;spacingBottom=0;spacingLeft=0;spacingRight=0;verticalAlign=middle;html=1;labelBackgroundColor=none;rounded=0;" parent="1" edge="1">
            <mxGeometry relative="1" as="geometry">
              <Array as="points" />
              <mxPoint x="1517" y="1097" as="sourcePoint" />
              <mxPoint x="1517" y="1077" as="targetPoint" />
            </mxGeometry>
          </mxCell>
        </UserObject>
        <UserObject label="&lt;div style=&quot;font-size: 1px&quot;&gt;&lt;p style=&quot;text-align:left;margin-left:0;margin-right:0;margin-top:0px;margin-bottom:0px;text-indent:0;vertical-align:middle;direction:ltr;&quot;&gt;&lt;font style=&quot;font-size:12.7px;font-family:Arial;color:#000000;direction:ltr;letter-spacing:0px;line-height:120%;opacity:1&quot;&gt;Т. контр.&lt;br&gt;&lt;/font&gt;&lt;/p&gt;&lt;/div&gt;" tags="Фон" id="30">
          <mxCell style="verticalAlign=middle;align=left;overflow=width;vsdxID=52;fillColor=none;gradientColor=none;strokeColor=none;points=[];labelBackgroundColor=none;rounded=0;html=1;whiteSpace=wrap;" parent="1" vertex="1">
            <mxGeometry x="900" y="1079" width="50" height="20" as="geometry" />
          </mxCell>
        </UserObject>
        <UserObject label="&lt;div style=&quot;font-size: 1px&quot;&gt;&lt;font style=&quot;font-size:12.7px;font-family:Arial;color:#000000;direction:ltr;letter-spacing:0px;line-height:120%;opacity:1&quot;&gt;Літера&lt;br/&gt;&lt;/font&gt;&lt;/div&gt;" tags="Фон" id="31">
          <mxCell style="verticalAlign=middle;align=center;overflow=width;vsdxID=53;fillColor=none;gradientColor=none;strokeColor=none;points=[];labelBackgroundColor=none;rounded=0;html=1;whiteSpace=wrap;" parent="1" vertex="1">
            <mxGeometry x="1438" y="999" width="59" height="20" as="geometry" />
          </mxCell>
        </UserObject>
        <UserObject label="&lt;div style=&quot;font-size: 1px&quot;&gt;&lt;font style=&quot;font-size:12.7px;font-family:Arial;color:#000000;direction:ltr;letter-spacing:0px;line-height:120%;opacity:1&quot;&gt;Маса&lt;br/&gt;&lt;/font&gt;&lt;/div&gt;" tags="Фон" id="32">
          <mxCell style="verticalAlign=middle;align=center;overflow=width;vsdxID=54;fillColor=none;gradientColor=none;strokeColor=none;points=[];labelBackgroundColor=none;rounded=0;html=1;whiteSpace=wrap;" parent="1" vertex="1">
            <mxGeometry x="1498" y="999" width="59" height="20" as="geometry" />
          </mxCell>
        </UserObject>
        <UserObject label="&lt;div style=&quot;font-size: 1px&quot;&gt;&lt;font style=&quot;font-size:12.7px;font-family:Arial;color:#000000;direction:ltr;letter-spacing:0px;line-height:120%;opacity:1&quot;&gt;Масштаб&lt;br/&gt;&lt;/font&gt;&lt;/div&gt;" tags="Фон" id="33">
          <mxCell style="verticalAlign=middle;align=center;overflow=width;vsdxID=55;fillColor=none;gradientColor=none;strokeColor=none;points=[];labelBackgroundColor=none;rounded=0;html=1;whiteSpace=wrap;" parent="1" vertex="1">
            <mxGeometry x="1558" y="999" width="80" height="20" as="geometry" />
          </mxCell>
        </UserObject>
        <UserObject label="&lt;div style=&quot;font-size: 1px&quot;&gt;&lt;p style=&quot;margin: 0px; text-indent: 0px; vertical-align: middle; direction: ltr;&quot;&gt;&lt;font style=&quot;font-size: 12.7px; font-family: Arial; direction: ltr; letter-spacing: 0px; line-height: 120%; opacity: 1;&quot;&gt;Крамар Ю.М.&lt;br&gt;&lt;/font&gt;&lt;/p&gt;&lt;/div&gt;" tags="Фон" id="34">
          <mxCell style="verticalAlign=middle;align=left;overflow=width;vsdxID=57;fillColor=none;gradientColor=none;strokeColor=none;points=[];labelBackgroundColor=none;rounded=0;html=1;whiteSpace=wrap;fontColor=default;" parent="1" vertex="1">
            <mxGeometry x="968" y="1058" width="94" height="20" as="geometry" />
          </mxCell>
        </UserObject>
        <UserObject label="&lt;div style=&quot;font-size: 1px&quot;&gt;&lt;p style=&quot;margin: 0px; text-indent: 0px; vertical-align: middle; direction: ltr;&quot;&gt;&lt;font style=&quot;font-size: 12.7px; font-family: Arial; direction: ltr; letter-spacing: 0px; line-height: 120%; opacity: 1;&quot;&gt;Жаріков Е.В.&lt;br&gt;&lt;/font&gt;&lt;/p&gt;&lt;/div&gt;" tags="Фон" id="35">
          <mxCell style="verticalAlign=middle;align=left;overflow=width;vsdxID=58;fillColor=none;gradientColor=none;strokeColor=none;points=[];labelBackgroundColor=none;rounded=0;html=1;whiteSpace=wrap;" parent="1" vertex="1">
            <mxGeometry x="968" y="1137" width="94" height="20" as="geometry" />
          </mxCell>
        </UserObject>
        <UserObject label="&lt;div style=&quot;font-size: 1px&quot;&gt;&lt;p style=&quot;margin: 0px; text-indent: 0px; vertical-align: middle; direction: ltr;&quot;&gt;&lt;font style=&quot;font-size: 12.7px; font-family: Arial; direction: ltr; letter-spacing: 0px; line-height: 120%; opacity: 1;&quot;&gt;Родіонов П.Ю.&lt;br&gt;&lt;/font&gt;&lt;/p&gt;&lt;/div&gt;" tags="Фон" id="36">
          <mxCell style="verticalAlign=middle;align=left;overflow=width;vsdxID=56;fillColor=none;gradientColor=none;strokeColor=none;points=[];labelBackgroundColor=none;rounded=0;html=1;whiteSpace=wrap;fontColor=default;" parent="1" vertex="1">
            <mxGeometry x="967" y="1117" width="94" height="20" as="geometry" />
          </mxCell>
        </UserObject>
        <UserObject label="&lt;div style=&quot;font-size: 1px&quot;&gt;&lt;p style=&quot;text-align:center;margin-left:0;margin-right:0;margin-top:0px;margin-bottom:0px;text-indent:0;vertical-align:middle;direction:ltr;&quot;&gt;&lt;font style=&quot;font-size:16.93px;font-family:Arial;color:#ff0000;direction:ltr;letter-spacing:0px;line-height:120%;opacity:1&quot;&gt;&lt;font style=&quot;color: rgb(0, 0, 0); letter-spacing: 0px; font-size: 16.93px; direction: ltr; line-height: 20.316px; opacity: 1;&quot;&gt;КПІ.ІT-0425.&lt;/font&gt;&lt;font style=&quot;color: rgb(0, 0, 0); letter-spacing: 0px; font-size: 16.93px; direction: ltr; line-height: 20.316px; opacity: 1;&quot;&gt;&lt;span style=&quot;font-size: 14pt; font-family: &amp;quot;Times New Roman&amp;quot;, serif;&quot; lang=&quot;UK&quot;&gt;0&lt;/span&gt;&lt;span style=&quot;font-size: 14pt; line-height: 28px; font-family: &amp;quot;Times New Roman&amp;quot;, serif;&quot; lang=&quot;RU&quot;&gt;45440&lt;/span&gt;&lt;span style=&quot;font-size: 14pt; font-family: &amp;quot;Times New Roman&amp;quot;, serif;&quot; lang=&quot;UK&quot;&gt;.06.99&lt;/span&gt;.&lt;/font&gt;&lt;font style=&quot;color: rgb(0, 0, 0); letter-spacing: 0px; font-size: 16.93px; direction: ltr; line-height: 20.316px; opacity: 1;&quot;&gt;СCM&lt;/font&gt;&lt;span&gt;&lt;br&gt;&lt;/span&gt;&lt;/font&gt;&lt;/p&gt;&lt;/div&gt;" tags="Фон" id="37">
          <mxCell style="verticalAlign=middle;align=center;overflow=width;vsdxID=1;fillColor=none;gradientColor=none;shape=stencil(nZBLDoAgDERP0z3SIyjew0SURgSD+Lu9kMZoXLhwN9O+tukAlrNpJg1SzDH4QW/URgNYgZTkjA4UkwJUgGXng+6DX1zLfmoymdXo17xh5zmRJ6Q42BWCfc2oJfdAr+Yv+AP9Cb7OJ3H/2JG1HNGz/84klThPVCc=);strokeColor=none;spacingTop=-1;spacingBottom=-1;spacingLeft=-1;spacingRight=-1;points=[];labelBackgroundColor=none;rounded=0;html=1;whiteSpace=wrap;fontStyle=0" parent="1" vertex="1">
            <mxGeometry x="1158" y="937" width="484" height="60" as="geometry" />
          </mxCell>
        </UserObject>
        <UserObject label="&lt;div style=&quot;font-size: 1px&quot;&gt;&lt;font style=&quot;font-size: 16.93px; font-family: Arial; direction: ltr; letter-spacing: 0px; line-height: 120%; opacity: 1;&quot;&gt;Схема структурна компонентів програмного забезпечення&lt;br&gt;&lt;/font&gt;&lt;/div&gt;" tags="Фон" id="38">
          <mxCell style="verticalAlign=middle;align=center;overflow=width;vsdxID=170;fillColor=none;gradientColor=none;shape=stencil(nZBLDoAgDERP0z3SIyjew0SURgSD+Lu9kMZoXLhwN9O+tukAlrNpJg1SzDH4QW/URgNYgZTkjA4UkwJUgGXng+6DX1zLfmoymdXo17xh5zmRJ6Q42BWCfc2oJfdAr+Yv+AP9Cb7OJ3H/2JG1HNGz/84klThPVCc=);strokeColor=none;points=[];labelBackgroundColor=none;rounded=0;html=1;whiteSpace=wrap;" parent="1" vertex="1">
            <mxGeometry x="1158" y="997" width="280" height="100" as="geometry" />
          </mxCell>
        </UserObject>
        <UserObject label="&lt;div style=&quot;font-size: 1px&quot;&gt;&lt;p style=&quot;text-align:center;margin-left:0;margin-right:0;margin-top:0px;margin-bottom:0px;text-indent:0;vertical-align:middle;direction:ltr;&quot;&gt;&lt;font style=&quot;font-size:16.93px;font-family:Arial;color:#ff0000;direction:ltr;letter-spacing:0px;line-height:120%;opacity:1&quot;&gt;&lt;span style=&quot;color: rgb(0, 0, 0); font-size: 14.11px;&quot;&gt;Вебзастосунок для впорядкування активностей та підтримки емоційного стану&lt;/span&gt;&lt;br&gt;&lt;/font&gt;&lt;/p&gt;&lt;/div&gt;" tags="Фон" id="39">
          <mxCell style="verticalAlign=middle;align=center;overflow=width;vsdxID=171;fillColor=none;gradientColor=none;shape=stencil(nZBLDoAgDERP0z3SIyjew0SURgSD+Lu9kMZoXLhwN9O+tukAlrNpJg1SzDH4QW/URgNYgZTkjA4UkwJUgGXng+6DX1zLfmoymdXo17xh5zmRJ6Q42BWCfc2oJfdAr+Yv+AP9Cb7OJ3H/2JG1HNGz/84klThPVCc=);strokeColor=none;points=[];labelBackgroundColor=none;rounded=0;html=1;whiteSpace=wrap;" parent="1" vertex="1">
            <mxGeometry x="1158" y="1097" width="280" height="60" as="geometry" />
          </mxCell>
        </UserObject>
        <UserObject label="" tags="Flowchart Connector" id="62">
          <mxCell parent="1" vertex="1" visible="0">
            <mxGeometry as="geometry" />
          </mxCell>
        </UserObject>
        <UserObject label="" tags="Фон" id="ME7sCt4IF3dhlvnfU3LJ-62">
          <mxCell style="vsdxID=47;edgeStyle=none;startArrow=none;endArrow=none;startSize=5;endSize=5;strokeWidth=2;strokeColor=#000000;spacingTop=0;spacingBottom=0;spacingLeft=0;spacingRight=0;verticalAlign=middle;html=1;labelBackgroundColor=none;rounded=0;" parent="1" edge="1">
            <mxGeometry relative="1" as="geometry">
              <Array as="points" />
              <mxPoint x="1436" y="998" as="sourcePoint" />
              <mxPoint x="1436" y="1158" as="targetPoint" />
            </mxGeometry>
          </mxCell>
        </UserObject>
        <UserObject label="" tags="Фон" id="krZepnfNmue6mBw8-n1--62">
          <mxCell style="vsdxID=24;edgeStyle=none;startArrow=none;endArrow=none;startSize=5;endSize=5;strokeWidth=2;strokeColor=#000000;spacingTop=0;spacingBottom=0;spacingLeft=0;spacingRight=0;verticalAlign=middle;html=1;labelBackgroundColor=none;rounded=0;" parent="1" edge="1">
            <mxGeometry relative="1" as="geometry">
              <Array as="points" />
              <mxPoint x="1564" y="1078" as="sourcePoint" />
              <mxPoint x="1564" y="997" as="targetPoint" />
            </mxGeometry>
          </mxCell>
        </UserObject>
        <mxCell id="elYw-TwGQvplscyIZUIp-65" value="" style="shape=image;verticalLabelPosition=bottom;labelBackgroundColor=default;verticalAlign=top;aspect=fixed;imageAspect=0;image=data:image/jpeg,/9j/4AAQSkZJRgABAQEAkACQAAD/4gHbSUNDX1BST0ZJTEUAAQEAAAHLAAAAAAJAAABtbnRyUkdCIFhZWiAAAAAAAAAAAAAAAABhY3NwAAAAAAAAAAAAAAAAAAAAAAAAAAAAAAAAAAAAAQAA9tYAAQAAAADTLVF0BQ8AAAAAAAAAAAAAAAAAAAAAAAAAAAAAAAAAAAAAAAAAAAAAAAAAAAAAAAAAAAAAAAlyWFlaAAAA8AAAABRnWFlaAAABBAAAABRiWFlaAAABGAAAABR3dHB0AAABLAAAABRjcHJ0AAABQAAAAAxyVFJDAAABTAAAACBnVFJDAAABTAAAACBiVFJDAAABTAAAACBkZXNjAAABbAAAAF9YWVogAAAAAAAAb58AADj0AAADkVhZWiAAAAAAAABilgAAt4cAABjcWFlaIAAAAAAAACShAAAPhQAAttNYWVogAAAAAAAA808AAQAAAAEWwnRleHQAAAAATi9BAHBhcmEAAAAAAAMAAAACZmYAAPKnAAANWQAAE9AAAApbZGVzYwAAAAAAAAAFc1JHQgAAAAAAAAAAAAAAAAAAAAAAAAAAAAAAAAAAAAAAAAAAAAAAAAAAAAAAAAAAAAAAAAAAAAAAAAAAAAAAAAAAAAAAAAAAAAAAAAAAAAAAAAD/2wBDAAQDAwQDAwQEAwQFBAQFBgoHBgYGBg0JCggKDw0QEA8NDw4RExgUERIXEg4PFRwVFxkZGxsbEBQdHx0aHxgaGxr/2wBDAQQFBQYFBgwHBwwaEQ8RGhoaGhoaGhoaGhoaGhoaGhoaGhoaGhoaGhoaGhoaGhoaGhoaGhoaGhoaGhoaGhoaGhr/wgARCAIlA3ADASIAAhEBAxEB/8QAGwABAAMBAQEBAAAAAAAAAAAAAAQFBgMCBwH/xAAZAQEAAwEBAAAAAAAAAAAAAAAAAQMEAgX/2gAMAwEAAhADEAAAAfv/AMr+qYJlLwx0a8FGvIKYK17oo154KZeCjXgo507g0agNwAAGY4zZufulaBmsz61izERoETn2gGfXP5KnXfUz7QcIUzQDPtAM+0Az82ZaaOMP6sZnp46JeomiXvEqHa3KJdeijXool7xKheiiXool6KJeiiXoorCbKr6yvrrNx+rWrJMVqyFashWrKrR6WXhMBZcSGshWrIVqy8EBZCtWQrVkK1ZCtWQrVkK2DoKma93gt7grfKvAxAeMvq4Ccxx2vF3j9Dakdw4AcO/Bo1AbwAAM/NhTclvYZbaCqt5ffGHjfU6KWIl7eyPnFP8AQpcsV+fSKKHKFe2XM/JrTT+u4wv0yVVcTajnrhaVdppqzUyHM9nAQq/mb2ptIhjeWnu+Z+Vz91XpyEn6DERi7yRdy+d9tnSxOa02kiTE1RXcx6EgEqLKq7zk2FN8/wB0J5AAZXVVjnHTtR+zzQVG56pza69mObDyipmzY6cjb3XtGQvrKQnoI7AAAVNtUzVu8FvfnF/i6ZR27H1RqwvHLmiSo7dPVGrC8cuaJKjt09eEeQ0agNwAAGfmwpuS3sMtpl7Czi4U7pcKcXCnFwpxcKcXCnFxQc7niZQ464WlXaaas1MhzPZwQptFe8yM/E6BXuZsFeLBXiwV4sFeLBXiwUN91FXaU9xMBJKiyqu85UW8nz/bhWNTN7prJchPMmj6woWdjmvSe8uk/ZjV0dmhHsYxNZL8+I7tqOzTXHsY1cnzLppMxoaPhGhd2OT0aayXITEmjs4sd++NtUo3fyb6z82u8exsI2xTl/zUxVvz6Xayyp8c64uPVDaHWxzX00y7UD5dqYU1RqA1AAAZ+bCm5Lewy24fYVPfZRJn4iw08aHhi/RrP3M6Qs+OT9mgn5LiaeT8/wCpf3Nbwx234zW8LSrtNNWamQ5ns4PPqFN5lw78KrJfGNQU27fjnqU2kfKzTRzMbGN4yUc2UnGXAlRZV1RV2ltYSSosqrvOe/EDz/cs9dkZV/m6RWeOq/2g09eZtqpBk+2m/CwUc4nK+WYmbCm1bNczdjbjs6TrJMf+3/YyUvVDObKvhl4g+Swwm2xPF/Xl59caN3gN/wDJrvH1Gx+a8nf098s/V31J8vnm/wCPzLgfXFD88PsL5ZNPoz5T6LC8zGnZtQGkAADPzYU3Jb2GW3F/Qcj00VaplVvOqZUaplRqmVGqZUaplR3mV1rn77CqzhaVdppqzUyHM9nBRXvn1zLh3ouO9sxivrZsYNmxg2bGDZsYNmxgsJVLdWcU9wd8hJKiyqu85Jje/P8Ac8xpEezJU+LlPPb85Clk2PMi8LUVnaaPdlS9D8l9uHN8eptnVFNf8R1oLoV3uV0Kr1ZiFYeORdVH7YRZ2qevKOt382+k4C7xpXThYOaqZJ8O+Kjklmg8S0QfRMVt2RkkRJdBfudQGsAADPzYU3Jb2GW0ydtbxbKl1FsqRbKkWypFsqRbKkW1Bxu+JlCvvhaVdppqzUyHM9nBCm0V7zLP6DhX3GamiqshrSQUawiHJd/hSrz8KReTTEX0WVbXV2lPcWcBJKiyqu85AnyfP9ysto+uv87MtMmvDxdhnjJXehpiqaDqd2mGZaYYN+za9chplmTM+dR5PmM6b+FZ5ufw4WnrSGZaYZmp3mE40efVtU83bv5N9Z+bXePcbHHbF2jyC7Kzungpq7c8TE2Wp6mE+hgB8w08Kay6gNQAAGfmwpuS3sMtuH+i5TV7KM134VOnjSwa/wBE2dU8i341Xst+cGIaLtkNQRLCvjY7b8ZreFpV2mmrNTIcz2cHn1Cm8y4d+FVmgyOuU2/O5G8GDh/SB82ttmPn3rfjGbMM5KiyrqirtLawklRZVXec9+IHn+5Z67BXN/m6TNfuKnje/vzfsfRfz55DPok757+H0Gw+Z6A2jNiom1/7Xr3rNrMn5JwUU+ke/nX6fQ4nzuwPoXn591PpkjF2BpMJb0vF8jl59c37vAb/AOTXePqNjkIKresEWXGclipseorFmNRa4Ib1ghwvKG+RqCI1y0CsNEzX6aRz6GfmwpuS3sMtuL+g5Ror1bKLOdWyg1bKDVsoNWyg1bKCRMhWNHfYVd8LSrtNNWamQ5ns4KK98+uZUV7n+euyU4mKlCKlCKlCKlCKlCLdUN93FPcHXISSosqrvOSY3vz/AHJP5VX1mWMkp5jeJmcLpjuBuGO2Zw6yRGSRHU3vi61SXdMZJzZce8N7Ns+e2xrOWe15GSRG/ZGe5suqnryTu/m30nAXeN3sI1w6gO/VbDTv0gLfgV67hEFP8kJNsjIWFHeKNRRWcFqqLe4FNS7Mc+nDuZ+bCm5Lewy21H7Q/QddOcfnS/jwmRD8epRDSIh7S4p+JFgZjtJmZbJQz28LSrtNNWamQ5ns4IU2iveZcO/CqzQZ/QU1NvuRgJpqeOVkGxYWUbHxipZr5eX1BnJUWVdVV2lPcW1hJKiyqu85AnyfP9zlrsjrr/NHz7qv6DXZqSXcGLxLa0yU40rL3JPBhJsKbVs1wtxouIll/wAa/wBk39q/Ba32a8GoQJ4wm7wnF/n1bVPGjd/JvrPza7x7ifA2LvN/mlLvnnnf9j5/I3AzlTuR8tsPoQwF9oR8w08L9ZbWj1vFq+d+vpEMxXH6D2Plv1qPxIc2pk5bLPxX/Hc9m9+i5TV6aqnI/RGnjDw/ogzlZthjmxGJi/QB8733YZywr6vHbqlAz2XFpj7HTVxmZjHeti+resdsRw70XHe2YxX1s2MGzYwbNjBs2MGzYwWEqlurODJWHcXqiIvZWYk198vfxn6ph9jrYw+HVVnT9U813G3FXyuRXLEVt3GFmrB08zo3FsxWO6uUOxFR7tBTSLEV35ZCTKrBZwOdhz3H5efSd3gN/wDJrvH1UH9vFVEvSyiXool6KJeiiXool6KSzyOuRqA1gAAZ+bCm5Lewy20vOl0uiqIlrIiJYiJYiJYiJYiJY5zc/pKO+wq74WlXaaas105zPZwUV759cyM7z1onBx13cB3cB3cB3cB3cB3Z7Q9809wdchJJjSqu8xNje/P9z912R11/mh1Wzui4mG46+OZf6JXWB7ABhJsKbVs1wtxs7oopg2ulmJ/dJ0Mx9Bq7QAYTd4Ti+2qevLjRu/m30nAXeNOsq26WRY9jHXRonmSeJvqIWPKVliy7c5hVX9fdmUm0d4y6gNQAAGfmwpuS3sMttDbZPZ7KKXtB6aePdXb8zjM68jhGndDjHsOBU2XqwIsaTMx2yhmt4WlXaaas1MhzPZwQptFe8y4d+FVkusus7TbO4eOxUdZ04oJMqWeINhCIeyoNCZ+VFlXVVdpT3FtYSSosqrvOQJ8nz/c5a7CybsOx+a3NfNfaXneJpodb5LednRf32CtzcMcIs2Pzr1bpjlmWmn8a40XnMyCy91Hs0XigG9ssP3NjhJXLm7h6tqnm3d/JvrPza7x51tB8uLBXndgrxYK8WCvFgrxYK8UGsj0Dn6eg+GuxVUgmq7mWqHzK+bRWWWyxV/PLbn7+ZV3VyEdbEhHEhHEhHEhHEhHETRVXOjq/FVnC0q7TTVmpkOZ7ODz6hTeZZ7Q0XHVmr3HdgrxYK8WCvFgrxYK8cNDS3VnBV2nXISSosqrvOQJ83z/crrEnmjl2IUd4K6xCjl2IUd4K6xCjl2IUd4K6xCjl2Ii1q8RXWImjl2IUd4K/jbVPVW7wG/8Ak13j6jY47Yu3HtxXZ/rwsSPw4Vhf9c5YFhf4DfgHzu6zWnZtRRXsRpzP7pPRl6b6AOncM/NhTclvYZbcX9B+dd9tG+fNfejj6O+YXhs3z6+NGxMc3z59LNs+V2ZfTKm6xW9hnt4WlXaaas1MhzPZwUV759cy4d+FVmgYGHTb9KfOI59PYyObt867G/YqEfQmOtDjKiyrqqe4LawklRZVXecmwpvn+6E8gAAAAAAAAAUd5R3iASAAqbapmrd/NvpOAv8AFnbHHbFYqbbIrrKTnoZpJPjOl4yfM3dj860poAYqbR3jLmbi18NXF0ryw5dexGjSZpzmwpuS3sMttDo8lYaqpnatXcTPyILONFE7tVix8QRY8Io9RudzmslCizhaVdppqzUyHM9nBCm0V7zLh3z9fexrq9VZbca8T+tWLPnAFr1pROm0g7SqG+trq7SnuLOAklRZVXecmwpvn+6UvaeLQqC3VdoFR7LQqC3VdoFR7LQJAAAo7yku0AkABU21TNW7+TfWfm1/jWnThYOIyT4d8VHJLPlG4log+iYrbsjJIzekr7BzqA1gAAZ+bCm5Lewy25qV4vNNVMvO1vOdaT8M40cQp2o8GaaT2ZhoJBlLivjZ+78U2cLSrtNNWamQ5ns4PPqFN5mJD47avvHr2Xx3l2r/AAyrV8TNNNKMe2HIyjYDG3MKbZWVdp3yEkqLKq7zk2FN8/3YU38p+q7l6dZ/L0PL0PL0PL0PKn/IsuRzcAABSXdJdoBIACptqmat3gN/8mv8bUbHHbF2jyI67OzrPiZqu2UcyVlrYhkPocTqdgfO7zMadm1AaQAAM/NhTclvYZbcXc0W220YaTs+ujj5jM23sweuteBjeO67GK/Nn4PmFvu+RS2cOwxW9hnt4WlXaaas1MhzPZwUV759czRbbE7am3J0e1l1WYOr+m8THedr+mD6bjyZTxuI5itj+WBnJsKbfTT3BZwEkqLKq7zk2FN8/wB2jldeXdG3p7jnd5+M7SJxSRNV4Mb11EsodlUW5n6q15V6gr1gAAUl3R3iASAAqbapmrd/NvpOAv8AFnbHHbFY+e/Qi75r0+jcj57K3HU+aQfrI+f2+pAGKm0d4y6gNQAAGfmwpuS3sMttfF6eLOPxdVMub9uZUrp4R+Lqpieb9uZUrp4Rw/b+Lx1KHHXC0q7TTVmpkOZ7OCFNprPmY3KXV8zJTvETERrcgpdWSU7wREbuekurPV3x8dREtIM6YCSVFlVd5ybCm+f7v5XRZXVG3F/nsjrqEpPN7+lTZSJRPBn6G+qq9NgK9gAAFJd0l2gEgAKm2qZq3fyb6z82v8a42OEqXP1FhfCzW/LbG3KSwkVZy/L3wbr38utzdMFVnrTwZyvUBrAAAz82FNyW9hltAAAAAAAAA4WlXaaas1MhzPZwBEgAAAAKK9ooXokAAAlRZVXecmwpvn+7C/ZdP1UXbvNSLsUi7FIuxSLsUV3T/nNtyObwAAKO8pLtyDoABU21TNW7wW9wV/i3gYgAAAAAHDvwaNQG8AADPzYU3Jb2GW0AAAAAAAADhaVdppqzUyHM9nAESAAAAAor2khdqIXqiF6oheqIXsrMSa++U3MfPcHs/TZX7+dcbcXee+SfW6AqOGm7GVsrLqWQM/VWvKvUFesAACku6O8QCQAFTbVM1bvBb3BX+LeBiAAAAAAcO/Bo1AbwAAM/NhTclvYZbQAAAAAAAAOFpV2mmrNTIcz2cARIAAAAAAAAACVFlVd5zvwm+f7n5XRZXVO3F/nsjrqEpPN7+lTZSJRPBn6G+qq9NgK9gAA/Clu/n30GeAjsABU21TNW7wW9wV/i3gYgAAAAAHDvwaNQG8AADPzYU3Jb2GW0AAAAAAAADhaVdppqzUyHM9nAESAAAAAAAAAAlRZVXecmwpvn+7C52FV1VXN4sy4NsvZim8GDbyKY1u/0wOpj13N1yOLwAOFV23fef4BvvoLqn58+go6+fPoI+fS9tkY6k1NtU827vBb3BX+LeBiAAAAAAcO/Bo1AbwAAM/NhTclvYZbQAAAAAAAAOFpV2mmrNTIcz2cARIAAAAAAAAACVFlVd5ybCm+f7tHK68u6NuLvPzdHtoJkvzb/AIY6H9E/RI8+jP1Vryr1BXrAEJEa0ora3F2l0vvui5/a6OWMqmgGkoP3nzZc1NtU1bN3gt7gr/FvAxAAAAAAOHfg0agN4AAGfmwpuS3sMtoAAAAAAAAHC0q7TTVmpkOZ7OAIkAAAAAAp+UL1RC9UQvVEL2VmJNffKbmaHB7X0Ouid5r3avX+fYYzR0pS9bzkVlv76l4rxX0NjHr02Ar2KG+pHKq2A+U/e8byszbdiE17diK4+kMQNvkY35HdnU21Txfu8FvcFf4t4GIAAAAABw78GjUBvAAAz82FNyW9hltAAAAAAAAA4WlXaaas1MhzPZwBEgAAAAAUV7RXsAkAAlRZVXecor2b5/twpHmqmJzuOCDao4O9UTncngg2qOE7hSJ0QSpLukRdhIACjvKNF4EgKm2qZq3eCuc3f4unKViulfYBSyk2BSoulfYBSyk2BSouuEaS06hntC3AAAZ+bCm5Lewy2gAAAAAAAAcLSrtNNWamQ5ns4AiQAAAAAKK9or2ASAASosqrvOTYU3z/AHQnkAAAAAABSXdIi7CQAFHeUaLwJAVNtUzVd0Wzxl/i9bCNsXWX8auOt+dSbqcZzjY1x29RLIhXdJ9DMu1Aw9hCms91O8e2sjxCzUAv1JdmfmwpuS3sMtoAAAAAAAAHC0q7TTVmpkOZ7OAIkAAAAACivaK9gEgAEqLKq7zk2FN8/wB0J5AAAAAAAUl3SIuwkACpyP0KhnjQCOwFTbVM1bXEXtFf4szY47YrI3DERl2765epPo1VkrM1nChpTdd/nfU+h9fn30ExU2FNZZGgg/jVTeNBLKSq2Ay+ocyjmwpuS3tltTxzWVF7S+rOe0Tq6i4reKHK9p0u0TqLit4ocr2nS7Rfy6rn2OO+FpV2mmrNTIcz2cARKivUKW6CujXQV1iKW6CujXQ4RbEUtlIoi9EgEqLKq7zk2F++f7kxSXM8+kOAXbzFJikuT0hwC7eYpMUlyekCeKS7pC7CVbZZxzde8ZTTz9SpMX7mPpj5jLifob5x9HjpU21TPGxxm3xF/izoPWwU1S18O61XyTu88T318+g43ZVLUc+lfYGlzfC4bcT30wzX5byig9X/ALPybQz8tlrF+WXtHel1GX1Gqupl52rv42HCi7F12z0U0PXL8zWecnWn0mXnNGZjn0mYLpwps4WlXaaas1MhzPZwBEqS7rYWSvhF6oheqIXqiF6oheqIXvCvnkgSASosqrvOefULz/bulP16rs1YLNWCzVgs1YLNWCzVnAXRHaku6QuwkcDuqpXVUtyTx1R40dWKvsObVTbVM13dFs8Zf4szY47YrEeRAXUk6fFKKu20EyllqeJj/ocPyTgYqbCmst1O8e2oAADPzYU3Jb059ouWyu1FFC016plVnOqZUaplRqmVGqZUaplR7t6+szWaZQuOre0x9hpq5TMxK9fFeqJC9fLNPE3Osyesz3GJk89a1mK03LBzDYMTPNOwm7M1XWK6qYoltd6oheysxKr74zfmGhwezrtLmuV/m6pip8xpmD4H0NiJBr2JiH0Fk45tM/JjFXPzcij07yk/IaNQI7iSKLc2Y5gszAAVuX3Xzzm2+qbapq17XEXtFf4szY5CCr3vzqR4WRraKJUqr/CLCt/0g63O+zesEJE3n0cyNBBnNgAAGfmwpuS3tQX/ABzWVfrxqNVWaWEy3mje5hATZBVJUkrE72Vy0mmZnw7fJb7FXfC0q7TTVmpkOZ7OAImm72SFZrMVPz3XNZxc9dv3gJEusHXpGEm9zI/elR6uqvRbwAlRZVXeG7z5uD21xj7y/wAvp58pidA/RDneR78AmQxI4flIW6BPz+oCQKm8o93bhzna9590eOtPzJMK3lmZg7TI82Sam2qatmxxm3xF/i9bCNsXWX8auOt+dSbqcZzjY1x29RLIhXdJ9DMu1Aw9hCms8CyptU1u35VlrygRC/QL0x1im5bI8C9oM1nrTZvUbKvnHr6Kv4w3jeDLUX0YYf8AduPnPj6SPn/0AMxz6TMF04U2cLSrtNNWamQ5ns4AiVJd1sLISAAAAAcO8eEgSASosqrvOefULz/buhIAAAAACluhAJAqd3hN3bhDugABkddkebJNTbVNWy7otnjL/FmbHHbFZ+Vvv58u3HrN9TTdcF+G5YeIfSoeJsTb+wxU2FNZbqdWx2qJ5uPJ0oL/AJnG3rfZXTayzyW9uPaLls4wvNz3FQs6qY9LfnCsebkqFnVS9LfnCsebkhWHCoidCOeuFpV2mmrNTIcz2cARIo4XiBPCjmk8oy8QJ4Uc0nlGXlFNkncSASosqrvOTYU3z/d5VF4niN06ijs5I5VF4I3TqKOzkjlUXgjSQBIFXrKeq7z7pkp1mO/cOsx6VNbE6jEeZ3GntU21TxdtcRe5K/xr6D0MvN0HN0HD30HN0HJ1HN0E3pXTl1Y2E5t+d131WOYV9B/TEVX0wYHVwpGO2WjslshHEhHEhHEhHEhHEhHEhHEhHEhHH7aUt1rqzUyple158xDRMxDExDExDExDExDExDExDExDExDExDEyVU21Xecm1krzvekoyeZKMJKMJKMJKMJKMJKMJKMJKMJKMJKMJPjiIXOxI/JUYmSjCTUzYM1bL5kX+fX/AGcPlFeH2f5QFf8AZw+UV4fZ/lAV/wBnD5RXh9nAAABTcAAAAAAAAAAAAAAAAAAAAAAAAAAAAAAAAAAAAAAAAARA/8QALhAAAQQBAwMDBQEAAgMBAAAAAwACBAUBFBU0EBM1ESAwBhIxMjNAI0UhIiQl/9oACAEBAAEFAlVVUAtXs1atmrVs1atmrVs1atmrVs1atmrVs1atmrVs1atmrVs1atmrVs1aqIQwO+C2COQbaqv12mrW01a2mrW01a2mrW01a2mrW01a2mrW01a2mrW01a2mrW01a2mrW01a2mrW01a2mrW01a2urWxVabBqnt2+sW31i2+sW31i2+sW31i2+sW31i2+sW31i2+sW31i2+sW31i2+sW31i2+sW31i2+sW31i2+sW31i2+sW31iFTVRR4jUTsaSjWko1pKNaSjWko1pKNaSjWko1pKNaSjWko1pKNaSjWko1pKNaSjWko1pKNaSjWko1pKNaSjWko1pKNaSjWko1pKNaSjWko1pKNaSjWko1PgVea5U3h/bmZGafJh4d0a7D2+2o/t8Fhy2ft0kSBxRAsASSexhWPeUrAta/Ds9BFYdnuJ+FF4vsKRoRhsgHInu+xvs7re78cLhQ+J8DbKG8qw5ucruswT24c12flleMVN4f2O9fti6XZivcyfBzLK6Ph32048DrfbUf2+Cw5bP26W/3ZhT4snSz44ROlDCwUv0PJmRhvabMYGWDi5CTtaoQASDU2MMiVllDxHh6c0/GDlh9sOIgADjj6E/Ci8X2WfjglYWTEMMjGZEyLIjic2QzuTcdoNtWZEKwky48SztzRZRP/AD9koeMzYAWZne+FwofE+Bnb2SwKXs/+onVLiYkGORxP/EmRH/5cwsyyILjCbWOcwkTkzjE7rXk1cHMsrqlucxfhleMVN4f25hRsnyEeXNiR2HwEeMDCMOPbUf2+Cw5bP26ZtgYzHmjlZWbYGMx5o5WVm2BjMeaOVlZtgYzHmjlZTrUGFXlFlqDPCY/Qn4UXiqRJZGxuwFjP3YkSWRsbsBYz92JElkbG7AWM/diRJZGxuwFjP3YkSWRsZnx3Hxn7sSJLI2N2AsZ+7HthcKHxPgZXQ2FJDjFI6JHehRggw0bGMdCjPdmIDJ2xI7DDhRgoEUEVpa6GcmYMXJBgy07Ykdp2MaNvwyvGKm8P89R/b4LDls/b/CXzXQn4UXip0jDZX+GtO6TXeyFwofEj2EqSABjketTMQDHI9amYgGOR61MxAMcj1qZiAY5HrUzEAxyPWpmIBjketTMQDHI9amYgGOR61MxAMcj1qZiinIfErxiru5svaskPD8MNgrmdqyQ8Pww2CuZ2rJDw/DDYK5naskPD8MNgrmdqyQ8PwyQfIS1H9vgsOWz9umJ5cfTums1prNaazWms1prNaazWms1prNaazWms1prNaazWms0906LJyBrpHQn4UXiovmOkFllNhaKyWislorJaKyWislorJaKyWislorJaKyWislorJSsWEIaqhuDV+yFwofEYxo2ekqTO26wW3WC26wUoE+KMQLzBXbhiqkENGdqJDZRizQm26wW3WC26wW3WCglIUHpKkztusFt1gtusFNj2USM1t0wpW2AoRClEYUiQ4zDTXStusFt1gtusFt1goJSFApXjFE4JWlkWO0FW0FW0kwseuVhsVxhxGGIyMMuWQ8OG6E1i04syNoKtoKtoKs4LifUf2+Cw5bP26EG8P0hInYA9tmztEkNEYdhFM+LaRZgx3EQjx2f3EbLjvPixiOeG3hHjYlx8yI1kKS8U6Kdk04pBclZgvQn4UXir0x69KLwkidgD22bO0SQ0Rh2EUz4tpFmDbdRHZDY/edk2MV4pkc78SxZeyfEIAJxSR3fB90LhQ+JGO2VHr/L9ZwCFZ2pMqc76fBmntYk2Wix5fpo5ATeyu/lX+X62wMyIAa/HfJQxmwp0OdJKSPLe2NFkAkeyu/lGO4ppXjFWR8GrB+b6SRd+OGweMJBEdODjJFF/+qE6vlEi4CYVjnBySeoOfUf2+Cw5bP26XfhTOzDm5ZKlRjV2I8yLg5JYBuLGbFK8DLLJnRmO+yNGewEAbslGN/b0UkkckfURrLkF810J+FF4qdIw2V0ovCGdmHNyyVKjGrsR5kXBySwDcWMAb2CAJ/eiRnZGdholbJrytzOdrW1I8Ybd8FVp3Sa72QuFD4lN4iv8vuyLYxANbYxnTI0uPMaaxcyQ2yj6V82MMRJsYIDTo0Zsu1jwU6ZHYbM6M0uHty+u/lX+X3ZFsYgGtsYzpkaXHmNNYuZIbZR9K+bGGIk2MEBp0aM2Xax4KdMjsNmdGaXD25fXfyhtc2RK8YqfOMVA/N+3OPXAQsji93fyG0qP7fBYctn7dJB3yvpP5bPk5A10joT8KLxUXzHSi8J8l3wVVDcGr9kLhQ+IxjRsgua23jWYo45H3gGTDnxqx4nyDBKabj1aPBI0R8d7Ykh3pHCTL1II37GBaWNUnaWNXfxgua23jWYo45H3gGTDnxqx4nyDBKabj1aPBI0R8d7Ykh3pHCTL1II37GBaWNUnaWNXfxUrxiicGz/vn7MDJmFhZf2nDEMLMNw6bDyXOW/+sGVotufiPmPFc/Ga+NIFFjaTsf8AJiSbGc3FR/b4LDls/bpAifdSbSBbSBbSBbSBbSBbSBbSBbSBbSBbSBbSBbSBbSBMqwDLkrMF6E/Ci8VemPXoyojjZtgltgltgltgltgltgltgltgltgltgltgltgltYM590LhQ+JGO2VHNDjyHbZCW2QltkJbZCW2QltkJZqYGXbZCW2QltkJbZCRKiAVm1wUMTAsNDjyHbZCW2QltkJbZCW2QltkJZqYGXbZCW2QltkJbZCRKiAVm1wUMTAsjHcU0rxirI+DVhgn1X32iMKxO/77RffaL77RffaL77RffaL77RffaL77RffaL77RRQFE6o/t8Fhy2ft/hL5roT8KLxU6RhsrpBZZTYWislorJaKyWislorJaKyWislorJaKyWislorJaKyUrFhCGq07pNd7IXCh8Sm8QyNrbPZBLZBLZBKZWsjDFSSxldJg4rZQBRF9rByTB+yRsglsglsglsglXeunZG1tnsglsglsglmmFjGK2WUAwRC4cyNhYCPEmNBFIfsglsglsglsglXeunhtc2RK8YqfOMVBWlkWO0FW0FTqp7GsBPc1uGOkBGI5A9qQmCa4Tgsa7GAuPtBVtBVtBUOQaNLqP7fBYctn7dHTTZ+mtsOtsOtsOtsOtsOtsOtsOtsOtsOtsOtsOtsOtsOiikQ5WQNdI6E/Ci8VF8x0ovCJ9oEcQ08YS6yPmRFtIsx28MwnTIzJGtjd18ljCCmRzFBMjyul3wVVDcGr9kLhQ+IxjRsr/L9ZkfMge2mkz3V5M0tlTHnPJAmuWa44yeyu/lX+X65x92DRrcMfbZQ8Yr5kdsmneZtZB0rvZXfyUrxiicEfm+hxYOEZrBgiRXkljDJeoY5E6C6lKWPiDIFPdEnGldTYzm4qP7fBYctn7dCDeH6QRLXtwj2WAkxYx8yIdyCXncJBMFs4wHktYgjYtw4K+3iDRLP7JLLOMQ8aaGWrPk5KzBehPwovFXpj16UXhEyM51lppDq/0IOxjxnsBln2v0z+/oyEh4EeSL7cnq60f3yVd8H3QuFD4kY7ZUev8v01s4hcWoNMS2iDRbSKFpbWILJrZgD7lG1DLSMQojMNnpXfyr/L9NbOIXFqDTEtog0W0ihaW1iCya2YA+5RtQy0jEKIzDZ6V38ox3FNK8YqyPg1YPzfWwsRVwm2kfEbVR8rMqJFYOXHM3viy72A59R/b4LDls/bpd+FQ4ZNzbWydBppDbEUE7QgzMggKCWPLq8+IsmJIeU4pIjbadpoFa4BKsL48Gz5JfNdCfhReKnSMNldKLwnyXfBVad0mu9kLhQ+JTeIFMFBtd9grfYKK+HIySwjuQ7mPBkxrIdY4kwYWZshskNsxdvcY7KuFbwwRt9grfYKrM/dHFMFBtd9grfYKK+HIySwjuQ7mPBkxrIdY4kwYWZshskNsxdvcY7KuFbwwRt9grfYKrM/dHhtc2RK8YqfOMVA/N9Z7cCm/wDMN+mklqH6iKwESQRPAaPmueYkTr38htKj+3wWHLZ+3SQd8r6T+Wz5OQNdI6E/Ci8VF8x0ZURxs2wS2wS2wS2wS2wS2wS2wS2wS2wS2wS2wS2wS2sGcqqG4NX7IXCh8RjGjZ6r1wvXC9cL1wvRn3+uF64XrheuE9gy49cL1wvXHT1XrheuF64XrhejPv8AXC9cL1wvXCewZceuF64XrjrK8YonBkQo0tbNWrZq1bNWrZq1bNWrZq1bNWrZq1bNWrZq1bNWrZq1bNWo0QUY1R/ZSJDYwzysAIK0IU+LUmT5ts+rH4IxWHLZ+3Ssj+lPslYtkrFslYtkrFslYtkrFslYtkrFslYtkrFslYtkrFslYg1cGOTJWYL0J+FF4q9MevSCyymwtFZLRWS0VktFZLRWS0VktFZLRWS0VktFZLRWS0VkpWLCEP3QuFD4kY7ZUcEKNMttkrFslYtkrFslYpVZXQ5baeIMbgwwiNXAzKBUVhg7JWLZKxbJWLZKxVbGjjghRpltslYtkrFslYrqnq2RgQacBmgAUYq+FVoYovbk0rWO2SsWyVi2SsWyViq2NHHjHcU0rxirI+DVhWlkWO0FW0FW0FW0FW0FW0FW0FW0FW0FW0FW0FW0FW0FUPuNNUf2VuLJ4bq5sewAx2J7WO3QFaUzWtwxqsOWz9ulqZ8es2w62w62w62w62w62w62w62w62w62w62w62w62w6KKRDlF810J+FF4qdIw2V0ovCKTZPjGZYxskbMjvMOyjPjis/vI2ZGfIHNjFJqWZMKdFkMjyQS2K74KrTuk13shcKHxKbxFf5f2S4Q5uHQhum7X6NZWAFgQ8BF7K7+Vf5fqcDTo1cE0kdZ9jSVQSLbcOFtuct9ld/KG1zZErxip84xUD83ImEafNq0AXW0ZjC2sQOXWIWEJOAJzrOMxgJQpIGWsQjBWkYrB2sUjBW0UuRnYV3fyG0qP7SJA4ogWUeQX2FKwA1Yctn7dJB3yvpNS5k6OdtuBr2WcYhg24CR2zZf3ZsozZDbaK44buO8ebONg4rTuEZbRH4jyGSWWfJyBrpHQn4UXiovmOlF4RTWOceXqDFC0g59VGPCBFH9kqvjOw/sljU54EjI5zsTotWzHdV3wVVDcGr9kLhQ+IxjRsr/L9Czmap95mNHZcElJtqSSt8+8x50rEvdH+o7UrsxpGZGOld/Kv8v0LOZqn3mY0dlwSUm2pJK3z7zHnSsS90f6jtSuzGkZkY6V38lK8YonBH5szDRppmy5dcdp402Pg8CUSnPgUinf6vFOaGojmiQcinZe8UiNnJpbpUWqISRWRCxXmxnNxUf2ufu0BcymWFcP1eBsLJRSsSMV4gOTGxiQRfZ27Dls/ZYzh2CDeH6QUsLymlxJ0kwYskc+FTnBDZJnOWYsnA8Qj6cEWRiTmLJwN9VIM3byEjix9o7Pk5KzBehPwovFXpj16UXhPku+D7oXCh8SMdsqO0podjux1ux1krnj71ixEl2WsxmVHUhsk0fLpGCYdKxkskwq6NYGjg3Y63Y6r2PYBpTQ7HdjrdjrJXPH3rFiJLstZjMqOpDZJo+XSMEw6VjJZJhV0awNHBux1ux1XsewEY7imleMVZHwasH5vr22/f8IOfWNPmY1snufZM07mye46IYkv7Jmnc2T3Gtk9z7Jmnn4LrRtkd37JfYooNw2dd+F+Wz5M0rg22vkLXyE+cfK18lRpknT/UttPhMqLWXMz0ZURxs2wS2wS2wS2wS2wS2wS2wS2wS2wS2wS2wS2wS2sGcqDYTjwtVNWqmrVTVqpqiSpukoLq1yam8QaeCOTdIq3SKt0irdIq3SKt0irdIq3SKt0irdIq3SKt0irdIqAcckZp4I5N0irdIq3SKt0irdIq3SKt0irdIq3SKt0irdIq3SKt0ioBxyRw2ubIleMVPnGKiRCjS1s1atmrVs1atmrVs1atmrVs1atmrVs1atmrVs1atmrVs1avQVe6o/t8Fhy2ft0gP19VslYtkrFslYtkrFslYtkrFslYtkrFslYtkrFslYtkrFslYg1cGOTIGukdCfhReK4I3kL5j/DVDcGr9kLhQGNHCYxo2V/l/Zcw48mAUbIbdbOJDzNfm09td/Kv8v1vG/fWtjaOVIJOzVzZ8lh8ZkRWxMPJYeyu/kpXjFE4JIoJlvsVWtiq1sVWtiq1sVWtiq1sVWtiq1sVWtiq1sVWtiq1sVWtOwFnUf2+Cw5bP26EG8P0hsVWtiq1sVWtiq1sVWtiq1sVWtiq1sVWtiq1sVWtiq1sVWpVdDhzMlZgvQn4UXir0x69Kamri1GxVa2KrWxVa2KrWxVa2KrWxVa2KrWxVa2KrWxVa2KrVpVQIsb3QuFD4kY7ZUev8v7CjaYZ66PIdmnh/Y+vjEbj/wAe2u/lX+X6yI45QhVkcOXxRPCSnhlftUXv4r47Xeyu/lGO4ppXjFWR8GrB+bkvMaZnM6IBljKI3dSlcS7wxr/qGMnTz6ersMWUZln94cXX3OBOnEeC6NIfAkHlRwc+o/t8Fhy2ft0u/CzjkEzOogHZafcIdoUmG3ro8Idg+zz3ZFeN9sYODWUzI82pMKRZSGs33TiFcZlKz5JfNdCfhReKnSMNldKLwk45BMzqIB2Wn3CHaFJht66PCNZvkx2XjAwh3moE2yzloLM5my/qFkQo34KO74KrTuk13shcKHxKbxFf5foc8Rsh9jKjDHOnS3hsZU/Jbs2MmPIfOxYSc4HYSs4hmfIb0rv5V/l+hzxGyH2MqMMc6dLeGxlT8luzYyY8h87FhJzgdhKziGZ8hvSu/lDa5siV4xU+cYqB+blRCEKKIXA315Gp0GQCY6jxkcqs1Ly07nKBEdDaavnRRR6bAMHrO+KLWkEWMHTx+/kNpUf2+Cw5bP26SDvlfScqNiUPFbPdNHUFa8NWQeWVZwsJBM5ZrjFZtZCOLWufnNZ6hdVkNhtUUKZDfqLPk5A10joT8KLxUXzHSi8JKjYlDxWz3TR1BWvDVkHllWcLHxZXpmrItEYjtt//AFGVRoy0EkZcf+MXfBVUNwav2QuFD4jGNGzLJQZmotFqLRYZO+3RWTRki2zpLoU/GCQrFzHRJ/3aOf3SisWQgvsgC1FotRaKEF8cOWSgzNRaLUWiwyd9uismjJFtnSXQp+MEhWLmOiT/ALtHP7pRWLIQX2QBai0WotFCC+OFSvGKJwSnbEtN8iLfIi3yIt8iLfIi3yIt8iLfIi3yIt8iLfIi3yIt8iL7tRY1H9vgsOWz9umY5W/Sm9RlvUZb1GW9RlvUZb1GW9RlvUZb1GW9RlvUZb1GW9RlImsmy8lZgvQn4UXir0x69Kq0DFq97ire4q3uKt7ire4q3uKt7ire4q3uKt7ire4q3uKrGxFMB7oXCh8TUzEAxyPWpmIBjketTMQDHI9amYgGOR61MxAMcj1qZiAY5HrUzEAxyPWpmIBjkf326nUzEAxyPWpmIBjketTMUV534leMVZHwasPKcI3flrvy135a78td+Wu/LXflrvy135a78td+Wu/LXflqNJ1Cr3vbdOdIwdrpSc6bp3ZkahuZSdrdO7v6huqVhqvXHf1LdUnazsHMyMHdgLdgLdgLdgLdgLdgLdgLdgLdgLdgLdgLdgLdgJloAhS+a6E/Ci8VOkYbK6Mt45GbmJbmJbmJbmJbmJbmJbmJbmJbmJbmJbmJbmJboDGVWndJrvZC4UPif5/+3+CV4xU+cYqB+b6FI0IxlsnsxZu1QrVhXiuRmaO1HmPmzH3d09D9e/kNpUYxqFbleGGSWaROiwB4sG149zy8b0L7+0rDls/bpIO+V9J/LZ8nIGukdCfhReKi+Y6UXhPku+Cqobg1fshcKHxP8/8A2/wSvGKJwR+b6FG0w2Cs2DfEySSyHKUCLKmwH/TrDB2srJmzSMyupsZzcVH9lIjtkjJHaUzANYbAG4kgA2O3pYctn7dCDeH6QsBhfahklDBkR5E4IJMhqCSdLJJ78YuKyDEfHkye3HkS3Ygd/AhypPbDJdDY6TYx48wbhlyVmC9CfhReKvTHr0ovCWAwvtQyShgyI8icEEmQ1BJOlkeAuoC3FbKiyrF2BSzRRvmyQumvlwBVjpTmXfB90LhQ+J/n/wC3+CV4xVkfBqwfm+kiyjRSHt4sYpLCMFubaPiRuEftjt4hWst4hGlnAC/qDn1H9ty/4Zf1AyIXePvmvtisdm0f9zbYriRbfUlg/UApsmw5bP26XfhcBZg2auLlo4EcWH1UV7SVUUjGwY7HhqYoCDrIwjtgga0NeCPnFbGbIbXRmJlTFYyz5JfNdCfhReKnSMNldKLwmAswbNXFy0cCOLD6qK9pKqKRm2xUCuBHeOqiiyavjSIhIYDZxUxcDjRBRG3fBVad0mu9kLhQ+J/n/wC3+CV4xU+cYqB+b6HFJEbNcdoJdXIkP7L9xjxCZyGHMHjbZRWzKcjc1YzDx07+Q2lR/Z1W18LQSmFnVhJ2RwJEgmat/wB2Kz0E6pceVEiSY6sOWz9umO7a/Tups1qbNamzWps1qbNamzWps1qbNamzWps1qbNamzWps09s6VJyBrpHQn4UXiovmOkF9lCha2yWtslrbJa2yWtslrbJa2yWtslrbJa2yWtslrbJSs2E0aqhuDV+yFwofEWbWLhwbAByJ9nHG8NgA5E+zjjeGwAcifZxxvDYAORPs443hsAHJ8H/AG/wSvGKJwTgPqvvtF99ovvtF99ovvtF99oh4sAt++0X32i++0X32i++0X32ifHMOXUf2+Cw5bP26Q37bQ62StbJWtkrWyVrZK1sla2StbJWtkrWyVrZK1sla2SsWD8GyVmC9CfhReKvTHqpJ2xY2plLUylqZS1MpamUtTKWplLUylqZS1MpamUtTKWplLXEab3QuFD4iig0w/8AL/2/wSvGKsj4NWFaWRY7QVbQVOqnsawE9zW4Y6QEYjkD2pCYJrhOCxrsYC4+0FW0FW0FUPuNNUf2+Cw5bP26XfhZM6LDQ5QDM7jfve9o2uIxjGka9R50WXlZzhuGuw/CGcRelnyS+a6E/Ci8VOkYbKV14ZSLGHDc04nrBG5e8jRYeRo8OkhYIEkMofRpGv62391WndJrvZC4UPiL8qaFkiTsVetir1sVetir1sVetir1sVetir1sVetir1b08IFTbuyyq+D/ALf4JXjFT5xioH5vocWDhGawYIkV5JYwyXqGOROgupSlj4gyBT3RJxpXXv5DaVH9vgsOWz9ukg75X0nOad1l9sjBJDpEae/JWKTl0IJgsYyY6Ox7X5ENg3NHHHn7wOy1gjFDHfiVGDOFgJcga6R0J+FF4qL5hXXhkVkp1vFbIy57jAkuc/sSHPilBGY0Bzy46fiVGDIe6FIw58ibIwcsqBkmYdt/dVQ3Bq/ZC4UPiKq4puerQjhQZsGJAGWadoMypORjeSLFa+VMR5hQmrS2Dzq98JPBmVB+D/t/gleMUTgj830ccTU6QJucSxOMGwhy3R7GuetQLCDZQ5DXyQjzgjMk6GxnNxUf2+Cw5bP26EG8P0hJgxZiHFAFjhDfkddDC1kGKJuI4mkjwYsTLIcYT+wLCFGCBDhxxF0oMYFBigHZ8nJWYL0J+FF4q9MequvDKRXQ5jmgExEjBLhsCKNo4UYIswozmihRgBFBigG4THvLDjnYSuiGDjGG4tv7+6FwofEUUGmGbnpzcPw76fguKSpiFNmtjOkPq4xFs0L7B18cWI1ZGiPV74T4f+4+CV4xVkfBqwfm+lkTIzSsPnkcV0NBmCHJxGNiCKHIT2GJHxHeCRTBLFZ0Bz6j+3wWHLZ+3SdG1kL0tF6Wi9LRelovS0XpaL0tF6Wi9LRelovS0XpaL0tFmLNNIL5roT8KLxU6RhspTY+rh+tovW0XraL1tF62i9bRetovW0XraL1tF62i9bRetonAmnOq07pNd7IXCh8RflG5/WPHzZsnnNGK+6PmS6xl4fU5O4fS98Jbuyyq+DHl/gleMVPnGKgfm/Y5jSYyxrne/v5DaVH9vgsOWz9uh6yFKeKpgAIj1kKU8VTAARHrIUp4qmAAiPWQpTxVMABEeshSniqYACLTiwboT8KLxVKimJIHh+GGwVzO1ZIeH4YbBXM7Vkh4fhhsFcztWSHh+GGwVzO1ZJ5yR3GwVzO1ZIeH4YbBXMhx9JE9kLhQ+Iqrim5/UlZ9zyVMd7dtxg7q0Thx4uI2el74SeDMqD8GPL/BK8YonBH5vrM7Omc2NpAEyJtbDkCZF0vadh/q30y3qbGc3FR/b4LDls/b/IT8KLxfmn8r4YXCh8RRQaYciMKU3aoi2qItqiLaoi2qItqiLaoi2qItqiLaoidUQ3Y+HHl/gleMVZHwasnNYN+5BQ2nMw/djM3IKG05mH7sZm5BQ2nMw/djM3IKG05mH7sZm5BUEbWsqP7fBYctn7f5CfhReL80/lfDC4UPiL8qaFkiTsVetir1sVetir1sVetir1sVetir1sVetir1b08IFTbuyyq+DHl/gleMVN4f56j+3wWHLZ+3+Qn4UXi/NP5XwwuFD4iquKbn9cQ+3CPJk5aabKZjEmeENeJ4rHpe+EngzKg/A3y/wSvGKm8P89R/b4LDls/b/IT8KLxfmsBmy7VTFqpi1UxaqYtVMWqmLVTVqpq1U1RJU3ESLJl6Vl1ahuoQcgjm5/VtPFY4lbGMd0EDhsrIzBRYIIeel74T4W+X+CV4xU3h/nqP7fBYctn7f5CfhReL/ohcKHxGCYJflG5/WPHzZsnnNGK+6PmS6xl4fU5O4fS98Jbuyyq+Bvl/gleMVN4f56j+3wWHLZ+3+Qn4UXi/6IXCh8RVXFNz+pKz7nkqY727bjB3VonDjxcRs9L3wk8GZUH3/hCv4DrD4JXjFTeH+eo/t8Fhy2ft/kJ+FF4v+iFwofEUUGmHLFHKzT1a09WtPVrT1a09WtPVrT1a09WtPVrT1adFqnY95TDjj3muQYlWL6g3muW81y3muW81y3muW81yBPiSnqV4xU3h/nqP7fBYctn7f5CfhReL/ohcKHxF+VJY0kzQxVoYqOGvijDHgSB6GKtDFWhirAa9wtDEytDFV3Djsprd2WVXusf5fBYeXUrxipvD/PUf2+Cw5bP2/wAhPwovF/0QuFD4iquKbn9H/bvVg/A3zSmgkfiXHCYpIbfvzHjB/ir3wk8GZUH3WP8ALXzXrN5HaYs97itsMMBm1itDm4Dl7LOM85LWMwBZGJc5SvGKm8P89R/b4LDls/b/ACE/Ci8X/RC4UPiKKDTDNz+h44ZQz14iQRwowRCgxQD04skIARljHp0vfCe6VKFCBKOORFCSXGTI8quJHiyarJGzCpkOQ+Q2IcZoNa4D40KSw2fvxLUrxipvD/PUf2+Cw5bP2/yE/Ci8X/RC4UPiL8o3P6xYMaxHPfhj9XYHkPky8OpxuYPpe+Et3ZZVdbH1eTbGKyqXEgwfprZh/BYeXUrxipvD/PUf2+Cw5bP2/wAhPwovF+clrAC/eq1b1Wreq1b1Wreq1b1Wreq1b1WqJd1jYsW3r2xWfV0Rs2odh0SS9o5muirXRVroqMGrkEJisKniq3nzt2WhLBj510Va6KruZHfTTwZlQes7ldJUfUi7MtdmWuzLXZlqHmbJF2Za7MtdmWmRX4kKV4xU3h/nqP7fBYctn7f5CfhReL89Z+PghcKHxGfT8PWxY+mG8bC40cZaOMtHGWjjLRxlo4y0cZaOMtHGWjjLRxvbO5XvquL7ZXjFTeH+eo/t8Fhy2ft/kJ+FF4vz1n4+CFwofERWvcPsT0Jr2jK17h9iehNe0ZWvcPsT0Jr2jK17h9iehNe0ZWvcM0OcYXWdyvfVcX2yvGKm8P8APUf2+Cw5bP2/yE/Ci8X56z8fBC4UPif4p3K99VxfbK8YOpqZLKGKANYs09c7IIMWJlZp652QQYsTKzT1zsggxYmVmnrnZBBixMrNPXOyCDFiZqP7UuPSH77Dls/b/IT8KLxfnrPx8ELhQ+J/incr31XF9srxlF4Sm8OVpZFjtBVtBU6qexrAT3NbhjpARiOQPakJgmuE4LGuxgLj7QVbQVbQVQ+401R/aJGxFF77Dls/b/IT8KLxfnrPx8ELhQ+J/incr3WUx0CH9O3TbB/tleMjAZFj03hx+b6HFg4RmsGCJFeSWMMl6hjkToLqUpY+IMgU90ScaV1Bz6j+2HYd0yZjSlnhDkdxGMwVxFMg20YxFYctn7f5CfhReL89Z+PghcKHxP8AFO5XuzjDsVNSGnB7ZXjBFYcVN4cfm13xZw2dFfIbZwnHbOivkYMJ+M2dbExiSFw2WEQh2TopD4kCzhj2kagc+o/tTcRTgvNZVwnhsangY8SGHLL0sOWz9kSPiXbYqQYypEIcrOKkGMqRCHKzipBjKkQhys4qQYypEIcrOKkGMqRCHKyysYE3Qn4UXi+wlfqJTasDXKRCHJc2rA1ykQhyXNqwNcpEIclzasDXDCwKkQhyXNqwNcYzI4/bC4UPif4p3K6nnBjPAdkhhCtF0zaxmu9srxlF4Sm8OPzaFCkYw3vklxhkzEG05pkWVgGIgyaQgXbuFhNUDUFmRYMgeKJ0geEDn1H9okbEUUmbGh4jyQS2ezL2tdYctn7LAmYLOKdj9NZrTWa01mtNZrTWa01mtNZrTWa01mtNZrTWa01mtNZqMSTidnOMdSfhReL/AIrjge2FwofEO07sdqxWPX0O07sdqxWPX0O07sdqxWPX0O07sdqxWPX0O07sdqxWPX0cfLZvSdyusiWCJZSTCcMA43bIQLpzyDyC4cMuSuEOxAz7pnSV4yMBkWPTeHkQo0tbNWrZq1bNWrZq1bNWrZq1bNWptFWNds1atmrVs1atmrVs1agRgxW1H9sOw5T3HbYOkyO3lsoDMvzHkS5R8k7ExoY2GyJFhy2fssHa6RN5qnzx14jSgRhFnxQMPP7RG2MbTPmxhCzaRe/myh4YSeEa3KLhuZQGmWPNz+X0J+FF4vsBnO6fKYLDj9sLhQ+I4+WzfmJjO7dJ3K+WV4wRWHFTeHK0six2gq2gqdVPY1gJ7mtwx0gIxHIHtSEwTXCcFjXYwFx9oKtoKtoKofcaao/tVZkfZhsnL3gkPEyF2VHq3CdpCNg5gY+1sR32z8y/uxmT3/qss4a+n3WD5c3mqUCVMsI/fiZwRoJQibfIMUjixY78yog3gJHG6JGbHLlzYpRqADIpqx5s0fBidCfhReL7Bx3MmyJ0WJneq1b1Wreq1b1Wreq1b1Wreq1b1Wreq1b1Wreq1CtYBnmMyOP2wuFD4hMZ3Zk0hl35K78ld+Su/JXfkrvyV35K78ld+Su/JXfkrvyUecaMHrO5XUphgY2SaSsQbEi2k+VtBVmtmtTtwAgTAyHdJXjKLwlN4cfm+hxYOEZrBgiRXkljDJeoY5E6C6lKWPiDIFPdEnGldQc+o/tEjYii99hy2fssCZgs3mfLjzec4x1J+FF4vtF5v47j9bjge2FwofEVFwPkvfCOPls3pO5XSSfEYEKr9He6XBBOaDJQHUrxkYDIsem8OPzfR02MwpJkcRjWcQL3zIzChtK31FLjncKxhnaWSMLRye6/oDn1H9sOw74LDls/ZYO10iVEHMxtIFtIFtIFtIFtIFtIFtIFtIFtIFtIFtIFtIFtIFGghivtS4Abd463eOn2wMreY6j2gGx92At2At2Arb6qdWTaqc2wlC82r2axjmWb5osyJxDT8HaZ1s8Yxz5kp5bUhYTJMuSXejOkK4/WSwbwbsBbsBbsBbsBbsBRbaOyLP8AqB9bDrL0dqSi4F3LGAca1ceA885pJj//ALBWWY8RlnMIzcZP3ns5QRTZxix9TOfncpcjEaVmUa98JMNiPZ7qBbqBEktly+ly57IUWSOYD3mmYk36leMEVhxU3hx+b6SMteU0UmDnCTMIOcRiyGOwRv8AzgIw58y5LZZYI3MkdAc+o/tTcT32HLZ+yF5qcU7H6azWms1prNaazWms1prNaazWms1prNaazWms1prNaazUYknE40fBidCfhReL1LVRJEwcdzJovNocZo5GalidWJ1X/wC7qofoOE0Rm04Gp9ZjJNsw0yuP1MZkcfthcLbY0+O9n22lFwNM3VEqxEfmr9WhhtCTNQH0lVhXY2pnbxWfaPZwfa+q+5MiDh5q4eih3vhPdY/yNXZwXXSo6ZcwHZYYZFnOGotnCAt2YRaWZNUoLI9mpXjKLwlN4eRCjS1s1atmrVikrcZ2atWzVq2atWaWtzjFLW4xs1as0lbnOzVq2atWzVqBGDFbUf2iRsRRe+w5bP2WBMwWbzFrxa7UCxje4ecOsY2njzu8Uc6KXBLaGwDJ8UidZReziwCtfF7DXYe3Hm85xjqT8KLxfaVxY9juxVuxVuxVuxVuxVuxVuxVuxVuxVuxVuxVKkHmuuOB7YXCh8RVVrBixd9rFvtYt9rFvtYt9rFvtYt9rFvtYt9rFvtYt9rFvtYrm5ry1Dj5bN9tj/Lo9jSYfUV5FikrMIUUAOth5dSvGRgMix6bw5WlkWO0FW0FTqp7GsBPc1uGOkBGI5A9qQmCa4Tgsa7GAuPtBVtBVtBVD7jTVH9rj6qr6ZVVsyfE3KHp3TYzCNmxnk3GHp3TYzCNmxnknWERztZHaVsyO8mLiC5S84dLdn7W6OxxHP3PQgnPI4BRyzSSWIJOMywy4pM5wEklScZlhlRZHeFG+4ix5ufy+hPwovF9gM53T5TBYcfthcKHxHHy2b8xMZ3b22P8vgsPLqV4wRWHFTeHH5vocWDhGawYIkV5JYwyXqGOROgupSlj4gyBT3RJxpXUHPqP7BpoVtBr4e3w2yPWW+fIy0UqwLHHZy8wRS5OJCsOWz9kLzU3m/LjzZo+DE6E/Ci8X2DjuZN+UxmRx+2FwofEJjO7f5LH+XwWHl1K8ZReEpvDj830FYwztxb1+RYtIOQkmxhDG8LcPnxRMLOigNk4sYdNw1+OgOfUf2iRsRRI1WGXYw4GljxWZHFdCK+lj1oIxFYctn7LAmYLKiDmY2kC2kC2kC2kC2kC2kC2kC2kC2kC2kC2kC2kC2kCjQQxX5zjHUn4UXi/4rjge2FwofERB4KzagIIWx2EHgrNqAghbHYQeCs2oCCFsdhB4KzagIIWx2EHgrNqAghbHZ7bBjyRosoUwHvIbEy1UrxkYDIsem8OPzanfdo/sOd8Br3mw10bDHNiTBxJPewLAKee2S4U43ZExjyyegOfUf2lTGxggsO4cM2NIeKfFOwMuPIaOfFMJlhEIDWxtPLKM52fsj4M5nas0LD8DPgzmdqzQsPwM+DOZ2rNCw/Az4M5nas0LD8DPgzmdqzQsPwM+DOZo5ZJHQn4UXi+wkWVqo7JTcrIrH1jslNysisfWOyU3KyKx9Y7JTcrIrH1jslNyYLDj9sLhQ+J/mdFcMrbYwUy6ryZYYZFnOGotnCAnXYXJ+tnIQmBGpXjBFYcVN4eRCjS1s1atmrVs1atmrVs1as0lb92zVq2atWzVqzS1ucYpa3GNmrVs1agRgxW1H9miearLElskw4+Covc0MoTp5Jjcz3Swf8A0ZZLIMYsDKz9v8hPwovF/wBELhQ+J/oc1r8Oq4L1ior8IccIfbK8ZReErZeI9duQluQluQluQluQluQluQluQluQluQluQluQluQluQluQlS5y7MSNiKLoYLJAvZYcvBGNd3xLviXfEu+Jd8S74l3xLviXfEu+Jd8S74l3xLviXfEu+Jd8S74l3xLviTysd0jSQtjaoC1QFqgLVAWqAtUBaoC1QFqgLVAWqAtUBaoC1QFqgLVAWqAtUBaoC1QFqgLVAWqAtUBQuFGfkcfvLvLvLvLvLvLvLvLvLvLvLvLvLvLvLvLvLvLvLvLvLvLvLvLvLvLvLvLvLvLvLvKT67XGAyLHv/AK02OfV/X25T1f8A1psc+r+vtynq/wDrTY59X9fblPV/9abHPq/r7cp6v/rTY59X9fblPV/9abHPq/r7cp/wT4hZOe1aLtWi7Vou1aLtWi7Vou1aLtWi7Vou1aLtWi7Vou1aLtWi7Vou1aLtWi7Vou1aLtWi7Vou1aLtWi7Vou1aLtWi7Vou1aLtWi7Vou1aLtWi7Vou1aLtWi7Vou1aLtWi7Vou1aLtWi7Vou1aLtWi7Vou1aLtWi7Vou1aLtWi7Vou1aLtWi7Vou1aLtWi7Vou1aLtWi7Vou1aLtWi7Vou1aLtWi7Vou1aLtWi7Vou1aLtWi7Vou1aLtWi7Vou1aLtWi7Vou1aLtWi7Vou1aKRBsJQv//EACsRAAIBAgYBBAMBAQADAAAAAAABAgMSEBETIDFRMyEwMlIEQWEUIiNAUP/aAAgBAwEBPwGvwjNmbM2ZszZmzNlBu7bBJlsS2JbEtiWxLYlsS2JbEtiTSRcy5lzLpFzLmXSLmXMuZcy5kW2x0KaZowNGBowNGmaNM0aZowNGBo0zRgaMDRgaMDRgaMCpSjGOaPyOFimXDeeND5bYY5GWGWPGExbMzPfDkly9jLTIyLWZNGTEsttXxs/I4WGWOWND5bYYXJF6L0XovRei9GeeExYJZlrLWWstZay1jWWMOSXyHVjH0ZrRNaJrRNWJrRNaI5JK41omtE1omtE1omtEjNTeSKvjZX/RSinDgsj0WR6LI9FkeiyPRZHoh5WtsMJ74cYTFhDfPGHJL5FT5vfPxb6HyKnjZX4RR+C3x8r2wwazLGWMsZYyxljIrLCYsIvIvRei9F6L0Xok88YckvkyVFyeZoPs0H2aD7NB9mg+zQfZKGcLTQfZoPs0H2aD7NB9mg+ynTseZV8bPyOEQVS30ZbW7La3ZbW7La3ZbW7La3ZTz1Hnthg5ZF6L0XovRei9GeeExYRWZai1FqLUWotRLGHJL5FRu9lz7Ln2XPsufZc+y59k3/4i59lz7Ln2XPsufZc+yi25FTxsr/oo/Bb4+V7YYT3w4wmLCG+eMOSXyKi/7ZkzJmTMmZMyZPxGTMmZMyZkzJlH5FTxsr8IhWUY5H+hdH+hdH+hdH+hdH+hdH+hdFN3Tz2wwccywsLCwsLBLLCYsFn+jKRlIykZSMpGUh5/vGHJL5MlWteWRr/w1/4a/wDDX/hr/wANf+DnlG41/wCGv/DX/hr/AMNf+Gv/AAhUveRV8bPyOEUopw4LI9FkeiyPRZHosj0WR6ILKq9sMJMzZmzNmbM2ZsjxhMWEN88YckvkVPm98/FvofIqeNlf9FH4LfHyvbAzJ748GZMSwi8i9F6L0XovReiTzMsIcl97JU4N+rNKn2aVPs06fZp0+zSp9mlT7HGLjkzSp9mnT7NKn2adPs0qfZpU+yEIxfoVPGyvwiFJyjnmaL+xov7Gi/saL+xov7Gi/sU1bPLbDBvIvLy8vLy8TzwmLBLMsLCwsLCwayxhyS+RU+b3z8W+h8ir42fkcIo/Bb4eV7YYT3x4wmLCG+eMOSXyJ05OTZpT6NOfRpT6NKfRpz6NKfRKLdPI0p9GlPo059GlPo059GlPopQlF+pU8bK/6ISmo+iL6n1L6n1L6n1L6n1L6n1L6n1KbbqPPbDBpFq7LV2WrstXZauy1di9MJiwi8i59Fz6Ln0XPoufRc+iTzxhyS5f/oVfGyvwij8Fvj5XthhLfDjCYsIb54w5Jcv3Fsq+Nn5HCKPwW+Hle2GElmWstZay1lrLWR4wmLCLyLkXIuRci5FyJYw5JcszWOaxzW1bKvjZX/RBVLfRltbstrdltbstrdltbstrdlPPUee2GEnkXsvZey9l7L2ReeExYRSZai1FqLUWotRJZYw5JcsbtWZr/wANf+Gv/DX/AIa/8IVLs9q2VfGyvwij8Fvj5XthhLfDjCYsIb584w5Jcsn43uofvatlXxs/I4RR+C3w8r2wwazLUWotRai1FqMssJiwTyLmXMuZczNlzM88YckuWT+D3UeHtWyr42V/0U6iUcjWga0TWia0DWia0Sm7qj2w9uYvchyS5ZL/AJiasfqasfqasfqasfqasfqQmnnktq2VfGz8jhexQ+W2HtzF7kOSc0mT8b3UP3tWyr42fkcL2KHy2w9uYvchyS5ZP4PdR4e2Lz2VfGz8jhexQ+W2HtzF7kOSXLJf8xNVfU1V9TVX1NVfU1V9SnPPP02VKjg8hVsv0a76Nd9Eazk8ir42fkcL2KHy2w9uYvchyS5ZPxvdQ/eyt8tlP5oq+Nn5HC9ih8tsPbmL3IckpRTJ/B7qPDwfBaidJ5/8mjM0ZmjMhSkpJlXxs/I4XsUPlth7cxe5Dkkk3v4wez941fGz8jhY+mPphQ+W2HtzF7kOSXL9l7P3jV8bPyOEUopw4LI9FkeiyPRZHosj0WR6IeV7Ye3MXuQ5Jcv2Xsad2NXxs/I4RR+C3w8r2wGZpFyLkXIuRci5HOExe5Dkly/ZeDLi4uE8yr42fkcIjTnJZpmjU7NGp2aNTs0anZo1OzRqdlJZTae2BmT53x4wmL3Ick+TUj2akOzUh2akOzUh2akOzUh3g8XVgjXiKtBmeZV8bPyOEUfgt8PK9sMHHNljLGWMsZYyxi9EZkzLDIjxulzjDkc1c0PnfmNrCu3nlspNqRV8bPyOEQrKMcj/AELo/wBC6P8AQuj/AELo/wBC6P8AQuik7qje2GEm0y5lzLmXMuZcxcYTFjF+hmjNGaM0ZolzjDkkv+mPn2q/y2U/mir42fkcIpRThwWR6LI9FkeiyPRZHosj0Q8r2wwlzvjxhMXuQ5J8+3X+Wyn80VfGz8jhFH4LfDyvbDHJGSMkZIyRksZi9yHJLlmWGRlhkZbKtO71Q01zhk2U6TTzZV8bK6bSyLZmVQyqGVQyqGUzKoUVJS9dtM9T1PU9T1PU9T1PU9Sp+hMzMzMzMzMzMzMzMyHI+fdyWNXxv/7H/8QAJhEAAQIEBwEBAQEBAAAAAAAAAAECERITMQMEECAwQVEhMkBSUP/aAAgBAgEBPwHlxnObCBVxPSpielXE9KuJ6VcT0q4npVxPSrielXE9KuJ6YL3OjEVjSRpI0laSNJGkjSRpI0kaSNJGj2oifCZSZSZSZSZSZSZSZSZSZSZSZSZSZSZSZRHLHmzHWn1BHExFSOkRVjpl+xb6wIENYbMSwm2OseBt+bMdaJhudYovKLyi8ovKLyi8Vqsvpl+xb6K5EJ2k7SdpO0naTtEWImmJYSxKpKpKpKpKpKpKpAlUlUlUlUlUlUhAbfmzHWmD9jvxv1pl+xb6Ym/D1xLCWEtvT9b3WE/XNmOtGYiMiV2ldpXaV2ldpXaYjplimmX7Fvo9sxTUpqU1KalNSmoxJdcSwlhHExMTkxMTiL9JiYmJyYnFdES/NmOtG4auKDig4oOKDig4oOHNkX7pl+xb6PVUJnEziZxM4mcTOGLETTEsJYSxAgQIECAn6IECBAgQHWEvzZjrTB+x34360y/Yt9MTfh64lhLCW3p+t7rCfrmzHWjMRGRK6eFdPCunhXTwrp4V08HvnWOmX7Fvo5US5MwmYTMJmEzCZg1UW2uJYSwjYkhISEhISEPsCQkJCQkJBWwEvzZjrTCaixiSN8JG+EjfCRvhI3wkb4YsEdpl+xb6Ym/DE0xLCWEtvT9b3WEvzY/QjYmD9jvxvriBgJccsNHtmKalNSmpTUpqU1GJKRImJYhARVJlJlJlJlJlJlOyZSZSZSZSZSZRVVRP1zZjrRjJo/SivpRX0or6UV9KK+lFfR7ZV0y/Yt9HOlKhUKhUKhUGum1xLCCW3p+t7rCX5sx1pgWXfjfrTL9i30xN+GJpiWEsIqQJkJkJkJkJkJkEX6TITITITITITIOUS/NmOiAx7kshUf8A5Kj/APJUf/kqP/yVH/5Kj/8AI9Vcv3TL9i30ciLclb6St9JW+krfSVvpK30aiJbXEsJ/A2/NmOtMHvfjfrTL9i30xN+HriWE/gbfmzHWmE5GxiVGelRnpUZ6VGelRnpUZ6YrkVfmmX7Fvo9FUlcSuJXEriVxK4YkBNMSwn8Db82Y60w2I+KqUWFFhRYUWFFhRYYjUavzTL9i30e5UJ1J1J1J1J1J1GLFNcSwhckJCQkJBUhwtvzZjrTB734360y/Yt9MTfh21xLCCX3O4W35sx1o16tsVXelV3pVd6VXelV3pVd6K5XX0y/Yt9FRFJGkiEqEjSVCVBEhriWEEvudwtvzZjrjy/Yt+TEsIXJVJVJVJVJVFThbfmzHXHl+xb712RMSwiCX3O4W35sx1x5fsW/JiWEEvudwtvzZjrjy/Yt+TEsIJ9UlJSUlJRU2IkSUkJBWjb82Y648v2LfkxLCCX3O2NtsWw2/NmOuPL9i34IkSJExLCIJfc7YjvSZCZCZBXJAbfmzHXHl+xb8CbMSwn8Db82Y648v2LfgTZiWE/gbfmzHXHl+xb8CbMSwnL1q2/NmOhBGOekSk8pPKTyk8pPKTxYt+aZfsW+yGsNuJYTkgQIaNvzZjol+RMH8b8T96ZfsW+yJEiRI7MSwhBSCkFIKQUgpBdsqkqkq6NvzZjrTDxEa2BXaV2ldpXaV2ldo5Z3fCCmAkIir9IkR/wCtzLESJiWIfONux1ht+bMdCGExqt+lNnhTZ4U2eFNnhTZ4U2eGJ8d80y/Yt9IDkWJBSCkFIKQUZ8TXEsJxttsWw2/Nj9CQMH8b8T96ZfsW/JiWE4222LYbfmzHWkVTsmd6TO9JnekzvSZ3pM70vfTL9i35MSwnG1YbFcNvzZhYQJm+kzfSZvpM30mb6TN9Jm+kzfSZvpM30y6xiKixIKQUgpBSCkFIKQUgpBSCmLb+Ft/+x//EAFgQAAECAwEGEQgGCQMCBgIDAAIBAwAEERIFEBMhMZQUIjIzNDVBUWFydJKTsbPS0yAjMHFzgbLRQEJSkaHBFSRTYoKio8LiQ2PhBmQ2RIOE8PElVHXDxP/aAAgBAQAGPwKJE3ZGWMylwVVVkVVVsxtfKdAPyja+U6AflG18p0A/KNr5ToB+UbXynQD8o2vlOgH5RtfKdAPyja+U6AflG18p0A/KNr5ToB+UbXynQD8o2vlOgH5RtfKdAPyja+U6AflG18p0A/KLpNsALbYzWIRSiJ5pv0NzGphsXWymlqJjVF805ColyZZaf9uEbTy2btxtPLZu3G08tm7cbTy2btxtPLZu3G08tm7cbTy2btxtPLZu3G08tm7cbTy2btxtPLZu3G08tm7cbTy2btxtPLZu3G08tm7cbTy2btxtPLZu3G08tm7cbTy2btxtPLZu3GO5EsmOmxwja2TzcflCENxWaKlU/V2o2kZ6BqNpGegajaRnoGo2kZ6BqNpGegajaRnoGo2kZ6BqNpGegajaRnoGo2kZ6BqNpGegajaRnoGo2kZ6BqNpGegajaRnoGo2kZ6BqNpGegajaRnoGo2kZ6BqNpGegajaRnoGo2kZ6BqNpGegajaRnoGoBwbmydDRFT9XGEUbnS6ov/Y/4xtaxmH+MbWsZh/jG1rGYf4xtaxmH+MbWsZh/jG1rGYf4xtaxmH+MbWsZh/jG1rGYf4xtaxmH+MbWsZh/jG1rGYf4xtaxmH+MbWsZh/jG1rGYf4xtaxmH+MbWsZh/jG1rGYf4xtaxmH+MbWsZh/jG1rGYf4xtaxmH+MbWsZh/jG1rGYf4xtaxmH+MbWsZh/jG1rGYf4xtaxmH+MbWsZh/jG1rGYf4xtaxmH+MbWsZh/jDzsnIyzZtkmmSXQFRapwXrn8mb+FPKRgphpH1yN20tfdFlXBQq0pW+hAqEi5FTyrqcqTsW/Q3J5UvYuQ5xlvq68qoCbwqX4JGDDCCdK2XGSbr6rSeSYiumBaFwRadWiVRPvgkSulWmNL6G0tRXyx449d5niJ1eSTji0AUqqwLY4USLU4Rgwr6qpeUlrRN5K+Tgq6ezapwekl/ZD1Qx7Mer0OCCblydrSwjqVreJEVFVMvBeRtTHCKlUGuNU8okEkVRy8Hpro+1HqC9c/kzfwp5K2cu5A6Ks4Onnq/b3ffWHMGqpV9lPXiWGJkyALZ0Os2S1/dwdKIsSLqvvkT5mDlXSoqY9z3RLoNrU1xkq9flXU5UnYt+huTypexchzjLf82qIWFboqpX66RMvTkw24rcuaAjTShSqcZYlgNZKWk1bVV0SzabVzhxolYllemZSYUW9IE02oIWP/AE13F+9ckEs+7Kyqq2Cy4zLSmY4vqLaTHX3xdRx4UddZaBQcIcaFZypvLF0lJplXDVtTRSsVFUTGSp9WsTonoQ5cXGD821ZaTHjVMdPfD+irOgNE+dtajW0pXgiWbQEckVfPAj9RRsfDWvBBgOIAecEU3ktLigWNFMq/UkwSOpbrVdyJVW0lQwyGLgNVI9TkM91eBUrEyrdrDyjWhxWm7uqnupE4UpNSjgq1phlGbCVrlXTLj/GEBhsWg+yKUvjxx67zPETq8mb9kXVEpoa6f6QVFW03VsrKWculSLmMi55xpDFxB1QLZX8YnW5fQryaGJVel9Lzx+1+MXSfIBV5ogVs90NKOSH9ETMqzMYTzNthSdpuWNN1JFQWXmXidxpjCYDvD9yRYYWWmSK1acbqLo+0Td98As0+2wisLRXDQa6aFT9UOrNoHHfOWsutjv8ACkSyIpFo9gG1XhTL/LWHxmJiVYdQk0PhGFJxBp/p6bqSJ50xQnRdohqmNNInoJf2Q9UMezHq9CeG1ND61h0wV1HGAG2azODESpuImqX1xPuKT9pxxsaNuY1qiZK4kicacXECjpMOr1mvCuOHJ4JV4kbd0riWaYNMS/Wrv7kTJvPuMiyo2LLtlEGla7y++DmXn3AdF5QQcLQctEGzk/OGJgzbbwi6dVmyKvBg6URfVBtuOk244yqg/ojCNF+9j1PVDrDwOtuCiFQn8MPrQlx/fE97VPgSMMyrooMwIWzmbKLpkSygJiX3wsphCqLuFy/U/wDvFDEyZAFs6HWbJa/u4OlEWBdM3DM8to1Xd9FdH2o9QXrn8mb+FPKR9ZdpX0/1LCWvvi0rYqVa1pCviw0jy5XEBLX3wKI2OkWo4skKLIC2KrWgpTH5V1OVJ2Lfobk8qXsXIc4y31TBzeL/ALN3uwqNi8lP2jBt/El5Uwc3i/7N3uwqNi8lP2jBt/El5Uwc3i/7N3uwqNi8lP2jBt/El5Uwc3i/7N3uwqNi8lP2jBt/El5UsTdeCSd7sK21oglTTEbzBN2l94ol7ABhBcopUNkgqietMeW+PHHrvM8ROq8iuI4tf2bRH1JGtzeZO92EXfhFcRxa/s2iPqSNbm8yd7sIu/CK4ji1/ZtEfUka3N5k73YRd+EVxHFr+zaI+pI1ubzJ3uwi78IriOLX9m0R9SQLpJOrZSgjoJyicOohF34RXEcWv7Noj6kjW5vMne7CLv8AlS/sh6oY9mPV6HChKMC7WttGkrGFdl2jcpZtKCKtIK0w2VobJVBMab0eZabbxU0o0xQjYiiAiUsomKGyKXaJW9Qqgml9UI+rLeHT/Usab74J4GGxeLKaAlV98HgZdpvCauyCJa9cKMsy2yK5UAbMYR+UYcc+0TSKsK4ss0rhYlLBpVYceNUIiSyNBpQYV8WG0eXK4gJa++LIIgjvJ6K6PtR6gvXP5M38KfQLqcqTsW/Q3J5UvYuQ5xl+hSfJX/iavjxx67zPETqvNsUxm2Z14qj3voUo87q3WQMvWqeTL+yHqhj2Y9UNPNSOkcFCHzyZFhUflsCNMuEtXtg/1khUflsCNMuEtXtg/wBZIVH5bAjTLhLV7YP9ZIVH5bAjTLhLV7YP9ZIVH5bAjTLhLV7YP9ZIVH5bAjTLhLV7YP8AWSFR+WwI0y4S1e2D/WSFR+WwI0y4S1e2D/WSFR+WwI0y4S1e2D/WSFR+WwI0y4S1e2D/AFkhzDMEwQFZoq1riRap98XR9qPUF65yS7jbZrLt0UwtfV3qpGy5TNS8SEwpCR7qiNEj9XMAPfMLSdaRsuUzUvEhMKQke6ojRI/VzAD3zC0nWkbLlM1LxITCkJHuqI0SP1cwA98wtJ1pGy5TNS8SEwpCR7qiNEj9XMAPfMLSdaRsuUzUvEhMKQke6ojRIlQRK4Z2wvBpCL+2LqcqTsW/Q3J5UvYuQ5xlvpPrZV7QeGyYrVisbMk8zLxI2ZJ5mXiRsyTzMvEjZknmZeJGzJPMy8SNmSeZl4kbMk8zLxI2ZJ5mXiRsyTzMvEjZknmZeJGzJPMy8SNmSeZl4kbMk8zLxIkxmHpd1t91W1sS5AqaQi+2v2YB9dWAECepad1L48ceu8zxE6r0pyZ74mr8vM6KlAwzQuWdCktKpX9pGzZTMy8SNmymZl4kbNlMzLxI2bKZmXiRs2UzMvEjZspmZeJGzZTMy8SNmymZl4kbNlMzLxI2bKZmXiRs2UzMvEjZspmZeJAOuTMs4OFbBRSWIV0xoOW3w3pJt1LJgwAkm8tnyZf2Q9UMezHqgQbFBAUoiJuQ8xLPNMg20B6dq3W0p/vJ9mNnS+aL342dL5ovfjZ0vmi9+LazjJqq2REZTGq8+BCcOUBCyE00TiJ68aUhZ7RMvrduxoZe/Fl66LSKmqUZAyQfWqFRPfDzD08yGDJEtJJGqY0Raqtqg5d2EbWaZKr2C0kmZUxV+1GzpfNF78bOl80Xvxs6XzRe/GzpfNF78Kr6irguuNqopRFsmo/lDzEs80yDbQHp2rdbSn+8n2Y2dL5ovfjZ0vmi9+NnS+aL34J0JuWcKqIgrLqiY1pltQTc45Jh5pXBVpsjTFv1VKQ1M6Kl1t2NLoZcVpU/f4YwR3SZRbSBXQB2bW9atUh1lyeYAwdVvYRqP32qJDUvoplVcU0tDJmqJZXftRs6XzRe/GzpfNF78bOl80Xvxs6XzRe/Cq+oq4LrjaqKURbJqP5Xro+1HqC9/wBOfw9gcS8uEy5LgrLhkraDVVRQT6yL9pY20nOaz3I20nOaz3I20nOaz3IQ9F3USWVcUxYYs/DX8IwI/wDUJq9WmDQ2K19ViHG2rtvm43qxFWFUfXpINGLuPum2lSESYVUTmRb/AEvNCiDaKuAxJzI092pgcaJjwO7k+pGh0u69oj9laYtfdYjbSc5rPcjbSc5rPcjbSc5rPchtpx1yYwE/ZQiRK00NXcRN0oupypOxb9DcnlS9i5DnGW+bbqWTC5tkk3lRuEbbacmHlSuDbpWnvVEgiNt1sgMQNskSoquTg3YZaJFtOqqD7krBtsTLTrgaoAcRVT3Ral3QIkC2TdtLQpwpuQ6GFFCZBDPTItE90AL0rMS4uLRs3EShfctU99IJgH2ifHVNoaWk90KAzTCmI2lFHEqib8NzCTLQtuZFI0hZdH2lfRK4O2lr7oEAEkUhIsfAtIM2JllwQxEouItmLlHLuC6Giy0wLVNZcgWlXTkikicCU+aXx449d5niJ1Xq0x79+5vJWvhSEbbacmHlSuDbpWnvVEgiNt1sgMQNskSoquTg3YZaJFtOqqD7krBtsTLTrgaoAcRVT3Ral3QIkC2TdtLQpwpuQ8OES0yCGaVRaJ7oFl+WflTPUYSzpuaqw423MNGbWrETRVH1woMPtOkmVBNFhRQhog2lK0lEgn25lk2B1TiOIop74RyXcB1tchAVUgeUy/bB5cv7IeqGPZj1Q0+2ioDoIaV4YneTMfE75DZMUwrRoYoWReCGXhl5qUQSq7hZrSklMiAJKnVCj+j5fR2D1WDG1a40TLWDfcBQ8zYeRttMX1sdpfxSJ5gZRVGboiOWhoOkRMeOv3VgjFonESbE0oqVUbFmvkvcqmO2KJ3kzHxO+Q42LWHqo+bxaZK8OKFOUuX+jUwJiWtjhK5E0irEvgJCWGaBW1UhbFFxKlccFabmHVF4SBcOItICEi6lFxrxomZXQy2Hpi3hrQ0Qaou/WsMmTKqOFfrRUxIRVRfJe5VMdsUTYFSjLqAPMEvzi6PtR6gvXHNVpgWgNOHzdn+6JXkr3xNX3WkWlsFGsNsJKPrMiiCoYNUD128lImbCKNqWQRP96qxIthLOtFKguFUm1FE0tKIuRce9FzwlpdxtWGlU1VpUTGC4kXItV3om7Lkyx+pNjgwAdOtlcWMa/dCzCtmbSK0ijY/dpaT1RL2m3hwc3aVluUstimPTWl1XrRfIurykexbi6nKk7Fv0NyeVL2LkOcZb90eSufCsOvGDpNOtiNpptTUVSu4mPdiYBwpt5gnGsEToI2dLWm1KIqRKOS6TD1LdcI+bian95ViTIxfVAAxUUlME21iyJVK/jSJFlqVdZOWaLCWmlH6lKIu7Vd6HGcGaOHKs2aitFUdxVgAYlZi2q6fCNqCB71xL7okpXQ7qTDD1pw1bVB3arayLWLleZIVB41LS5KoUXMq04mBZcArTapRcUMyisOaJCZwhOYNUHVVtWsmT3wQA24BLLOjqf9ytMfBEyQFPzB4GxR+XRvdyUsiq9UXK5UvYuRJ8lf8Aiavjxx67zPETqvNsUxm2Z14qj3r9zeStfCkOvGDpNOtiNpptTUVSu4mPdiYBwpt5gnGsEToI2dLWm1KIqRKOS6TD1LdcI+bian95ViTIxfVAAxUUlME21iyJVK/jSJFlqVdZOWaLCWmlH6lKIu7Vd6HW3JQ37cm0mDUaIVEWo1yVhRuW7Pi2QqjgTSHZDFisqaVy7yw2JHPm6w0o4M2BEBxUy2Ur7lWLnzEswZvy4IOCEcdFSi/jSABsCNAlgtYtVQ6knrWAelW5plG3RJw0l6GSY8gkmOnq9UPOIc05hDramG0BV91E6oHlMv2wXpR53VusgZetU8mX9kPVDHsx6oufyZv4Uid5Mx8TsOKklNEyBKJOpYpiy4rVr8IbJ+aZaRzUW3EG1ByiOjhgC2qWkyQpSj7T4piVWzQoNlmSmJlQRLStqFMfGJI0S84Mu3WyuFVBsrkosI65MNA0qVQ1NKKnrhH3ZhptlcjhGiD98AUxMNNCepUzRKwuiTQESzjUxTL74Bk32hdPUAppUvUkYIphpHfsW0rCghIpJlSuSHuVTHbFE7yZj4nYcVJKaJkCUSdSxTFlxWrX4Q2T80y0jmotuINqDlEdHDAFtUtJkhSlH2nxTEqtmhQbLMlMTKgiWlbUKY+MSRol5wZdutlcKqDZXJRYR1yYaBpUqhqaUVPXCPuzDTbK5HCNEH74ApiYaaE9SpmiVhdEmgIlnGpimX3wDJvtC6eoBTSpepIwRTDSO/YtpWFBCRSTKlckPcqmO2KLoKSKiE+ipw+bCLo+1HqC9c6q0rLt05sSvJXvia8qiwDTSWQBKCnlzQIlcNPIC8H6sJf2xdTlSdi36G5PKl7FyHOMt9193Vu3PUy9at+muVypexcgH11YAQJ6lp3Uvjxx67zPETqvSnJnviav3N5K18KelHlMv2wXpJt1LJgwAkm8tnyZf2Q9UMezHqgQbFBAUoiJuRO2lQf1ZjKv7zsPsK2+T2FcsojBUWpLTTUs/jCSyKo/qqBaYYQydXHpba4kT1xgwtoRyTX1fsrpkx4q8Cw4/omadWwg2ploWvwsisThy0+cnUAsKiAoqtF30iTcIpmVwSmj2CBHCwi/W1K1Rd9Ei5zh4d0bbporjaW0qmWyKflAzbwFodVdsiIKRN2l+ymPHDRob0s4tuzYYww2VKtghT/j1wbjraAqMy6kLaVRKHVUSJ6XwZm9NOWmiQFpuUqW5Thi6YKoiZvKQEu/RKL96RolxUbcmVwiiq5N78Iep/8AtTHalE7aVB/VmMq/vOw+wrb5PYVyyiMFRaktNNSz+MJLIqj+qoFphhDJ1celtriRPXGDC2hHJNfV+yumTHirwLDj+iZp1bCDamWha/CyKxOHLT5ydQCwqICiq0XfSJNwimZXBKaPYIEcLCL9bUrVF30SLnOHh3RtumiuNpbSqZbIp+UDNvAWh1V2yIgpE3aX7KY8cNGhvSzi27NhjDDZUq2CFP8Aj1wbjraAqMy6kLaVRKHVUSJ6XwZm9NOWmiQFpuUqW5Thi6YKoiZvKQEu/RKL96RolxUbcmVwiiq5N78Iep/+1MdqV66PtR6gvf8ATn8PYHB//wAdM9bcWZ1B10VnC3Cbs6VeLAUUEuXopLNNbpg1rT92vuhgpEUOX0ZSVQdTra5OCsWLoHhJNJx3Dk7qVWmK1wViS/QjjTbWCdsqTamFKjkxp+ESbIKuEclTRTFNSlvGsSCSlpXBlU0VY1WA+e974TDWEkqJT7FNyvBEojrtzxl9EOWTeaRWF0v1RtZPfFzglVqpA+DZjqaWk0yfu0yQ0/Jo27RtxohdcUfrrjrRYY/TGDwehW9D4Tf3bP73qxw2U+lppGGNEiaY8q419+WCpuXR/wD8kXU5UnYt+huTypexchzjLflpSbD/AMqLbgfw0VI12cz57vRrs5nz3ejXZzPnu9GuzmfPd6NdnM+e70a7OZ893o12cz57vRrs5nz3ejXZzPnu9GuzmfPd6NdnM+e70a7OZ893o12cz57vQ27V8zbWo4SZcNEWlMirvLAtKunJFJE4Ep80vjxx67zPETqvVpj374g2c0AClEEZx1EROdGuzmevd6NdnM9e70a7OZ693o12cz17vRrs5nr3ejXZzPXu9Guzmevd6NdnM9e70a7OZ693o12cz17vRrs5nr3ejXZzPXu9A2imTskhIhzbhJVFqmJS3/Ll/ZD1Qx7MeqGn20VAdBDSvDFp9hp0qUqYIsbDl+iSNhy/RJGw5fokjYcv0SRsOX6JI2HL9EkCWg2Kjk82kbDl+iSNhy/RJGw5fokjYcv0SQolKM0X7IUjYcv0SQgNALYJkEUpFp9hp0qUqYIsbDl+iSNhy/RJGw5fokjYcv0SRsOX6JI2HL9EkCWg2Kjk82kbDl+iSNhy/RJGw5fokjYcv0SQolKM0X7IUjYcv0SQgNALYJkEUpE2BUoy6gDzBL84uj7UeoL1xzVaYFoDTh83Z/uhqYlHW2jbbMPONKaKhKP7yfZjZMnmheJDJHNStWTtjSVLLT2nDGyZPNC8SNkyeaF4kbJk80LxI2TJ5oXiRsmTzQvEjZMnmheJGyZPNC8SNkyeaF4kbJk80LxI2TJ5oXiRsmTzQvEiYcmHAdcfctrYCwiaUR31+zF1OVJ2Lfobk8qXsXIc4y/QpPkr/wATV8eOPXeZ4idV5timM2zOvFUe9fl5nRUoGGaFyzoUlpVK/tI2bKZmXiRs2UzMvEjZspmZeJGzZTMy8SNmymZl4kbNlMzLxI2bKZmXiRs2UzMvEjZspmZeJGzZTMy8SNmymZl4kbNlMzLxIB1yZlnBwrYKKSxCumNBy2+G9KPO6t1kDL1qnky/sh6oY9mPVFz+TN/CkTDbjzwA2w0qI2dnGqnXqSNkzfTrGyZvp1jZM306wODemzdMkABWYXLApMzbj7ZZSbIm7H3ktYV39KfrliuC0X9bepBEX6UcbBKuOA7iH71x+6sTQuFPkwySVdB3EI2UXHjr90I2yc68miEaWjtKJZrurGyZvp1jZM306xsmb6dY2TN9OsGhmTlh94KktVojhIn4JEw2488ANsNKiNnZxqp16kjZM306xsmb6dY2TN9OsKqzM306wk2zMHglS0jCuFaJOPXF90GoTE8oiwj2vLkWvyioFdJ0UBDcIHdbRU3cfVWJkXHJ1GGwAgcR6tqvv/KCbcK6Es6KVsOP7nuVUjZM306xsmb6dY2TN9OsbJm+nWDQzJyw+8FSWq0RwkT8Ei6CkiohPoqcPmwi6PtR6gvXOqtKy7dObEvLhMuS4Ky4ZK2g1VUUE+si/aWNtJzms9yNtJzms9yFIrqziIiVXSs9yBew05oUsioTSuU37GC/ONDpdK6mF3llEp9+CpSFBq689WlUq02iEn7q4PH7oXAXXnV0toVVoBQk4FweP3QThXWm0sNo4elbxIuP9nFn9LzqlURojba5cn+nCMpdeftKVlFwAWVXetYOkbaTnNZ7kbaTnNZ7kbaTnNZ7kFLOOlMJozAoTlKomAt7iJuxdTlSdi36G5PKl7FyHOMt9Z21SY0Dhqon1rFY21nOaz3I21nOaz3I21nOaz3I21nOaz3I21nOaz3I21nOaz3I21nOaz3I21nOaz3I21nOaz3I21nOaz3I21nOaz3I21nOaz3I21nOaz3IkP1598HnlAxcFulMGa7gp9mAfXVgBAnqWndS+PHHrvM8ROq9Kcme+Jq/c3krXwpe0SonZt2LKJjrWkYNUVVsW61REpWm7Gh8O1ojLg7aWvuiw08GGx+aUkt4uCLeh39DWrOiKDZy036/hAy5zDQzBZG1NLS+6MFohrC/YtpX7oBuqKRLSlpMUG0y+0443qwE0VR9cFoV9p6wtCsGhUvDymX7YL0k26lkwYASTeWz5Mv7IeqGPZj1QINiggKURE3IneTMfE75A4MrDoEhgVN2GZuZlpKWcaK0ptqrhnipStkafjCyVRwuCsV3IfqEu8JjRonjJcFi3ApT35YmmgwGBmqWiUlqGlRFxUx/hBOM4Mv1kXREiVMVizveS9yqY7YoneTMfE75CouRYGXuesoogllHHTVNLvKiD+NYpKiyIuSqMFbcXSUrjyY8vBDgS2BUX2xE1Ml0ioNKolMf4Q615smSabRLePGG+m9DhaCkpKu5LJl9a0Tq8l7lUx2xXro+1HqC9/05/D2BxK8le+Jq+40WQxUYCXSS86FBwymODpv5bX4RMLkByXRu1w44lQelsCMoK1O0KoelppcdfvpEgmh1aFlqttSGh6SiUx8O7SJnCC6jmhAbBAmFFFJBXKiLRffBTbYWtbSzaypSi++GTebmDJuYQlIn0Rux+6KLj/iSvkHTcujjzSLqcqTsW/Q3J5UvYuQ5xlvm26lkwubZJN5UbvYfA1PCKCt2t5Vr+CVhRRBUEaRxTUsWNaJuRgEMrdaVwZWa71rJXggQxtuERCiWVsqqL9qlNyFelpRHZVPrYWhlxRpj++EB0yRaVXzZUHjL9X3wrRuFaFUQqNkqDXfWlEiaF622jBCNpQLHX3QOEMxqNrGyWlT97FpffCs4OtHGwrX7SRgRMrdaIuDKyq8BZFhdDqRIm7YVE++LlcqXsXIFpV05IpInAlPml8eOPXeZ4idV6tMe/fubyVr4UvOsm2uhkUnbW4qklKfFE5hGjwqWGRSmMkFcsWZVHiFX7RtPS2kTfMXKfmsXNoyokM2ZFpclbeP8YrItz8nO2l80iGTBL70sU9VIfZmXJ+pv20BpgVAseLT2cXOi6CCFl1ZgnGqplVKKi/hErMKy408/Mq4SEONtLColfwjQTUu8E23LqFpWqIK7tCXEteCEdwk+4ot2P1hgWkHg1I1/FLw8pl+2Dy5f2Q9UMezHqhp9tFQHQQ0rwxO8mY+J2/MDKykuYNHZqcyoquLesLDLxW0wqVQBbUy+4aw3VxSVwLYoDZGqpv0SGyVxTRxLQ4MFPFv4tzhgUJxVtDaqIKSIm+qpiT3wjSgp1eRrSCRUxV3owFtbdbNbC2a71rJXgjBiZKqnYrgys2t6tKbkHg1rYKyWLdvvcqmO2KJ3kzHxO35gZWUlzBo7NTmVFVxb1hYZeK2mFSqALamX3DWG6uKSuBbFAbI1VN+iQ2SuKaOJaHBgp4t/FucMChOKtobVRBSRE31VMSe+EaUFOryNaQSKmKu9GAtrbrZrYWzXetZK8EYMTJVU7FcGVm1vVpTcg8GtbBWSxbt97lUx2xRNgVKMuoA8wS/OLo+1HqC9cc1WmBaA04fN2f7oleSvfE15Ft7HwWhH8SVEgJibMZMD1OGdDH70VUjXmtRb1aanf9UEKvMMg0iVS0goKbkAbT7bgOLQFE0VC9UWUcCtbNLW7veTdXlI9i3F1OVJ2Lfobk8qXsXIc4y37o8lc+FbzpEKaG1Y8JqiIvV+MTYECK6qiDaWvqDki1KNPyyK5VwsMJMmPFXGi+pEiQEgxtTBGePImm+cJKNSau2EstvWxQKblrHa+5InGwYw+jP9RFRBBbNnHVa09VYuk0I2lds4PHqqCKflEwIsqqG8y4hVSmKleqJxGZdZgZtMRWhRAWzTTbtPVWEoNoUcY01dwRoqwy09LTRKyVcMU4uD4FQLX4Uhpt5LJpWqe+LlcqXsXIk+Sv8AxNXx449d5niJ1Xm2KYzbM68VR71+5vJWvhT0o8pl+2C9KPO6t1kDL1qnky/sh6oY9mPVFz+TN/CkTRTNoUOXaQVRsiyE5veuNcPoT+Ua4fQn8oni0TNy7rjlW1BXkHIn1UxRKvHLzQ2WsETEqRt2fVSlUhhWJZ5wcAVQG0RIqlXKUC4IOzSm3ZIW210i1Vd2mLTQyksk0MyLaJh5eqDXHiISypj3lg3qOu/rQHpWlxpYsqv3wMlYcsI/hMPgls0t2smWvuh5FIkeB43m0Vovt1TcgBNw7a6Y/MnqlxruRrh9CfyjXD6E/lBkiKiHMPElUpiV0qRNFM2hQ5dpBVGyLITm9641w+hP5Rrh9CfyieLRM3LuuOVbUFeQcifVTFEq8cvNDZawRMSpG3Z9VKVSGFYlnnBwBVAbREiqVcpQLgg7NKbdkhbbXSLVV3aYtNDKSyTQzItomHl6oNceIhLKmPeWDeo67+tAelaXGliyq/fAyVhywj+Ew+CWzS3ayZa+6HkUiR4HjebRWi+3VNyAE3Dtrpj8yeqXGu5GuH0J/KNcPoT+UGSIqIcw8SVSmJXSpF0FJFRCfRU4fNhF0faj1BeudVaVl26c2JXkr3xNeRKzZtm622JitgFNRVaY6JjhCBt2WbdNwhIJW24iKupyaWuXGkMy4NvsuNMOKRKGm4u9jhG1bIlF1CWZ0MrpUUctE+tuflDaIs00WjiLCq2KHSxl1Nn8Ibwjk6lmcdVXm2LZ0UctEFU/CAKZtW8eqGyqpXEqpuLTyJoESuGnkBeD9WEv7YupypOxb9DcnlS9i5DnGW+6+7q3bnqZetW/TXK5UvYuQD66sAIE9S07qXx449d5niJ1XpTkz3xNXxBs5oAFKIIzjqIic6NdnM9e70a7OZ693o12cz17vRrs5nr3ejXZzPXu9Guzmevd6NdnM9e70a7OZ693o12cz17vRrs5nr3ejXZzPXu9Guzmevd6BtFMnZJCRDm3CSqLVMSlv3pJt1LJgwAkm8tnyZf2Q9UMezHqgQbFBAUoiJuXssZYyxli3QbVKVjLGWMsZYRHEE6LVK78ZYyxlv5YyxljLFug2qUrGWMsZYywiOIJ0WqV34yxljLfuj7UeoL3/Tn8PYHA6Kl2n7OpwgIVI2vlOgH5RtfKdAPyja+U6AflG18p0A/KNr5ToB+UbXynQD8o2vlOgH5RtfKdAPyja+U6AflG18p0A/KNr5ToB+UbXynQD8o2vlOgH5Rc4ZRgGQ0UqqjY0TWji6nKk7Fu9bNFVLSDi4VpDTdkjN2tlB4ErCtfo6aFRpaVSaxV/jjA/o2btolV0zWTnw4oyM0bTZKJODYpiy4rVfwgSBaiSVS9cnlS9i5DnGW/Jy803klgBwCT93GixtdJ9APyja6T6AflG10n0A/KNrpPoB+UbXSfQD8o2uk+gH5RtdJ9APyja6T6AflG10n0A/KNrpPoB+UbXSfQD8o2uk+gH5RtdJ9APyhHJeSl2nEyEDQosC0q6ckUkTgSnzS+PHHrvM8ROq9WmPfvy8zoqUDDNC5Z0KS0qlf2kbNlMzLxI2bKZmXiRs2UzMvEjZspmZeJGzZTMy8SNmymZl4kbNlMzLxI2bKZmXiRs2UzMvEjZspmZeJGzZTMy8SNmymZl4kA65Myzg4VsFFJYhXTGg5bfD5cv7IeqGPZj1Q0+2ioDoIaV4Ym9Fy7UxZl2bOEBCppnI2uk+gGNrpPoBja6T6AY2uk+gGFcWQlVaJglQcANLQ//cDJOSjCvq+GnwQ1s6pepUhC0BIMNYRxCeck8IKUOlFX6vrXFEwcpKXNsBKg5QmEMV1WTJ98Nufo2US2KFrAxtdJ9AMbXSfQDG10n0AxtdJ9AMOA2iCAzL6CiZETClE3ouXamLMuzZwgIVNM5G10n0AxtdJ9AMbXSfQDDdqQaQFeBCwLOmpX93HD7snIW5ZholfF9kq2sqa5jh5P0dKIuBIxP9FE2gLTfLL+EUck5d9dDtUqwp6YiXHTGsGhXLlCctADbhXOVkVUl3ixxJictcxFWYpUJPESUXcr+cbXSfQDG10n0AxtdJ9AMbXSfQDDgNoggMy+gomREwpRNgVKMuoA8wS/OLo+1HqC9cc1WmBaA04fN2f7ol5cJlyXBWXDJW0Gqqign1kX7SxtpOc1nuRtpOc1nuRtpOc1nuRtpOc1nuRtpOc1nuRtpOc1nuRtpOc1nuRtpOc1nuRtpOc1nuRtpOc1nuRtpOc1nuRtpOc1nuRtpOc1nuROsuvG/gXkESNErSwBbiJurF1OVJ2Ld7BohrVwNRWtLSb0SJsaJNEU7Sm+44iaX95VicJUVBJAou/lhw7K2cAKV96xMYSbmmWzePzQoCJSvFr+MIIpQUxJeuTypexchzjLfnXmVsuNsGYrwoMbaznNZ7kbaznNZ7kbaznNZ7kbaznNZ7kbaznNZ7kbaznNZ7kbaznNZ7kbaznNZ7kbaznNZ7kbaznNZ7kbaznNZ7kbaznNZ7kbaznNZ7kSH68++DzygYuC3SmDNdwU+zEnyV/4mr48ceu8zxE6rzbFMZtmdeKo96/c3krXwpeFvQEy5bKyBCrdCX3lAMuOtszJf6BuDb+5Fg2QfaJ4NU2hopJ7obfJxGxcbwiIa46eqGwdln5fC62Tlmhfcq/jBS4TDRTA5W0NLSe6MG1MNG59kTRVhGhVFVa5CTFSDNiZZdFvVqDiLZ9cYSVebfD7TZWkvDymX7YL0o87q3WQMvWqeTL+yHqhj2Y9UXP5M38KRO8mY+J3yW0er5s0NKQE2trCgChlxRRibmGNMSrYUcdpa7qLBo3aETZRmlfqpX5wDY5ARETyXuVTHbFE7yZj4nfIC3XSGhpTfSMOVbShgzRMhjvLBA5NzLwKCggmSaVPcmP31haqdVbEEWuSytUX1wYTEw++RUW2apUaZKURE/CBwk3MOOCaGji2a/dSn4eS9yqY7YougpIqIT6KnD5sIuj7UeoL1zqrSsu3TmxK8le+JqNDyjIvPWbS2zsCKeui9UKc+y6worQrLRuJ66omSAIsMlrIOhztU37NKonDCITikqgh6QFPS7+LchUMxsWQJCSq6paJBCZ0IVFFxL9bJCFaMqkoogtESrTLRETHCPsnVpd1Up1wZo4oiCVW2BDi30rlh4kIxwKVcQ2iBUT1KlYdO0YI1S3hGiBUr60iyJmJWkGybRAtVyYlSHBBak2VkuBYmgRK4aeQF4P1YS/ti6nKk7FuCdeVUBN4VX8EjBBhRNciOsG3XnInkq46tkByreuTypexchzjLfdfd1btz1MvWrd5sGpWXcB07IEsyorkrjSwu9AtTC2HlKwtkCJtC3rdKQrQGSnjRNISIqpvFkWAdc0hKzhSFNNZT1w2TslZl3FxKLlox4w0/NYwCuLbrZrYWzXetZK8EYETK1asVwZWbW9apSsKTiOtrhCARwRqpU3kpGBU1t1pqCs13rWSvBDYk3ZQnHQrayWN2HFQyRAG2tpshqO+lUx+6LbVqz+8Cj1xcrlS9i5APrqwAgT1LTupfHjj13meInVelOTPfE1fubyVr4UvSKiKqgvVXg0qwo4N4UCaEsE1K0FUtatSVMa8WBbl0fJrCGpNvy2JvLpgc9/DFl2XOZJ9jFbSlFT/AE1xYkhr9GrPgOR1mYQ8GI8Cnu8VYl2ZhyfV1ly0o4AUbrv27P51iWfbYMn5Y1cwSDpixrVKepYaAALCFKO21/fJUWkLoRiYaJtQtFoeyVlF1KWkx/dSH3sJOOqaIilMNI3X3WRvDymX7YL0k26lkwYASTeWz5Mv7IeqGPZj1QINiggKURE3IneTMfE7fmwmLuaCIHKC1aZyUT7Q1iVSZ0O3NOt21SYewI9Swz+j5cXlcbU6k9QUotMqIsAkhLo4di2YuOWLO5TIuPFDLcu0Cq4CGguPYMy4BTdyb8YKXRFRJkWytnTFYrvQjmATQauYPCW9NWtK2aZK8MIZS4jLq/gbWEx1rStKb/DDhWbIoaiOPLTdvvcqmO2KJ3kzHxO35sJi7mgiBygtWmclE+0NYlUmdDtzTrdtUmHsCPUsM/o+XF5XG1OpPUFKLTKiLAJIS6OHYtmLjlizuUyLjxQy3LtAquAhoLj2DMuAU3cm/GCl0RUSZFsrZ0xWK70I5gE0GrmDwlvTVrStmmSvDCGUuIy6v4G1hMda0rSm/wAMOFZsihqI48tN2+9yqY7Yr10faj1Be/6c/h7A4leSvfE1BzLDBTIOAgkAEKElK48dN/fiZF1oQNxPNt1x+9clYKYZlymUcaQKCSIoqld9cmOFYCXWZPQgIWDJEotS31TFGBRFNMAw3aQrOpOq8OSJptlHibdNmik+SliXHplWsMM4N8mgUgPQ5gBGn1V3Ke6iwrbjdlxDNURXLWVcWmiafl2HZZwgRKG4Jkq1x2KqqJEx+qTRaMEGgRx8TOuO1lKiYt7FE6jMs/LPutATdpW60FaLTGqVx7sPk8EywJCCgZvobiGir60TLkyROYczdtu2hM7NSSym9B03Lo480i6nKk7FuCsKiFbCiqlfrJDI3QdaLEuhSbaUEVymRaqsATM1KaOsLhW25dUdUqf6i2l3d9IkwkaaKwLmHQctqzjt/vV38cSQ3PcRyYbkXB0uOydBxLwwZMzsshKwWGSUliFzJlNbS4/XjieaFuQfZQEJXpXULxgyIXvgcBZwdNLZyUi5PKl7FyHOMt5FFaouRYNt1LJhc2ySbyo3ek1BKo27aL1WVjzjUw4oTAkC4dBbsWtwUXGvGSKy7T8s0pLhUV4TaNMepStUX7oWVUaBMs0eVSqrblOqAa0HgiTVukYqFOCi1+9EhySSXUgN9XMPaSzS1a36190CNjTJPYXL9W3WsM2mVQGph0rVUxoVadcOSSS6kBvq5h7SWaWrW/WvujBqli0czpq5LeSHhSSmQe0OQIT06riVVPqpaX8oBFyokXK5UvYuQLSrpyRSROBKfNL48ceu8zxE6r1aY9+/c3krXwp6UeUy/bB5cv7IeqGPZj1Q0+2ioDoIaV4YfdGVOYBxlsUUCFMYqe+v70bWzHPb70bWzHPb70TTb1zpgwmDtattKYk/e4IZcbZeWaAbCuOC2qGPCmETHDRsy7yOIyokRgBIuPgNOuAWQlXmjsWDVzBnaTLXVpjqsBKjKOLK2aKDoNGvrRbaY/vgjak30LDC4lrBrSg2aauEb0K/oNHMJg9JarWtLVvJXgh6X0BNEThkoENjESrVPrQ20lzphbI0rbb70bWzHPb70bWzHPb70FhgwZE86dlVyWnCX84fdGVOYBxlsUUCFMYqe+v70bWzHPb70bWzHPb70TTb1zpgwmDtattKYk/e4IZcbZeWaAbCuOC2qGPCmETHDRsy7yOIyokRgBIuPgNOuAWQlXmjsWDVzBnaTLXVpjqsBKjKOLK2aKDoNGvrRbaY/vgjak30LDC4lrBrSg2aauEb0K/oNHMJg9JarWtLVvJXgh6X0BNEThkoENjESrVPrQ20lzphbI0rbb70bWzHPb70bWzHPb70FhgwZE86dlVyWnCX84mwKlGXUAeYJfnF0faj1BeuOarTAtAacPm7P90SvJXvia8hTspbVKVpj9FdXlI9i3F0FacbFrRSWxJtVVfNN5Fri+6HbbrStrraI0qKPrW1j/CKYdjRFdXgFs821+cNWHWkbTXEVpVUvUtrF+MI8482qN1wIo1Sld/Hj/CKYdjRFdXgFs821+cNWHWkbTXEVpVUvUtrF+MO23WlbXW0RpUUfWtrH+EUw7GiK6vALZ5tr84uRUws6IWuk3cE5wxMKTrdhSWwmDWqeta44ph2MPXVYBbNPVa/OHHJBVlLmk4qiDo4lGu4EXR5K58K+muVypexciTJthyYXQ7yWW1Guqbx41SNq5znM9+Nq5znM9+E/wDxk2mmH6zW/wAeMVy5rntd+GqXOeXSJ/qB84lX2G3JU7ajZUhJHPdDQXRkVlHDbIxWuWlnc3NVfEGzmgAUogjOOoiJzo12cz17vRrs5nr3ejXZzPXu9Guzmevd6NdnM9e70a7OZ693o12cz17vRrs5nr3ejXZzPXu9Guzmevd6NdnM9e70a7OZ693oG0UydkkJEObcJKotUxKW/elnVkrauNCSlhUSuLejYH9dI2B/XSNgf10jYH9dIYpc+qYMf9dN6NDtMLPS4LSqrSz/ABRc/kzfwpGDdOh0tUQVXF/8SNWXRl8o1ZdGXyjVl0ZfKNWXRl8o1ZdGXyjVl0ZfKNWXRl8o1ZdGXyjVl0ZfKNWXRl8o1ZdGXyjVl0ZfKNWXRl8oRxkrQKqpWMG6dDpaogquL/4kasujL5Rqy6MvlGrLoy+UasujL5Rqy6MvlGrLoy+UasujL5Rqy6MvlGrLoy+UasujL5Rqy6MvlGrLoy+UasujL5QjjJWgVVSsXQUkVEJ9FTh82EXR9qPUF651VpWXbpzYHRUu0/Z1OEBCpG18p0AxtfKdAMbXynQDG18p0AxtfKdAMbXynQDG18p0AxtfKdAMbXynQDG18p0AxtfKdAMbXynQDG18p0AxLMyjDTQPvKioA2fqEtf5YupypOxb9DcnlS9i5DnGW/KnNIJ4eXFXEpiWo442uk+gH5RtdJ9APyja6T6AflG10n0A/KNrpPoB+UbXSfQD8o2uk+gH5RtdJ9APyja6T6AflG10n0A/KNrpPoB+UbXSfQD8o2uk+gH5QjkvJS7TiZCBoUWAfXVgBAnqWndS+PHHrvM8ROqAcNsSMNSSpjSJTkz3xNfQpJt1LJgwAkm8tnyZf2Q9US4giCmDTEkCDYoIClERNyJ3kzHxO+S+Uww06QNEoqYItnFDbNy0cljILatycuFS4VIksxJTBlMA2bKE4cu0J0L94ca04sGLBWG5gWf1lESiYlpThXynuVTHbFE7yZj4nfIcGwLlSBLJZF0yYlhayMtIo5LOImhTqhKm/pRiVR2XlxZqxphmCVdUO5Y/OLcq9MGAvgBIjIo0mmRFRVXTKvFidmm5jSDNr5mylFxonrrEuWFUERyYSyIiiLQvV5L3KpjtivXR9qPUF7/pz+HsDiVbm2W3w0M8tlwLSVtNxtbJ5uPyja2TzcflG1snm4/KNrZPNx+UbWyebj8o2tk83H5RtbJ5uPyja2TzcflG1snm4/KNrZPNx+UbWyebj8o2tk83H5RtbJ5uPyjByzQttBdHUgNET9Vi6nKk7Fv0NyeVL2LkOcZb5tupZMLm2STeVG42tk83H5RtbJ5uPyja2TzcflG1snm4/KNrZPNx+UbWyebj8o2tk83H5RtbJ5uPyja2TzcflG1snm4/KNrZPNx+UbWyebj8o2tk83H5Rcw5OUYlyWZVFVttBxYJyBaVdOSKSJwJT5pfHjj13meInVerTHv37nuOyEoZlLNqREwKqq2Uja2TzcflG1snm4/KNrZPNx+UbWyebj8o2tk83H5RtbJ5uPyja2TzcflG1snm4/KNrZPNx+UbWyebj8o2tk83H5RtbJ5uPyht2WkpZl1JlihA0IqnnR8uX9kPVDHsx6oafbRUB0ENK8MTvJmPid8km3EqJJRYFXBKopZ0rhDVN5aLj98NgjZALY2BQHSHS7y0XGkOITWJxEEse4mTynuVTHbFE7yZj4nfIJp5FUF3iVPxSCUcKZENmrr5uYv4lxQLJD5saUSu9khTcbJalaphSs2t+laV4Yw2DW3bt6srKlv2ckAQiqEBkaKhqmNcvkvcqmO2KJsCpRl1AHmCX5xdH2o9QXrjmq0wLQGnD5uz/dEryV74moSUYdWXTB4Q3BRFLLiRK4odWrc5YxirhYNVHhoP5QyIyrWiHQwiDh1soO+pWeHehkJWWQ3TQ6o45ZQVFaLuLCvWCQQZIyFSRERUKi7kTJSxtTDbDYmRg8ipjWkE83Lt2LWlI37I2PtKtMX4wrqICUNQ0jlsVpvLEs5gteewVLWTLj/CJQBZqcwZDS1iClca/dEwJybPmcS2JhVVVpXdFN+JlplmVcfl0RSsTdoN3ds5cWSkC7MNNs20RRQHLeL7ki6vKR7FuLqcqTsW/Q3J5UvYuQ5xlv3R5K58Kw2LFMK6aAKlkThiXwk2c0y6eDLCiKKi7lLKJEqat0R91W9VkpXH+ENnoZBYfxMnhMaruWkpi/GJTRhSozLwWvOzODGnrs/lEuEk7gUcAjNwaFSi00u5l3YLDnoy0aCyq0ElVdxaJSFB2VTRKOANgXajpsi2qflFG2Wm325kGnEwtRotMi2eHeh5dDpYB3Aj5zGR/dkhQcBJeZFxqtkraKJFTLRIQX3JfDG45ZWYeRobIlTLT8olkk2gcV4SWuF0qWVouNEWsXK5UvYuRJ8lf+Jq+PHHrvM8ROq82xTGbZnXiqPev3N5K18KQ2LFMK6aAKlkThiXwk2c0y6eDLCiKKi7lLKJEqat0R91W9VkpXH+ENnoZBYfxMnhMaruWkpi/GJTRhSozLwWvOzODGnrs/lEu8wbzUsdrCOywYZRVPcuLhpAOlNy0yLh2WXTcRtFxfXWmJfdDehm2nnTdwWkfqFaV1VPyihNIj+HwKha/H7scAEqyjz1FI8K7ZolpUyoPBvQrZaHAwFFcF6aQCTgRN2BMdSSVSB5TL9sF6Ued1brIGXrVPJl/ZD1Qx7MeqLn8mb+FIneTMfE7fnlnnboCou0RWimEBMSfZ0sSsu5UZpWbbhaGN+nuCGW2AblyJpTJXmyxKi01OJYEJPBMmLdtzCDbStVSiY03ssMGqtSjRii1ebJRIseltpiH3xYl3RbQZsRWtorSYOu/CTVGtCK7g7Flbeqs2q1/CkI+eB0PojBKKAtUS1ZrWvq3IMzog21Rum8l97lUx2xRO8mY+J2/PLPO3QFRdoitFMICYk+zpYlZdyozSs23C0Mb9PcEMtsA3LkTSmSvNliVFpqcSwISeCZMW7bmEG2laqlExpvZYYNValGjFFq82SiRY9LbTEPvixLui2gzYitbRWkwdd+EmqNaEV3B2LK29VZtVr+FIR88DofRGCUUBaolqzWtfVuQZnRBtqjdN5L73Kpjtii6CkiohPoqcPmwi6PtR6gvXOqtKy7dObEryV74moB+VdRl8Us1ILQqm8qVSHtEzCvOOpRcVBH1DEuUq8Lb7LeDtG3aQk9VU3t+JVJNyio25bdcatipKSLjxp1woo9SrRAq2cqqVpVh8sLZwrYhqclFrCYNxugPK60LrNsR91U3caQ6jjuGVxxXK2aZYYwb7TzbMwhoCSy2sZb9rhXchnzykQPq6pKOXLi/GJwFPZJIWMaomJMu/khxx58Ctso1ZbasCKJXJj4YaarawYoNYmgRK4aeQF4P1YS/ti6nKk7Fv0NyeVL2LkOcZb7r7urduepl61biypKCotoSHKKwy/MzzTrQFXAowopXf1SwyhTKFLsvK4AYLHjriVa8O9DIHMW5ZhatBg6F71rj+6GVYmWxeZRQQlaVUUN5UtfnDToTVJtuqW1bqKou5Z3vfBLMzam/aQgIRoAKmSg1/OMJMvob6uASqLdkaDuUrEwQPIJOPA6lQqiWacPBDwYTTG/hhJE1JQRTMwJvkQKpC3ZGgrWlKwJyswIPIp4zatIqEtaUqkMvuvYQ2wIV0lK1p8ouVypexcgH11YAQJ6lp3Uvjxx67zPETqvSnJnviav3N5K18KRZUlBUW0JDlFYZfmZ5p1oCrgUYUUrv6pYZQplCl2XlcAMFjx1xKteHehkDmLcswtWgwdC961x/dDKsTLYvMooIStKqKG8qWvzhsmpyjw1rbbqBfwoqdcYZHxScwlvCYPS1pTU1yU4YlzmJhHDact4m7KZKUTHw8MaNwi0sUwVMVr7X3QJScyAO0USU2rSElVXJaTfgnJabEMIiYW2zaVVTdTGlIy1geUy/bBekm3UsmDACSby2fJl/ZD1Qx7MeqBBsUEBSiIm5Dj8oTNHGgBUcFV1Kl3o1UnzC+caqT5hfOJgS0IYPrUxIC3qb8Mo1OA240lkXbNSs72PLDZNzQtKDKjhUxquPhrDehn2ZVQCxVsV0w8NawLbc02ywgWFaBFoSe+v4QpNvMNErguVEFxUSnVFcOzgbdvAWFsWt/fy7laQ7Lt6HcF1SriWqWlrXLANAsnZBKJpC+caqT5hfONVJ8wvnCi6QkZOG4tnJpiUvzhx+UJmjjYAqOCq6lS70aqT5hfONVJ8wvnEwJaEMH1qYkBb1N+GUanAbcaSyLtmpWd7Hlhsm5oWlBlRwqY1XHw1hvQz7MqoBYq2K6YeGtYFtuabZYQLCtAi0JPfX8IUm3mGiVwXKiC4qJTqiuHZwNu3gLC2LW/v5dytIdl29DuC6pVxLVLS1rlgGgWTsglE0hfONVJ8wvnGqk+YXzhRdISMnDcWzk0xKX53ro+1HqC9/wBOfw9gcSzzouq3gHRVW2Scoqk39lOBYyTeZPd2Mk3mT3djJN5k93YyTeZPd2Mk3mT3djJN5k93YyTeZPd2Mk3mT3djJN5k93YyTeZPd2Mk3mT3djJN5k93YyTeZPd2EeAHEA7oWkttEGLQ1N1N+LqcqTsW/Q3J5UvYuQ5xlv6HVssN+j7FimO1g6UjUTmYvd2NROZi93Y1E5mL3djUTmYvd2NROZi93Y1E5mL3djUTmYvd2NROZi93Y1E5mL3djUTmYvd2NROZi93Y1E5mL3djUTmYvd2LnIw3MaR9SJTlnAREwRplVOGBaVdOSKSJwJT5pfHjj13meInVerTHv35Jh9ubFxpgAJNBurRUHixqZvMXu7Gpm8xe7sambzF7uxqZvMXu7Gpm8xe7sambzF7uxqZvMXu7Gpm8xe7sambzF7uxqZvMXu7Gpm8xe7sambzF7uw2zLtzSmswyuOUcHI4KrjUeDy5f2Q9UMezHqjYP9ZIVH5bAjTLhLV7YP8AWSFR+WwI0y4S1e2D/WSFR+WwI0y4S1e2D/WSFR+WwI0y4S1e2D/WSFR+WwI0y4S1e2D/AFkhUflsCNMuEtXtg/1khUflsCNMuEtXtg/1khUflsCNMuEtRgKLbsW42D/WSFR+WwI0y4S1e2D/AFkhUflsCNMuEtXtg/1khxZpsWtPpBRa4qJl99Yuj7UeoL1xzVaYFoDTh83Z/uhtlqXdmHHBIqN2ciU+0qfaSNqpvns9+Nqpvns9+Nqpvns9+Nqpvns9+Nqpvns9+Nqpvns9+Nqpvns9+Nqpvns9+Nqpvns9+Nqpvns9+Nqpvns9+Nqpvns9+Nqpvns9+HhJlxg2jsEJ03kXcVUyLF2NCUemLTXmTdUBQcGmmyLjgUFttWKaY1cW0nup+cPWmmUprVHV03r0uL8YFRal8PXTCrq2aeuz+UDZFvAU0yqS2q+qkP2xZ/2aEv4wNlGNEV01VWzSBs4PQ9NNWtqsP2sD/s0r/NFytZ0Topd+zrTkLZweAqtqtbVYetYH/ZpX8YGzgMPXTVrZpDjzy2W2xUiXeRI1qczF7uxrU5mL3djWpzMXu7GtTmYvd2NanMxe7sa1OZi93Y1qczF7uxrU5mL3djWpzMXu7GtTmYvd2NanMxe7sa1OZi93Y1qczF7uw21R8DcWg4SWcBFWlcqpvJEnyV/4mr48ceu8zxE6rzbFMZtmdeKo96+JthNGBJVCGTdVFTmxrU5mT3djWpzMnu7GtTmZPd2NanMye7sa1OZk93Y1qczJ7uxrU5mT3djWpzMnu7GtTmZPd2NanMye7sa1OZk93Y1qczJ7uwNoZkLRIKKco4KVVaJjUd+9KPO6t1kDL1qnky/sh6oY9mPV9I/9t/d6G6PtR6gvXOqtKy7dObEryV74mr5uHiEEqsBMILCtnRcBZW2icetPwgpcpKYGylVNVbsoO/qqwKKy80LiVaM0Sjnqx9dIEsC80DgKTRmKUPFXf66Q64SEuBZR06JuKld+MEDbhnUUolN1KwDZysyAGeDF0hSyq/fX8PImgRK4aeQF4P1YS/ti6i0x6JRK/wDpN3rbVtSRwMQLjXTJiiTaclZmUbJTtWjDTaX90liZTCzSo1Ysos26u5xoNvCzdgWhOmjHctV/eiaVVumU0jpoGCV+zlxfuQGF1yylr13rk8qXsXIc4y33X3dW7c9TL1q36a5XKl7FyAfXVgBAnqWndS+PHHrvM8ROq9Kcme+Jq/c3krXwp6UeUy/bBekm3UsmDACSby2fJl/ZD1Qx7Mer6R/7b+70N0faj1Be/wCnP4ewOJXkr3xNXzbPGJpRYCXEpcQGiaIqqkqcSlK++HjJUwbjGD4d35wwk1gUalRWyQEqqelpjSmL8YksNghbaZq2omtSVRpjSmLLww+kyzLPOlLC00RDWySJ6oKaZVtHfNp6xRKKiw06YS5G2/bw5mRmQ7yVTS+pPIOm5dHHmkXU5UnYt3rBqqJaQsXAtYZdJVtMqqj70pDrqVtOUr7oJ/HaUECCQKraNTx8N+5PKl7FyHOMt823UsmFzbJJvKjcOLMXM/SSDLj9RsrOMvtLEuMi24ITTpYMGbFpoKVpptLEqzdLDAKzNKOI0SmNN1EqMaFlBmKW3jVZfB2tcVPr4oCXdccknAatnZQFIsaom+m5F0nNEkp4FqtEREHfVP8A7ht5oAlnELVjpVc4CX60Sk2cwpBMuIKsqKUFF3t2vviSdcmzJJkjbULA0HLRUxZcUXMlwm3BFxkzIrIVxUxZOGGp1X1sOPI3gLKWURSpvVr74w7Y2zCWdon/AKsTJmMwgo3UTmMFiKu5Y3IuSjjpPLopdMVP2Lm9AtKunJFJE4Ep80vjxx67zPETqvVpj379zeStfCkOLMXM/SSDLj9RsrOMvtLEuMi24ITTpYMGbFpoKVpptLEqzdLDAKzNKOI0SmNN1EqMaFlBmKW3jVZfB2tcVPr4oCXdccknAatnZQFIsaom+m5F0UKdsGbADaVEEUXH7/xhCcuaEiVlbJSppYeWzWi4kX8IR4wmMEbSkSuYGwGKqWbK2vvrElMTcyTrL4+cqIogrZqlKepYAjs4ZxgcaimktOU/CsNtg+9Nk+5YErDaGOJV4B3IcSdB0aFpFesWlThsYoHlMv2weXL+yHqhj2Y9X0j/ANt/d6G6PtR6gvXHNVpgWgNOHzdn+6JXkr3xNX8G8aoVKrQFVBTfVUye+CbcJyoIikosGSJXhRKQ8TrllGVQTxZFX/7jAKkxheSuU++zSG3MJpHBUxWi5IIrZggja860TeL+JMcOrbMMCiKaONECoi7tFSsKDh0JLKri31on4+RdXlI9i3F1OVJ2LcPH+m/1sTOzK+aXGirQbNm1+cK2WhhNsUV0XZpGy9Qpu/hAy8u20elQqE9ZNUXdEaY/vh8tCpoZh3BmeFx7mNEpw78E4MvWTFzBq5b01a01NMnvhFWWFJdX1Yt4XTVrTJTJ74e0jSNNVtUeqYU+0FMX4wDQlL+dSreDmUM/4h3Pxi5PKl7FyHOMt+6PJXPhWCdRPOEKCq8EODg1RHDwi2TJNNvpjxe6AQQXSnbRVNVW1kqqrlhEsmNklJFB0gKq5caLWABQMEDUq26QL96LFoG7OkwdK6Wz6skCYASqGotukaBxUVaJ7owwNrbrVNOtlF30HIkMiIYmStBjyL/8WAVoVqFbNTVaVyxh0bW3W1S2tmu/ZyV4YxNJSyoUVa4lWqwYWDNDSytt0jxb2NcUXK5UvYuRJ8lf+Jq+PHHrvM8ROq82xTGbZnXiqPev3N5K18KQTqJ5whQVXghwcGqI4eEWyZJpt9MeL3QCCC6U7aKpqq2slVVcsIlkxskpIoOkBVXLjRawAKBggalW3SBfvRYXzKWVbwaj9VR3qZIthhCLcwjxOU9VpcUKoAW6iIrhKg+pK0T3Qkq80hsJTSqu9kglcbRVIMGvFg21EytUqRPERYsmmVawosouNaqpEpKvvXHA8pl+2C9KPO6t1kDL1qnky/sh6oY9mPV9I/8Abf3ehuj7UeoL1zqrSsu3TmxK8le+Jq/OIzLrMDNpiK0KIC2aabdp6qxPtiNrCNNgGPVUGkXQVQRQJUJlK5SsolYR2mkwFmvDWLoAiIotobTH8WmXrSFKUl5qXMWLNX3xcVVxampFTd4In/MTAo/LiCYaYtGq1Wu7i92KJnQzb7oGDWWZUiWh1WikWLFDuFB5ptV82D7uENN/HVeu/NAiVw08gLwfqwl/bF1OVJ2LcaHVxUJDUwdFMYFWtYVyXm2wJ1Ew1WK1VN0ceL8YsOvNlL4lsmxUhXfEq4vuicA3bEqcxVQJrGSYshV/KCbGYpJk5hFbsaata6quT3QgYXJM4fU/vVpAvTjrbyBWxRmydF3FKuTHvQAOTQuMNpQBRqhe9a9SJFyeVL2LkOcZb6IqjhpuTy5EtEH/ADGw5PPC8ONhyeeF4cbDk88Lw42HJ54XhxsOTzwvDjYcnnheHGw5PPC8ONhyeeF4cbDk88Lw42HJ54XhxsOTzwvDjYcnnheHGw5PPC8OJMphmXabYdVxbEwRqukIfsJ9qAfXVgBAnqWndS+PHHrvM8ROq9Kcme+Jq/Ly2hZQ8C0LdrRRJWiU/ZxsKUzwvDjYUpnheHGwpTPC8ONhSmeF4cbClM8Lw42FKZ4XhxsKUzwvDjYUpnheHGwpTPC8ONhSmeF4cbClM8Lw42FKZ4XhwDTktLNjhWzUkmSJdKaFkscF6SbdSyYMAJJvLZ8mX9kPVDHsx6rxJaNbKqK0aNcae6EBtXLS77RD1peUCVy0mJaMkv5QgNq5aXfaIetLygSuWkxLRkl/KEBtXLS77RD1peUCVy0mJaMkv5QgNq5aXfaIetLygSuWkxLRkl/KEBtXLS77RD1p6H/2393obo+1HqC9/wBOfw9gcNTEo620bbZh5xpTRUJR/eT7MbJk80LxI2TJ5oXiRsmTzQvEjZMnmheJGyZPNC8SNkyeaF4kWGXpFsd4ZMk//sjZMnmheJGyZPNC8SNkyeaF4kbJk80LxI2TJ5oXiRsmTzQvEiWcfMXXHZ3CEoN2UTzCjvrvRdTlSdi36G5PKl7FyHOMt9g5kCTQ0oKuDu6UMcbVTnPZ78bVTnPZ78bVTnPZ78bVTnPZ78bVTnPZ78bVTnPZ78bVTnPZ78bVTnPZ78bVTnPZ78bVTnPZ78bVTnPZ78bVTnPZ78bVTnPZ78MtPyMxL4YrIkatqlaKu4S7iQLSrpyRSROBKfNL48ceu8zxE6r1aY9+88+4iqDQKZU4I2qm+ez342qm+ez342qm+ez342qm+ez342qm+ez342qm+ez342qm+ez342qm+ez342qm+ez342qm+ez342qm+ez342qm+ez342qm+ez34ZbfkphjDFZEjVtUrRV3CVcieXL+yHqhj2Y9V5QtWquGfOJS/P6MvJv7vQ3R9qPUF645qtMC0Bpw+bs/3RLy4TLkuCsuGStoNVVFBPrIv2ljbSc5rPcjbSc5rPchSK6s4iIlV0rPcgXsNOaFLIqE0rlN+xgvzjQ6XSuphd5ZRKffgqUhQauvPVpVKtNohJ+6uDx+6FwF151dLaFVaAUJOBcHj90E4V1ptLDaOHpW8SLj/ZxZ/S86pVEaI22uXJ/pwjKXXn7SlZRcAFlV3rWDpG2k5zWe5G2k5zWe5G2k5zWe5E6y68b+BeQRI0StLAFuIm6sXU5UnYt+huTypexchzjLfujyVz4VhNGTLMvayYRxBrAONPNuAa0EhKqLCBaS2qVRK44UnFQRTKq7kKZkggiVtKuKCski2ctFyQSSsyy+o6pG3EKl6q4kSEUVqi5FveacE8VrEtcV65XKl7FyJPkr/wATV8eOPXeZ4idV5timM2zOvFUe9euhyZz4VvIM3NsMEuRHHUGAsOCVtKjQtUkKCEltMapXJFXCQU31WKuEgpWmNYJ03WxaHVGpYkjCSrrbzf2gK0l8rBIVlaLRcl+5fKl7Fy9KPO6t1kDL1qnky/sh6oY9mPVexRc5p1LTZzC2krl80cbH/mWNj/zLGx/5ljY/8yxsf+ZY2P8AzLGx/wCZY2P/ADLGx/5ljY/8yxPutM2TCXcIVtLiWysTxCqiSS5qipxfQryb+70N0faj1BeudVaVl26c2JXkr3xNX3GiyGKjAS6SXnQoOGUxwdN/La/CJhcgOS6N2uHHEqD0tgRlBWp2hVD0tNLjr99IkE0OrQstVtqQ0PSUSmPh3aRM4QXUc0IDYIEwoopIK5URaL74KbbC1raWbWVKUX3wybzcwZNzCEpE+iN2P3RRcf8AElfImgRK4aeQF4P1YS/ti6nKk7Fv0NyeVL2LkOcZb7r7urduepl61biU0I420eCcxuNqafV/eSFbQ2dEpP66ja2VXB/ZtfnGEn5gCQZRxUJhmwqYx+0SxPsnbbBZEjwbk2rxeta5PcqpBDKTLxockbhKrqlRcVCTe92KJ8zU1aKYaw9o1VLFBtZf/lIZKiLNIJaHRMq4uqJR5qZdcOZbJXKuKSamtUT6uPeiXQn5g9EyJk7aeJaqiDjTHiy7kSzYm8oNySOCGGLGXDjxxIvDMOuuTSLhRI1VNSq4kyDRd6BWXpaWVlhVVOzRFJd3ch1txxGquNUEJs3jGpY9MSVxxckBtKiTK6olJdZc3VgH11YAQJ6lp3Uvjxx67zPETqvSnJnviavXQ5M58K3ndBvMteYCuEZU90v3kiTCXNlt0VmEU1aUhLTZUS0nXE/ox1XHCBkU0KODVaqWLTEvXF0GH3FbFt1j/wAyr2DqSfWLHDzEu88rQkxqnSJRVTxpVVrkgEbmFZe0a4rSu2nEUqrixrvcMTKONsJOErdt1pwhFQUqJXLZX74dbccRqrjVBCbN4xqWPTElccFIg65+tIOAUnFJU3CxrwY4WWdddRkphzGLiiuIUoNUx76wEpLOK+0LaqirPE0qrWi6YUqtIZw5g45ZxkBWkX3xcvlS9i5ekm3UsmDACSby2fJl/ZD1Qx7Meq8fKX+1KLlcpLsXLzpAVhcWmT6qVxrGGkmwZmwIVqGIjqtNNv14YmyQ8YTYtji+rUfnDk6kwqAD6t4CylmlqzvVr74dTRb9pybcQbDIma41xJip71iVB51xl4JwgtmIW0Swu9pawOFXDnKOOpapS35qu5ALMBM4ExqSu4Ggr+7ZWv33rpcld+FYmWBVEJ1ogRV4U9CvJv7vQ3R9qPUF7/pz+HsDiV5K98TV87TgJYxlUskKhOgipSqKW/khG2zE1x1oaYqQQS00w+Q6pAcQqRgpSblSsDqG3BxJCVdDGNtNN9Xfgyl5th0Q1Sg6i0hUcebFRpWpZK5IVtCS2KVUa40vnTcujjzSLqcqTsW/Q3J5UvYuQ5xlvm26lkwubZJN5UbhNGSzMxZyYRtCpANtMttgC1ERGiJFTASWlmqpub0WWZVhsaKlBbRMuWHBalmQR3XEFtEteuCcRoEcJKEVnGqQSyksywparBtoNYcNuXaA3dcIQRFL1wNGxSylkcWRITAMtt0SiWRpihx1phoHHNWYgiKXrhRRluijYVLP1d6MEzLstt1tWBBESu/FyuVL2LkC0q6ckUkTgSnzS+PHHrvM8ROq9WmPfvXQ5M58K3kKblGHyTIrjSFAWGxGwlBoOpSDR1ps0cSh2hraThiy3LMiNESiNpuZIwTMu021W1YEERKw6JS7Si9jcSwmn9e/Cssy7TbK5QEERPujBMy7LbdbVgQRErvwBkAkYaklTGkE28w04BLaISBFRVgGXpVhxpvUATaKg+pIomJEi5fKl7Fzy5f2Q9UMezHqvKFq1Vwz5xKX5xcrlJdi5eVCSqLlSG3bDuEaWra6IPSepK4oJ1xtVIlQlTCFZVUyLZyVxRh1bW3W1S2tmu/ZyV4YKomlo7eldIVQuCi4vdFhGlFMJhNKZItrfrWG0BvW1VRqSrjXLXf98WmRKtKJacIkH1Iq4vdeulyV34V9EvJv7vQ3R9qPUF645qtMC0Bpw+bs/wB0SvJXviav3SDAzBq80CBYlzNFy7qJE0Us3MghLLohKwQLiPHRCTchhx1hxNDNOtrZbValUaU9cMDYmUsyat45VxKqlMlRiQDBHaGUMSSmRbMNvOtOI4ciY2aajElB9cOq2k7NKkpZXDS+DVFxaUdKNYnXZlg31mJYbSCirValpfdDrE0ik8i1J7cc99+6vKR7FuLqcqTsW/Q3J5UvYuQ5xlvzEtas4ZsgrTJVKRsuTzMvEjZcnmZeJGy5PMy8SNlyeZl4kbLk8zLxI2XJ5mXiRsuTzMvEjZcnmZeJGy5PMy8SNlyeZl4kbLk8zLxI2XJ5mXiRsuTzMvEiWcm5lgwYcU7Lcuoqq2SHLbX7USfJX/iavjxx67zPETqvNsUxm2Z14qj3r0xL2rGGbILW9VI2VJZoXiRsqSzQvEjZUlmheJGypLNC8SNlSWaF4kbKks0LxI2VJZoXiRsqSzQvEjZUlmheJGypLNC8SNlSWaF4kbKks0LxI2VJZoXiRLHNzDBAwanZbl1FVWyQ5ba/avSjzurdZAy9ap5Mv7IeqGPZj1XsUXK5SXYueQ4+8++BYQxbwbyigUWmRMS5N2CQ3FcUZVFXKKKtulcSweAAiaBzB2Ek3CUseNbaaVIN3zGhwmsAo2VtLjRK1rw70P6JdRzz5oNBpRK+tb90uSu/CsTxCqiSS5qipxfQlyZPi9DdH2o9QXrnVWlZdunNiV5K98TXk0MUJMuOBIhRSHItMnoJoESuGnkBeD9WEv7YupypOxb9DcnlS9i5DnGW/hJmTl3j+0bSEsC4zIyzZjkIWRRUvYSZk5d4/tG0hLAuMyMs2Y5CFkUVL2EmZOXeP7RtISwLjMjLNmOQhZFFS9hJmTl3j+0bSEsC4zIyzZjkIWRRUvYSZk5d4/tG0hLAuMyMs2Y5CFkUVLyvI0GGVLKnZ0yp6748ceu8zxE6rzL8q8DRtgQadq2ioVnhT7MIjxCR7qiNlIpLGDZ75haTrSNlymaF4kIjxCR7qiNlIpLGDZ75haTrSNlymaF4kIjxCR7qiNlIpLGDZ75haTrSNlymaF4kIjxCR7qiNlIpLGDZ75haTrSNlymaF4kSTbtkzecsESJZ+oRf2xSWMGz3zC0nWkbLlM0LxIRHiEj3VEbKRSWMGz3zC0nWkMS6LawLYhXfonky/sh6oY9mPVePlL/alFyuUl2LnkGrM1MS4OLUwbVKF96VT3UiyloBwSNUFdxFrBG3MvtNmVomgVLKr91fuWDC0dDewy492tfyh2yZkjhqdlaaX1X7pcld+FYmWBVEJ1ogRV4U9CXJk+JfQ3R9qPUF7/pz+HsDiV5K98TXkHovWfr5cnDwQI4WQ0LozEat/q2oXINfzyxIpKWHPPui0rSaRdLlTeGBdlLDxtOvgqPHZtVPLVEXe3olf02jSS2CXB4VdJhLS1y7sMLNCRspK+eA00yhhN33Zd+Esancp5B03Lo480i6nKk7Fv0NyeVL2LkOcZfoo8ceu8zxE6vT3M5SvZOeil/ZD1Qx7Meq8oWrVXDPnEpfnAo+FtBW0nAsa2vPWNbXnrGtrz1jW156xra89Y1teesa2vPWNbXnr841teevzjW156wokzVFypbX0R8mH4l9DdH2o9QXrjmq0wLQGnD5uz/dDc0c6UiraKFuoIlCp9pF+ykf+Jf6kv3YE2rsTLgFkIRZVF/ki3MXZfZD7RoyifBH/iX+pL92BNq7Ey4BZCEWVRf5ItzF2X2Q+0aMonwR/wCJf6kv3YE2rsTLgFkIRZVF/ki3MXZfZD7RoyifBH/iX+pL92BNq7Ey4BZCEWVRf5ItzF2X2Q+0aMonwR/4l/qS/dhx0JkpvDnbVxbOPEg/VxZEi6nKk7Fv0NyeVL2LkOcZfoo8ceu8zxE6vT3M5SvZOeil/ZD1Qx7Meq9ii5zTqWmzmFtJXL5o42P/ADLGx/5ljY/8yxsf+ZY2P/MsbH/mWNj/AMyxsf8AmWNj/wAyxsf+ZYn3WmbJhLuEK2lxLZWJ4hVRJJc1RU4voT5MPxL6G6PtR6gvXP5M38KfQLqcqTsW/Q3J5UvYuQ5xl+ijxx67zPETq9PczlK9k56KX9kPVDHsx6rx8pf7UouVykuxc8jRX6OkxsuW1mQPz1LeXUfnE5NNzCthKkqIzZSyVN/FWJl4XHDpMIw20KBu0x49330ghdF8LbgA27MYO0lVx6jFE8LryvrZb0xIiLu71+6XJXfhWJlgVRCdaIEVeFPQucmH4i9DdH2o9QXrn8mb+FPoF1OVJ2Lfobk8qXsXIc4y/RR449d5niJ1enk3JdvCqy9aUbVMVgh/ONr16YY2vXphja9emGNr16YY2vXphja/+sMbA/rDGwP6wxsD+skMUufXzY/6470MUkapYT/WSJiWlGSnG7dVaUq2P4tyKFiIiNxU3rRKVPxi5XKS7FzyKojypW1YWYcUN/U1pGGcbW3lXTqgl6xyL74eAm6i8to0rlWHG7JGjmqVxwjJf4lWsGrAlaOloiNSVfet+6XJXfhX0TvJg+IvQ3R9qPUF65/Jm/hT6BdTlSdi36G5PKl7FyHOMv0UeOPXeZ4idX0mX9kPVDHsx6oXBAIVWq0TKsYouVykuxc8hx9598Cwhi3g3lFAotMiYlybsEhuK4oyqKuUUVbdK4lg8ABE0DmDsJJuEpY8a200qQbvmNDhNYBRsraXGiVrXh3of0S6jnnzQaDSiV9a37pcld+FYniFVEklzVFTi+he5MHxF6G6PtR6gvXP5M38KfQLqcqTsW/Q3J5UvYuQ5xl+ijxx67zPETq+ky/sh6oY9mPVePlL/alFyuUl2LnkGrM1MS4OLUwbVKF96VT3UiyloBwSNUFdxFrBG3MvtNmVomgVLKr91fuWDC0dDewy492tfyh2yZkjhqdlaaX1X7pcld+FYmWBVEJ1ogRV4U9CTqP4nGmwEbK2rVosVPf6G6PtR6gvXP5M38KfQLqcqTsW/Q3J5UvYuQ5xl+ijxx67zPETq+ky/sh6oY9mPVeULVqrhnziUvzgdGWbKFUbRUxxq2+n/wCY1bfT/wDMatvp/wDmNW30/wDzGrb6f/mNW30//Matvp/+Y1bfT/8AMatvp/8AmNW30/8AzCoRNKi5Uw3/AD6BXH3BabTKRrREjbCV6cYO6H6Qk8FS0I4cdXG2Er04xthK9OMbYSvTjG2Er04xthK9OMbYSvTjFiVmWXjRK0BxCvXR9qPUF65/Jm/hT6BdTlSdi36G5PKl7FyHOMv0UeOPXeZ4idX0mX9kPVDHsx6r2KLmC4KEKzBVRU/2nI2Mz0aRsZno0jCTLcqy39oxFEhHJdqWdbXIQCKosbGZ6NI2Mz0aRsZno0hXRbllaT69kaRilmejSNjM9GkXRIZdpCSWcVFQE+ysTxCqiSS5qipxfLZ5VL9sPoZLkz/xNXro+1HqC9c/kzfwp9AupypOxb9DcnlS9i5DnGX6KPHHrvM8ROr6TL+yHqhj2Y9V4+Uv9qUXK5SXYuX28PTWfMV+1XTe+lIukUo5gaAGGMPqnXrsw6zJum42QtqSuPLpKlTVY1SqQ62bqNedZoITZPGNSx4ySuOJ+Vl1eeUiAGUVy2VSTHjJffli6kqsq5KtlLk40LijvUXUqsN8VL10uSu/CsTLAqiE60QIq8KeWzyqX7YYdNiTZNlsyHZC21ou9Z/OEEkOwTIuiQgRYlruImLJGBue0MwdhDVScsgiLkx0Xqi3OtlLmhWVCilVf3aaqAdwi2TKyiYMrVres0rXgiVRpHHEfJRrgy0tN/Fi98YETK3kRcGVlV3kKlFhHRIjqJEIoC1WmXFFzXhEhQ5R5aElN1q9dH2o9QXrn8mb+FPoF1OVJ2Lfobk8qXsXIc4y/RR449d5niJ1fSZf2Q9UMezHqvKFq1Vwz5xKX5xcrlJdi5fwcy0Dzf2TG0kFKMCEu2uRBDEmPeg2mZdpts9UIgiIsYJmXZbbrasCCIld+MIrYYT7VnHHnWwPEqaYaxRL10uSu/Cvlk9MLZaHVLStIYcYMXQWal6EK1/1hh9oJB01J0yFy2FjGvGr+Eeallmx0MDVRIU0yV31yY4BWmSmxVkANAJEJCHjUxe+Jeacl0ttOKSMCSWrKpTLktQ1MGzYtTOFIKpUEsWccIeCUk0WZ4lTUqNKw027KzRKyVcKs4uDXeVAtfhSJh5WUTRolbCqeZXc/wCeGLli62rRjJuooqqb7W9euj7UeoL1z+TN/Cn0C6nKk7Fv0NyeVL2LkOcZfoo8ceu8zxE6vpMv7IeqGPZj1XsUXK5SXYueQ69PtC69hTG0aVVui4rO9BE04j6JJjQyoVrTp7lhw5ZqZUG3lBBTA4NURd2q2ocf0SVgJzA4KyNFGqJvV3YmLTpuVmHNVTFj4Ev3S5K78KxPEKqJJLmqKnF8iRaQzbFx+yVgrKqmDNfyjX5rOCh8JZx9x0xsoJzBWce/DLhzBuOrMsVEVoGuj9/oZLkz/wATV66PtR6gvXP5M38KfQLqcqTsW/Q3J5UvYuQ5xl+ijxx67zPETq+gKD07LNmOUSeFFSNsJTpxjbCU6cY2wlOnGNsJTpxjbCU6cY2wlOnGNsJTpxjbCU6cYYEroyiKjY1RXx3vXDKFPSqKgJVFeGHZeaUQFC0jzZWwJNyCIVqizD6oqe1KLmE4SCKTBVVV/wBpyNks9IkbJZ6RI2Sz0iQRuPAilqrEyooXrRFosadxjUWMTtNLvQrxPN2lWqpojSkvCNaLBDhmaE5hV879bfhxWphtMIVovPVSv34o2Sz0iRslnpEi6IjMNKSyziIiGn2ViZYFUQnWiBFXhTyLm8pXsnL+Dtk3phJCClUUSRUy4sqRtrN8xnuRtrN8xnuRtrN8xnuRtrN8xnuQRndOZRUdcDEDX1TUfscEbazfMZ7kbazfMZ7kbazfMZ7kC+/NvTJCBANtASiLSupFPspeuj7UeoL1z+TN/Cn0C6nKk7Fv0NyeVL2LkOcZfoo8ceu8zxE6voE3yk+v0Mv7IeqGPZj1Q7OTA6JfMq1cxoPAiQoIVqrhnziUvzijoCabypWNjtcxI2O1zEjY7XMSNjtcxI2O1zEjY7XMSNjtcxI2O1zEjY7XMSNjtcxI2O1zE8m5vKV7Jz0B8pf7UvKuj7UeoL1z+TN/Cn0C6nKk7Fv0NyeVL2LkOcZfoo8ceu8zxE6voE3yk+v0Mv7IeqGPZj1XlRk0bPcJRtRsxrN/8oRHjRw90kGzCoyaNnuEo2o2Y1m/+UIjxo4e6SDZhUZNGz3CUbUbMazf/KER40cPdJBswqMmjZ7hKNqNmNZv/lCI8aOHukg2YVGTRs9wlG1BtlPAKGKiqixRU9Wm8i5vKV7Jz0B8pf7UvKuj7UeoL1z+TN/Cn0C6nKk7Fv0NyeVL2LkOcZfoo8ceu8zxE6voE3yk+v0Mv7IeqGPZj1fQ7m8pXsnPQHyl/tS8q6PtR6ggXgkJNwXEtoWAHHXdyRJutMttuOS7dshGilpd1byqUhKqq5VwIwqyssywq5VbbQa3lUpCVVVyrgRhVlZZlhVyq22g1vKpSEqqrlXAjCrKyzLCrlVttBreVSkJVVXKuBGFWVlmWFXKrbaDW8qlISqquVcCMKsrLMsKuVW20GsXU5UnYtwaJiRJmYROmP0FyeVL2LkOcZfoo8ceu8zxE6voE3yk+v0Mv7IeqGPZj1fQ7m8pXsnPQHyl/tS8q6PtR6gi5vJWvhSLn8mb+FIl5cJlyXBWXDJW0Gqqign1kX7SxtpOc1nuRtpOc1nuQpFdWcRESq6VnuQL2GnNClkVCaVym/YwX5xodLpXUwu8solPvwVKQoNXXnq0qlWm0Qk/dXB4/dC4C686ultCqtAKEnAuDx+6CcK602lhtHD0reJFx/s4s/pedUqiNEbbXLk/04RlLrz9pSsouACyq71rB0jbSc5rPcjbSc5rPcjbSc5rPcidZdeN/AvIIkaJWlgC3ETdWLqcqTsW4IBWtXDc5xKX5+guTypexchzjL9FHjj13meInV9Am+Un6GX9kPVDHsx6vodzeUr2TnluTItYbB4yFFppd1YcYlmTsCTjpuFipacVUT8fKuj7UeoIaYa1toEAfUkXP5M38KRK8le+Jq+40WQxUYCXSS86FBwymODpv5bX4RMLkByXRu1w44lQelsCMoK1O0KoelppcdfvpEgmh1aFlqttSGh6SiUx8O7SJnCC6jmhAbBAmFFFJBXKiLRffBTbYWtbSzaypSi++GTebmDJuYQlIn0Rux+6KLj/AIkr5F1eUj2LcXU5UnYtxpVreFpV05IqonqgxLCEQUtI20RqlfUkKbQzJCm7oR3uwahh0QEVSIpZwUSnCqQADhgU9ThJc20X3kl65PKl7FyHOMv0UeOPXeZ4idX0Cb5SfoZf2Q9UMezHq+h3N5SvZOeWoklUXKkG1L1W2akqr5V0faj1BAOtFabMUIV30i5/Jm/hSJXkr3xNXkVHAopWdVu70LLhMslMJlbRxLX3RgBnJdX60waOpar6oWXCZZKYTK2jiWvugbLgEh6nHlgWynJRhETSirojijCC82rdaWrWKFl25pgn0yto4lr7oJhuZZJ8craOJaT3QCo4FDxDpssIbZIYrkVFvXV5SPYtxdTlSdi3DnKpjtjvSgtzDkuuCc0zaDX6u+ixPC4+5MLZb0zlmu7vIkN+sviWLpcZ/wDOJZZuZZNpuhoDbCgqruY1Jb1yeVL2LkOcZbz4OuPoDcu0Qo2+beNScrqV4EhFwk3i/wC8d715FcJ5Kfs3zb+FYRcJN4v+8d715FcJ5Kfs3zb+FYRcJN4v+8d715FcJ5Kfs3zb+FYRcJN4v+8d715FcJ5Kfs3zb+FYRcJN4v8AvHe9eRXCeSn7N82/hWGnGXplLK40KYM0JKLioS+++PHHrvM8ROryXHH3XcHZFAFt8wplrkX1Qioc1ix45x1f7ryE4TyUxebfMOpYRUOaxY8c46v915CcJ5KYvNvmHUsIqHNYseOcdX+68hOE8lMXm3zDqWEVDmsWPHOOr/dBYNKWitL64QnCeSmLzb5h1LCKhzWLHjnHV/uhTdWg4k/GnlS/sh6oY9mPV9Dubyleyc8gQcwimqVo2yR9SRbaWqZMaUVPWkDbWlorKeu8SKrtBKypYA7KfxUp5V0faj1BFzeStfCkXP5M38KRK8le+Jq8yeEmFHR6lgbA2US0uPU1/GJInG3kRl+pNBKWW2sRbtKr60WkSy4NxP10nKECoqDUsqbkSKm28OCf0zQSthtvEW6uX1otIkBcYm6sK5bpKOrStf3Yud5pxKTJEqKCoqJpssYFB8y6qTBLwji7sCP62RDNkeCKXo0iVXHas7370SCuA8OCdW00MrYbaxLu0qvrRaRc0zcmCRHSVWiAaBiL92v4xLsqU0Qo35wH5ewjfqWylfxvXV5SPYtxdTlSdi3BAK1q4bnOJS/OEWbmGpdFyYQ0GsYSVebfD7TZWk8kRUkRSyJvxcnlS9i5DnGW8TqJpyRBVeBK/NYlGpUmwN96xacC0iaQiyVT7MbMk8zLxI2ZJ5mXiRsyTzMvEjZknmZeJGzJPMy8SNmSeZl4kbMk8zLxI2ZJ5mXiRsyTzMvEjZknmZeJGzJPMy8SNmSeZl4kbMk8zLxIflptxp2w024hNtKGqU0+0v2YSq5cl8eOPXeZ4idX0M+OHxp5Uv7IeqGPZj1QmhXG213cI3b/ADSNlSual4kJaxruwmhXG213cI3b/NI2VK5qXiQlrGu7CaFcbbXdwjdv80jZUrmpeJCWsa7sJoVxttd3CN2/zSNlSual4kJaxruwmhXG213cI3b/ADSNlSual4kJaxruw0xTEbRnX1KPev3N5SvZOeQKzT7bCKwtFcOzXHEy/YbclnXARCcOy2uLVLwdcOYXQxsBONkii3ZbRFRMaIuRIbcBJZp1JpBLKb2WmmL6qcETTf6TsO4RyktVvGtrJSlrHEwhjLNzDbaKmEqbmT6ifV9aQJoUvMPEQ6Qqi+OTUruj+EVemZZudR7U4BcNSu/ayU4KX7o+1HqCGmGtbaBAH1JFz+TN/CkDoqXafs6nCAhUja+U6AflG18p0A/KNr5ToB+UbXynQD8o2vlOgH5RtfKdAPyja+U6AflBEkhLVLLVpFja+U6AflG18p0A/KNr5ToB+UbXynQD8o2vlOgH5QoSzLbIKtaANmLqcqTsW40q1iTWVbbdOw5iccUE3OBYnX7IMTRPNtONYWiAlctqm7XLSCZedRps3GxVAmzdMEVcemJEVKw+03NuGDcywNCdVbNcqV+cTbbDlpFmwaxvKCClhMVpK2ccEzhm0LCpRnR5qq4tThKWoucpaKA2jcFRdfqqLTJVF00XJ5UvYuQ5xlvGwmrABNfUte6sXK5UXYuXkcdQiStKCmOMLMvNstfaMrKQBvzLLYOagicREL1RgmWHZp1EqQtWcSeslRI0Q66LDSLQldWzZXeWEddmGgaJKoZGiIqRLso+ClMCpN0NNMkGazbCA3S2WFSg+uGqLhBdEiEgxpRErEurr7bKzCIrYuGgqsIyTzaOrkC1jX3XpvkrHxOxcvlS9i5fHjj13meInV5M4lcWCa/u9MoOpaHEtPx8qX9kPVDHsx6oaYpiNozr6lHvenlVpi0O9j/ibv3N5SvZOemuj7UeoIB1orTZihCu+kXP5M38KRLy4TLkuCsuGStoNVVFBPrIv2ljbSc5rPcjbSc5rPchSK6s4iIlV0rPcgXsNOaFLIqE0rlN+xgvzjQ6XSuphd5ZRKffgqUhQauvPVpVKtNohJ+6uDx+6FwF151dLaFVaAUJOBcHj90E4V1ptLDaOHpW8SLj/ZxZ/S86pVEaI22uXJ/pwjKXXn7SlZRcAFlV3rWDpG2k5zWe5G2k5zWe5G2k5zWe5E6y68b+BeQRI0StLAFuIm6sXU5UnYtwuDFrAaJmLSqS2teOHSNuXqKLgFqtffixQpLLyZTJ6U6qtFDerSEYl5WTCTJPOig0x7ulpSJ4dDymhnURG2UTS4t9KRgQk5GpLQ2v9Oz90BKjJyWgcpgo7vANKQoLKyaNM45YU3F3NzF7ouXUWdE6KWiWls6y5GlRrBV06qS1rwJSJZZaoTeFVJdGCVSId2qfdEyt2RAJnQ7Op3rTmXhi5XKi7Fy8uBJtppluz55lTQlLLTTJuRKrOg44MpbZVW2iWuSySJjXJijRByryS7rNgBGXUlTGtaimSsPG5LvCy/ZIcGyp2KJSyqDWJScflXUZbU0sINskrkKyn/zHEq5gCBvDPOCijqUVMXqiXttOImEmB1tcVSxe6LkuvMOK2yCoYC2pEJLu2cu/98AYsGAEUwQjZyIqYvVCjMnPNi8w2KCzLiaLpaWVqK099Im1USootohFu0TfvTfJWPidiXNVpgHLacOlIf7r48ceu8zxE6vJmH1VLLgAKJ6q/OE0XMssKWTCOIMbYSnTjG2Ep04xthKdOMbYSnTjG2Ep04xthKdOMbYSnTjG2Ep04xthKdOMbYSnTjG2Ep04wgMzss4ZZBF4VVYU3VoOJPxp5Uv7IeqGPZj1RKrTFod7H/E3BKxIzLoCZBaSxRaLRcpb6RtZN/e3342sm/vb78bWTf3t9+NrJv72+/G1k397ffjayb+9vvxtZN/e3342sm/vb78bWTf3t9+NrJv72+/G1k397ffjayb+9vvw489c6aFtsVIl83iRP4vIubyleyc8hXHjFsEykS0j9RlHHR/aOebD8cf4Rp5iWY4AaU/xVU6o010phOI22n9sYrpzXvFruR5ueAvay9epUjzsoL478u5j5pU64UAJRdHVNmlkk9y37o+1HqCLm8la+FIufyZv4UiV5K98TV9xoshiowEukl50KDhlMcHTfy2vwiYXIDkujdrhxxKg9LYEZQVqdoVQ9LTS46/fSJBNDq0LLVbakND0lEpj4d2kTOEF1HNCA2CBMKKKSCuVEWi++Cm2wta2lm1lSlF98Mm83MGTcwhKRPojdj90UXH/ABJXyLq8pHsW4upypOxbggFa1cNznEpfn6C5PKl7FyHOMsVgnUTTkiCq8CV+axcrlRdi56ab5Kx8TsJVcuS+PHHrvM8ROryh5KXxJ6ST5UH5wfHD408qX9kPVDHsx6ry8pmO2P0t0uSu/CsNMUxG0Z19Sj3r9zeUr2Tl83SRVs7ibvBAzF0aPzWVE+q1xfn5aJMBVRxiSYiFeBYOUmywhilptz9oHDw3ro+1HqCGmGtbaBAH1JFz+TN/CkSvJXviavo0cw0LpLRAU0qqwDLr7QPHqAI0RS9SQbazDSvAlVawooX4rAMuvtC65qWyNKl7oRhiclKjiQAdHF7oMWH23CDVoJotmDJmaYcFvVqLiLZ9cEqkiqIW6WkTF74UUAsWVaji/G/dXlI9i3F1OVJ2LcaVa+guTypexchzjLeNhNWACa+pa91YBHrekK0Kg4oKi0VMqY8irGuzmfPd6NdnM+e70a7OZ893o12cz57vRrs5nz3ejXZzPnu9GuzmfPd6NdnM+e70a7OZ893o12cz57vRrs5nz3ejXZzPnu9GuzmfPd6DNrCKZoiErjxOLRK01S8Kxc1wkJUGZXUCpLrTm4mONbnMxe7sa3OZi93YTzc3qh/8k7v8WNbnMxe7sNJYmsQJkk3e7GtzeZO92Nbm8yd7sa3N5k73Yao0Tsq4OMTZNokXgtZYmH2baNk00qIaU3SgeSl8SXmpVZ0JIyFXLZO2MmRPviT0ATaHMNqdoxtiNMuJFTd4Y0M0su2822huEoKQrXJTGm9CuTTE48xYSzoN5UsLu1RFRV/GJVlh4njJq0r6yZuVx01A5IZbZEGDJpTLCtFuLTJVMsWmxRCSWNx1KrpVTcxcNYNJRWRBmyhI4KqprSuWuLLvLBYICJoXcHYSUcVVx0VbepvSfKg/OCw4qTaaZURFVcWPcxxrc3mTvdjW5vMne7GtzeZO92Nbm8yd7sa3N5k73YYFW5vE2OSSeXc4sSTsu2RAiILgusGFcW4SpwQ0jDZgJNmRW03UUcnOheUzHbHDTDkykphyphFcsUTdxxK6HcbdmHHMDhNUNUrVcuPJDUral9EHaLCYNVGyn7teHfhkbpFM6wqqkmr1K1y6T84ty5OuMvvWZUnAN0rNMtNUu7DYACYQn8HbclzaRUsqtbJY9yNC+a0XhcHbsrY1Nqtmv4VgkOyJtO2HXkYJwUSla2EWv4wiy77NopR08K0SqOKmTHBNsExaYbFXCIF06qmRMeL8YdckxaQG2RdsGKqpVStMsOWKYARGi7tVSvVSLpcld+FYlXDFxRwDo+bbI91vejUTWZu92NRNZm73YkUZbf0jykSnLmCImDNN1OG+hNDhHBfZUR31wo4oF5grQF6BsWsbbUu6NvfK03VPdivXR9qPUEA60VpsxQhXfSLn8mb+FIleSvfE1fuxLgw4b76oIkLaqmoSlSyJ74m2pl6f8+SKgsMCQmlE+sorT3qkXYFANVNVsYsZaRImG5qWdeJ5xCCjKkipRN3IlOGLpkorZWWSi+4ollk5IqMSpCQOM0Faoml/e90TR0mn7ciQoqyuDSv2RGlfvhwGm5i0cg4AocuYWi3kqkTKkKiio3SqZdLfurykexbi6nKk7FuHOVTHbH6C5PKl7FyHOMt6c5Kx8TsSjUqTYG+9YtOBaRNIRZKp9mNmSeZl4kbMk8zLxI2ZJ5mXiRsyTzMvEjZknmZeJGzJPMy8SNmSeZl4kbMk8zLxI2ZJ5mXiRsyTzMvEjZknmZeJGzJPMy8SNmSeZl4kPy02407YabcQm2lDVKafaX7MS5qtMA5bTh0pD/dfHjj13meInV5Azcw0jrwjZG3jRPdEw+qpZcABRPVX5wPJS+JLzr9VU3aJj3ESFVl11g8IpiQWajXKmNMkCTc1MNuoNknEUVI04aosW5abmJYlREOwolb4VtIuOG9DOuypt1RDbpVa5a2kWAdtuGYhYqRVrjieorn65q8ep9UWmph9i0iYRG1RLf4VT3UhTbmZhtsitkyKpZVfur+N6T5UH5wpurQcSfjTypf2Q9USRTbeFwQIoiupyJuRKWRoKSzqYtzTNwvKZjtjjRCqqnYsIm4iQ6QkbZuEh2hppSTFVMUD+tzGHFao/UbXVT8IFzCOOGgWKmVa46w5gzcatOYUbKp5s98YlRCYmHCR+2bykNodKvBT8IphXcNbwmHxW7WSuSmTgijc1MNu2rRPCo2iXhxU/CKKRr5swVa5beVfXCUmpgCsIDhDZq4nDi6qQ44wBFUBHBjTIOSkC3SiqqkqVrSu5+UXS5K78K+WzyqX7YYJ+Qd0K+WMsVQPjJFJ2SNU/aS/nE+7VfhFnRbbZ/ZcWwX3LHmzEvUsY1pHnpthvjOokfqUvMTS74t2R5xUSP111Jdn9iwuNfWfyi57bII22Mq8iCm5pmr10faj1BFzeStfCkXP5M38KQOipdp+zqcICFSNr5ToB+UbXynQD8oJdAS2P/aRY2vlOgH5RtfKdAPyja+U6AflFNASuP8A2RSKaAlcX+yKxtfKdAPyhF0BLYv9pI2vlOgH5RtfKdAPyja+U6AflChLMtsgq1oA2YupypOxbggFa1cNznEpfn6C5PKl7FyHOMt4nUTTkiCq8CV+axcrlRdi5e0JpsJZrWmL1euFVXAohWV02Rd6CVHRVAewJKhJpV4eCEfadF9slsjgltWl3khWXWHZV6lpBds40/hVUhxWplk8FrllxFs+uH3kmWnBY1yw4i04IaQJhpVd1tLaab1RMOtPA+kuiq4jZISpSHrZYIWURTI1oiVhH9Es4BcjmESz98IQLaFcipE3yVj4nYSq5cl8eOPXeZ4idXlA+Eq7MhgVBcGo4lqn2lSNq5znM9+Nq5znM9+Nq5znM9+Nq5znM9+Nq5znM9+Nq5znM9+Nq5znM9+Nq5znM9+Nq5znM9+Nq5znM9+Nq5znM9+JYUkJhlAeEyIyboie4oPjh8aeVL+yHqhj2Y9V42pibYacSYfqJGiKnnSjbCW6VI2wlulSNsJbpUjbCW6VI2wlulSNsJbpUjbCW6VI2wlulSNsJbpUjbCW6VI2wlulSNsJbpUifbanZczOWcEURxMa2VhpimI2jOvqUe95TPKpfthv0MUJN5UjzkhKl62RjFc6TT/0BjzDLbXFFEvyXJn/AImr10faj1BDTDWttAgD6ki5/Jm/hSJeXCZclwVlwyVtBqqooJ9ZF+0sbaTnNZ7kbaTnNZ7kKRXVnEREqulZ7kC9hpzQpZFQmlcpv2MF+caHS6V1MLvLKJT78FSkKDV156tKpVptEJP3VweP3QuAuvOrpbQqrQChJwLg8fugnCutNpYbRw9K3iRcf7OLP6XnVKojRG21y5P9OEZS68/aUrKLgAsqu9awdI20nOaz3I20nOaz3I20nOaz3InWXXjfwLyCJGiVpYAtxE3Vi6nKk7FuFF08K/8Asm8awLjpstv2LbjQuoWDTcr7o0RotjQ9aYTCpZr64abKYaFx3WxU0qXq34dbGYaJxrXBQ0qPr3o0RotjQ9aYTCJZ++GmymGhcd1sVNKl6t+HWxmGica1wUNKj696LlzKTTKy6TS1dwiWdac3YwZPtI46VWxU0qXqhxsX2lNrXBQ0qPrg1SbZwYIKq5hEs467v8KxclRWqLMrj/8ARchVxrTehJy20riO6IwOALCcWtrexZImWEl31NyaB0aNLSzUcdcn5wrasmtLoC5ra0s78PTCNGQtTeEsoOqTB0qm/EwzJsvCitEiOOgTWm3qKlYVJWVebwUo42SE0o7mIU3/AHYoNGml2vIMQ7u9F0VYA2yelgFsiFQ3F34VJWVebwUo42SE0o7mIU3/AHYoNwcO22BskSthaKiAqYkVFrRYl3A0W8hTdsimGkD6ipWiIlPel6b5Kx8TsXL5UvYuXx449d5niJ1eTOJXFgmv7vTKDqWhxLT8fKl/ZD1Qx7MeqGmKYjaM6+pR73p5VaYtDvY/4m/KZ5VL9sPoZLkz/wATV66PtR6ggHWitNmKEK76Rc/kzfwpEryV74mr7jRZDFRgJdJLzoUHDKY4Om/ltfhEwuQHJdG7XDjiVB6WwIygrU7Qqh6Wmlx1++kSCaHVoWWq21IaHpKJTHw7tImcILqOaEBsECYUUUkFcqItF98FNtha1tLNrKlKL74ZN5uYMm5hCUifRG7H7oouP+JK+RdXlI9i3F1OVJ2LcODPMC5+tTFCyEnnj3YalkcJ1GksiR5abkOS9nUgJ19dflEwUrLtHgDUSwjyjkTirAupKSyKSIopoosnMjRTkowKFZwYpMKtarTHpMUAzOy7TWErYVp5Tyb9RS9cnlS9i5DnGW9OclY+J2LlcqLsXPTTfJWPidiXNVpgHLacOlIf7r48ceu8zxE6vJmH1VLLgAKJ6q/P0ym6tBxJ+NPKl/ZD1Qx7MeqJVaYtDvY/4m/orPKpfth9DJcmf+Jq9dH2o9QRc3krXwpFz+TN/CkSvJXviavmTE0w6LerUXEWz64V1J6WVoVop4YaJBPpOS6sitFcwqWUX1whvTDQNklUIjREVIbbZJtEUagI73BDZuTLIC4tAVXES16oFl6ZZbdLUgTiIq+6DVXARG9XptTBCgKSiVnEQ5aV3791eUj2LcXU5UnYtwQCtauG5ziUvzvG7OyrMw3ghQFcBCx1WsTzLTItAZkrQjREoqQyBpQhbRF+6GpUgXCaRCRCp9ZK44woYUnKUtOvG5TnKt65PKl7FyHOMt4nUTTkiCq8CV+awCPW9IVoVBxQVFoqZUx5FWNdnM+e70a7OZ893o12cz57vRrs5nz3ejXZzPnu9GuzmfPd6NdnM+e70a7OZ893o12cz57vRrs5nz3ejXZzPnu9GuzmfPd6NdnM+e70GbWEUzREJXHicWiVpql4VhKrlyXx449d5niJ1fQz44fGnlS/sh6oY9mPVeUCtIi/ZJRX70jVzWeO96LAKap++amv3rCgVpEX7JKK/ekauazx3vRYBTVP3zU1+9YUCtIi/ZJRX70jVzWeO96LAKap++amv3rCgVpEX7JKK/ekauazx3vRYBTVP3zU1+9YUCtIi/ZJRX70jVzWeO96LAKap++amv3r5S4JLTjZA4I76iSFT8IF6XK0BegttY25ZsmrW+RKlfuspeuj7UeoIaYa1toEAfUkXP5M38KRK8le+Jq8/g2kfKwtGySqFEyf6y9bkTFFKVwSV+yI0r98PGhTTyaHsqcwxg1RfsppR6ouY+806bbTNkkFtSUComOymOJRx+XcQVw5gKNqRAiqn1UiVEWzbBxHqr+zAjRaeukNMYGYacwZCKtS9vdXSLixJ93riYZRl1rEPmmJauExJjU1qi+6ixdZs2pirpoQqMu4SKlkd1EpuQboAatnNtmJWco4PLfurykexbi6nKk7FuMIgG/p0BBbpWtabqpCMvSr8qZJUcJZ03NVYcCXmGnTb1aAaKo+uDNiZZcANWouIqD64MmH2nRBaEoGi2YwrMyy41WlsXEVK+uCfbmmSYHVOI4llPfGiNENaH/a20s/fFx3GTFwCmVoQrVF8y5DnGW9SWMGz3zC2nWkbLk80LxIFHiEz3VEbKRSWMGz3zC2nWkbLk80LxIFHiEz3VEbKRSWMGz3zC2nWkbLk80LxIFHiEz3VEbKRSWMGz3zC2nWkbLk80LxIFHiEz3VEbKRSWMGz3zC2nWkbLk80LxIFHiEz3VEbKRSWMGz3zC2nWkSzk3MsGDBqaC2woVWyo/aX7V8eOPXeZ4idXkm9KzDQIYiii4yp5K/vJvwuinmXE3MGyof3LeWk1K05KXiQuinmXE3MGyof3LeWk1K05KXiQuinmXE3MGyof3LeWk1K05KXiQuinmXE3MGyof3LeWk1K05KXiQuinmXE3MGyof3LCg6locS0/Hypf2Q9UMezHq+jk9IO6GeLGWKoH6x+WOKT0mftJfzg/dqvwimi2gL7Li2F+5Y82Yl6ljGtI89NsN8Z1Ej9TZfml/cbonOKiRSacSWZ3WmFxr6z+UC2yKAApRBTcvXR9qPUEA60VpsxQhXfSLn8mb+FIHRUu0/Z1OEBCpG18p0A/KNr5ToB+UbXynQD8o2vlOgH5RtfKdAPyhC0BLVT/aSNr5ToB+UbXynQD8o2vlOgH5RTQErj/2RSKaAlcX+yKxtfKdAPyja+U6AflChLMtsgq1oA2YupypOxbiw0pgv6Qd0wIlR/WCx44dBx1+aVxghl31FEwS7qLZRPvgUdW6LmDZUFbcYFsRxZEWyNfcsTqEjkzLoxS0/K4JziZEr90OOSku4jYtgJiTSt26FWzjy4oedYl3cEWBFbbSipUOupVNxInTMJgQ80Qmy3aWqbqJu/jDLzhPADb6qrrMrZcLS6pW1ReqLmqhTB250iq+CCq+Zc3ERKfdDnGX6KPHHrvM8ROr6TL+yHqhj2Y9X0mhihJvLGnk5cvW0kYpCVT/ANEY8y0DfFGnk3R9qPUEXN5K18KRKMusTguNsgJJoN3KicWNZnMye7sazOZk93Y1mczJ7uxrM5mT3djWZzMnu7GszmZPd2NZnMye7sazOZk93Y1mczJ7uxrM5mT3djWZzMnu7GszmZPd2NZnMye7sazOZk93Y1mczJ7uxPuWHAFyYqOEbUFVMGCZF9UEArWrhuc4lL875NvJaAsqeTcnlS9i5DiEYotrdWNcDnRrgc6NcDnRrgc6NcDnRrgc6NcDnRrgc6NcDnRrgc6NcDnRrgc6NcDnRrgc6NcDnRrgc6NcDnRrgc6NcDnRrgc6BQTFVtju8N5lFebRUBPrRrzfOjXm+dGvN86Neb50a83zo15vnRrzfOjXm+dGvN86Neb50a83zo15vnRrzfOjXm+dGvN86Neb50a83zo15vnRrzfOjXm+dGvN86Neb50a83zo15vnRL+yHqhkSafqIIi+ZL5Rrb/QH8o1t/oD+Ua2/wBAfyjW3+gP5Rrb/QH8o1t/oD+Ua2/0B/KNbf6A/lGtv9AfyjW3+gP5Rrb/AEB/KNbf6A/lGtv9AfyjW3+gP5Rrb/QH8o1t/oD+Ua2/0B/KNbf6A/lGtv8AQH8o1t/oD+Ua2/0B/KNbf6A/lGtv9AfyjW3+gP5Rrb/QH8o1t/oD+Ua2/wBAfyjW3+gP5Rrb/QH8o1t/oD+Ua2/0B/KNbf6A/lE+qiQ2nRVLQ0+xDTDWttAgD6khZXQWHoKLaw1n8oZlf0fgsIVLWHrT+W8sroLD0FFtYaz+UMyv6PwWEKlrD1p/LeWV0Fh6Ci2sNZ/KGZX9H4LCFS1h60/lvLK6Cw9BRbWGs/lDMr+j8FhCpaw9afy3lldBYegotrDWfyhmV/R+CwhUtYetP5byyugsPQUW1hrP5QzK/o/BYQqWsPWn8voZYpd0GXGHcIim3bRdKQ5Kp9qNmSeZl4kbMk8zLxI2ZJ5mXiRsyTzMvEjZknmZeJGzJPMy8SNmSeZl4kbMk8zLxI2ZJ5mXiRsyTzMvEjZknmZeJGzJPMy8SNmSeZl4kbMk8zLxI2ZJ5mXiRsyTzMvEjZknmZeJGzJPMy8SNmSeZl4kbMk8zLxI2ZJ5mXiRsyTzMvEjZknmZeJGzJPMy8SNmSeZl4kbMk8zLxI2ZJ5mXiRsyTzMvEjZknmZeJGzJPMy8SNmSeZl4kbMk8zLxI2ZJ5mXiRsyTzMvEjZknmZeJGzJPMy8SNmSeZl4kbMk8zLxI2ZJ5mXiRsyTzMvEjZknmZeJGzJPMy8SNmSeZl4kbMk8zLxI2ZJ5mXiRsyTzMvEjZknmZeJGzJPMy8SNmSeZl4kbMk8zLxI2ZJ5mXiRsyTzMvEjZknmZeJGzJPMy8SNmSeZl4kbMk8zLxI2ZJ5mXiRsyTzMvEjZknmZeJGzJPMy8SNmSeZl4kbMk8zLxI2ZJ5mXiRsyTzMvEjZknmZeJGzJPMy8SNmSeZl4kbMk8zLxI2ZJ5mXiRsyTzMvEjZknmZeJGzJPMy8SNmSeZl4kbMk8zLxI2ZJ5mXiRsyTzMvEjZknmZeJGzJPMy8SNmSeZl4kbMk8zLxI2ZJ5mXiRsyTzMvEhWnpyVsFlsyhIvaR//EACsQAQABAwIEBgMBAQEBAAAAAAERACExQVEQYXHwIDCBkaHBQLHx0VBg4f/aAAgBAQABPyGnKW+ALrH4ECBAgQIECBAgQIECBAFLmLvCwdfJj8cZeVx6VnTIU/FQAAAAAAAAAAAAAAAAAAAI4gESdVjh6Y/nGh71359135913591359135913591359135913591359135913591359135913591359135913591359135913591359135913590HFNWNJ2o6oSJV/VU/qqf1VP6qn9VT+qp/VU/qqf1VP6qn9VT+qp/VU/qqf1VP6qn9VT+qp/VU/qqf1VP6qn9VT+qp/VU/qqf1VP6qn9VT+qp/VU/qqDsBOZNBM+RAzlIJn7VYgiQzLg9eOfCQkfw9G8UCqS8SsESLpWmfiobwJ9PDKvEEZJNXXebE3UGOpQIFkSnO059J43CuhiMMa+PuG3x3S2rjTAdKzQt7pjngMlhLM/Yu1n+eDmjgbo8zumzyiArBCi9kTnhZTmR6r8EVCsUMobY8SgAgjlm/wAfinIHS99VaBape7KL/NNKAzUKQxNSGL5HEKMjSG1XqiLQYxKBIXIaQBDmm/q/D0bxGBg5QdUkn4qAzFqrizLgq65Oiovo3VmmbAgNxlV0zaoZsODYTo3bMqhSF4FO9rBVju2OCMXJNkoHo8x5tSoRMmCp7j2By/0xUijNvsZrgUEOD/BxDkVAZeWErpmiLMs3Cu6YgitkpvxIyMaLiFftF0/ToHa3hiW7jj3Db5F225txEtPEc6u3qWYVDGKT7uRVYxeuZvNEfqAuT36UVl7buJdBQrE6gkfeH2KCwAa9t/ZeHShb3YAMTQKiupHoGJsuk1eeCNmxKXmvbUenRAxEgazagcNrYGUNp8jumzyiOxZtRzmIq/7cUdY9kGNJpNcEBrKW5ObdadsQqnRcc7Fr0VH0/O2dWXQvHEo4ZTUvqoEkDhCXBrtplmoZRtGDYiSNmKxri5Mc/PQKSOIBQZN07Q4dbj87LgSwZ0tSGqM82yE7fqipCF9SwUZGkNqkKvMmyCBsfH4RyBc7QL/ZqxBEhmTD6VhFOBdcqDRIAN+5trTMYMJVltq/h6N4m6ios58US9iWG9xng3UVFnPiiXsSw3uM8G6ios58US9iWG9xng3UVFnPiiXsSw3uM8HnMWlPtTPzQ5Ncl04LoLeKAKJEIYnj3Db4Lh97gl/mjhqISQE3IfZofe4Jf5o4aiEkBNyH2aH3uCX+aOGohJATch9mh97gl/mjhqISQE3IfZofe4Jf5opKMiJZzqTRCSAm5D7ND73BL/NHDUQkgJuQ+z4u6bPKIHG8Apd5ivhIdwl0u0o3imEeFucqghkYnY0tpmoCfECG0UAq4ZP1UkGEEFnyrG0rk2+VMtIR8MM5aZPkhhd7U+Rv90SifVLgNl9CgNwwCvGWW7e3SsKrwLrlQAewMH/bOQNG8ULuG3wXIdonYAj4/hQbLQEEFfD3TZwIQKy0NiSs0AWrtoOP80AWrtoOP80AWrtoOP8ANAFq7aDj/NAFq7aDj/NAFq7aDj/NAFq7aDj/ADQBau2g4/zQBau2g4/zQBau2g4/0AgkzBqYejxOTzVki2sQ4QQrieYnkKx7tR2b5EXQ/ZwCFcTzE8hWPdqOzfIi6H7OAQrieYnkKx7tR2b5EXQ/ZwCFcTzE8hWPdqOzfIi6H7OAQrieYnkKx7tCZDTOiR8PO0bxRgOebmx2nzufPnz58+fPnz58+ZQcCApguz0qaTONpW8TuG3x3LAEUhWmhOXmqFChQoUKFChQoUPA76Bak44H2vzoATw902cCAQYHgBgCiXFcqYtIPARo0cZWUkvATUwHs9G0/XXq5FH0iaKhSMz+8eqKl97WHAOBzCoVKvLM0eEjRo0eTQqGVEsTHVolxXKmLSDwEaNGULrnIXSxmlQ8oRbJuIjNe0yaDOygWcZNKiGY25ZalYrbhaJvzOFrQZDvC9j/ADwo0aNHk0KhlRLEx1fCcOcNrCDNlxJMlJKYUVMEw0+cMYedlErfPQ7JNfHDzBFlbWwMgLo9aRMg1ivLEKmbNdDfF1aUOMDP+ieCTJkiUInw1fE840bxOteTsCVaK4sG5SPVpMvakkMFRZcWn0VALFxNF4ttD5kNqdlZcOJzfKo5ctnZOpoLoFr9CEk5KGvGUHVyKa4xzDqJxzrGcad5iM5mpURBgG+qgZRUkRP13p0Dw5WyjalewIOs3KACa81Avp83HuG3wXTFhIhC8dx4PVoriwblI9Wky9qSQwVFlxafRUAsXE0Xi20PmQ2p2Vlw4nN8qahhZqHM1FCC35HMML1irxqukiG1T6TlkjNjqUjMqwwYZvNukVK3n1KJQViHqjdE8i53TZwIFwG5wJJ8LCZmtkQyMtJFrVfcEgah4b0KUtx6t5uc1DEPlYysCTNmluIIeyU6CMQpAahQ0Vc7+U5YSY6HQCpeYDlpke7FIGAVm8tRtsh6p2cmiI0tBAAGI0PJqAGsjNomwtar7DWzpMuLaS+JyKthBkbz1fE4hl9bH4BcksStkkVF99mRAynOytLlqQsbn1KjGdCCdhuwcijLUcMAsroNzUwQhgjmuJaYVO9kpi+wLsoeVFwJXVVwLmZYW5+HJ0bxVp4piPaJu5HF6NEUkYJAEN0GsLsd+qJhEtSrQW5MemZlRD1EWJSYQ0NVFl8x02sSBwQ3qz1iL+rF8ul9IV0OOTore9DpgR3Mu0qU1TJbznU1vDrWwLES5ZysiaRXGGy7yCXdTYu+bBiPmaCB8Awu4bfBch2idgCPj4PU8UxHtE3cji9GiKSMEgCG6DWF2O/VEwiWpVoLcmPTMyoh6iLEpMIaGqpO7FsQyIXYYpuYFQkVy8wVIOrB7wGLtQWGOuMMjlJ6VJn87b0hNqaFzl4Ak2ZHOlxUReBEhcxrLjcg2WgIIK+HumzwEIGE5FFFGcLILaULF0qIcpb1AY3Wj1m32Upd4IDtJSbLBI0ZVNiW1jVlIwM1AInNvDCKjlXIicXMU1/4NelW9P6b0L4MyoJJyKL3Gi7Zq1sYzlodVid0sScXLCciiijOFkFtKFi6VEOUt6gMbrR6zb7KUu8EB2kpNlgkaMqmxLaxqykYGagETm3hhFRyrkROLmKa/wDBr0q3p/TehfBmVBJORRe40XbNWtjGctDqsTuliTg5UyMphFJ6jxOG4I0nNr41wJcGoiazJgPGmmWGw84NG8UQi2BGQ+etmkzjaVvE7ht/GuWerj7X50AJ4e6bOBAIMDwAwBV1OwBQhBvdOLth3spN3ts0EgT7EzmnUXJG8bKEGNWr0GIDKwSj6JSSYGT0M6xySlOdvYaoGXTQukPCfQxM4g3xUyj0QiigiA6WmGhYhXBxwiltmjW6CcQpMxsTUrSZwyJYIt6hpQ70BIphJGiOTAD2FMUUjR3U7AFCEG904u2Heyk3e2zQSBPsTOadRckbxsoQY1avQYgMrBKPolJJgZPQzrHJKU529hqgZdNC6Q8J9DEziDfFTKPRCKKCIDpaYaFiFcHHCKW2aNboJxCkzGxNStJnDIlgi3qGlDvQEimEkaI5MAPYUxRSPiM4cVhrbGoc5NpwQyWaY1goPSbcoMpXBzEsbZ+VQcSKmoJW+DFBvT0uUt7SirCsuTe0xyo4Yaf/ANMGjIGTmfTLac23o+oA5NwA2XUCwxfIXS5DYC9YefAsgBO+leziItcnTQ3jfyCzyC4UglQVTQ85o3iBbBfMONh5wkSJEiRIkSJEiRIkquU6hSlkyUAE15qBfT5uPcNvgumLCRCF47jiCPAmWANEeb9+/fv379+/fv37OLaYdIoGAePumzgQLgNzgSTQQ4gQxteu+/qu+/qu+/qu+/qu+/qu+/qnZeLAL8ta77+q77+q77+q77+qAP2B+5DQBAZ36VpRhAa4KCHECGNr1339V339V339V339V339V339U7LxYBflrXff1Xff1Xff1Xff1QB+wP3IaAIDO/StKMIDXBQq2EGRvPV8TiGX1sdD18EQAwQpw+i27AEyF+jzHr169evXr169eiNldYUQHaOf+Bo3ihdw2+C5DtE7AEfHiAikK00Jy81QoUKFChQoUKFCh4HfQLUnHBBstAQQV8PdNnEhBPy50Q6fBCCCMBrACt3Yu0TNmTFGpBONKL1ne/UzRgB5CL0H0aOcaE9InJlxaDUlzrXu7z4RBBBHMgBnDD0Kn5c6IdPghBBD4wJaOfgnW7KeukKC3JMI50zqsyShdJYvBVXKJgXEISzYLKMBCKVTkdI38IgggjmQAzhh6FKZGUwik9R4nDcEaTm1pw2sIM2XEkyZjxhsBWRdDeD1WPmxS+DODGk/KTFIlTMIMqR9Zoax5O12SMNboobNEXBQZyqfbpHSZw2e1MXY1Lov318EmTJsHMYxWmec0bxAwNsTOh5+cNGjRo0aNGjRo0aNnQx1LcdkVNJnG0reJ3Db5Nyz0ZZmQEhK06QvQrPgsCQCVGVoULAljd9VECLliChb5im8b+E8kY51oIQZMByy0qxvLHNY5s0/AWIGQpIs6aV8GkjIXK53UI7MY8Fx9r86AE8PdNnAgEGB4AYA8LA8NspANzZuVrkAMaRwIaFqdmN/7oLuDO7MyXKlNMiRKsWrh1pKYYAsKUV8vlOWB3SENTF2K3CSXD/CrHaWYxARWMWYNIjAowFpoKec3UhDC9b1JEaBIezx5pycOXK4jxOZFO6gSWjIDQ0hWBuk8S0+pQrk00EzZYvNlJU/mQVFGXNCk6LFGwgdxo2FDb9uywCc2mEoA7yNJ5ctcPAUAoKjTzmjeJ1rydgTg8B7bDMzGi0amogFgss39q6vjj0/vJp/TYnRCETbrTNX020EZZZySZp+zF4FwgR7FGuNSFCI7mTKUGS8hnGI6mLTTJucg87S+moKtrrzM40ipviSAFkQm5DU71fu9EQ+nBaAE15qBfT5uPcNvgumLCRCF47jw+kwzKLBi9/dRJPc6hreTK1FTFXZcEAc52IKFLstIZG0wvTQhouAyypJvJTF281UFzdkBcNqkNtqP2io3jih0jopkCR8TEH7hRaFeCs4Nhp5Jc7ps4EC4Dc4Ek+Bg3EHdkHDc3p/u9+9pW3onmMOOBW1XKKW3llj2KByhLdwEjzRV8lIxK+xUSD/AOaf+8mgigG8CZ1S7WhG4rwgZOfjcsG4g7sg4bm9P93v3tK29E8xhxwK2q5RS28ssexQOUJbuAkeaKvkpGJX2KiQf/NP/eTQRQDeBM6pdrQjcV4QMnPwORVsIMjeer4nEMvrY/CLh08sDUBgGTLSuPxB0JPRqA3i/wBn1YqTE9OWrY2qQ1AgbIzigBJsATDPUfiydG8VYFhK0zgl0VIBhcLuTn3adel8Vdmk/YWrBUyN3P4U07/UpBGslWnMYeCjoE0TwRNAuTW11WJFV84szJLSj8xjxAyTcsVR6ZxASqBNQwQE3Gob9ErVykDlOnXwrYXcNvguQ7ROwBHx/C9XINloCCCvh7ps4kIFgPQCycHZx/8A+VO8V2tqkZtNXlbSzkRSPVaHpCjGdDPNmjADI+T+yovlDJ1iAPMU8MAhbUSGKAT7O1fZ6KY9sAZFf3VetKDOfJeP/wD3fI/SgodyKWA9ALJwdnH/AP5U7xXa2qRm01eVtLORFI9VoekKMZ0M82aMAMj5P7Ki+UMnWIA8xTwwCFtRIYoBPs7V9nopj2wBkV/dV60oM58l4/8A/d8j9KCh3IpTIymEUnqPE4bgjSc2vhXYDclioSsJYoHg8cosuNZaq1qUGSoEiTq9Iow2opYHfGIhbCmMrv5ympii/CiTQCwjQUpGDf1uJCS3Q8CaZYbDzg0bxRCLYEZD562aTONpW8TuG3x3LAR4EywBojzfv379+/fv379+/ZxbTDpFAwDg+1+dACeHumzgQCDA8AMAUgyx1a5T3rlPeuU965T3rObE3jaa5T3rlPeuU965T3ooccUYGG+tcp71ynvXKe9ZxcpBljq1ynvXKe9cp71ynvWc2JvG01ynvXKe9cp71ynvRQ44owMN9a5T3rlPeuU96zi54Th2oq6kZifTzoECBAgQIECBAgQIEFCucXLHHQQYLJeQH7ppODEzuE2rSW9TSmE+00niEmgExNDKlS5xTQRATcfFvEposixgA87t27du3bt27du3btL82HU2shQATXmoF9Pm49w2+C6YsJEIXjuOICKQrTQnLzVChQoUKFChQoUKHgd9AtSceN3TZwIFwG5wJJoGKjr5liSu+/qu+/qu+/qu+/qnNpCAk2tqfCjtRTmszRSuiSE6ABPWUkagpa7FhNAsKExyTtXff1Xff1Xff1Xff1QEVbgEYFAxUdfMsSV339V339V339Ut28negR+NHabKAgICDFC9JSJYMB1lLsXCF1En9Kx/qCgx4ZYaGCxGMGcXurvv6rvv6rvv6rvv6oCKtwCMChVsIMjeer4nEMvrY6HDawgzZecSZMmTJkyZMmTJkybVAuZojEy8dGVtohkkbiDUq20Faq2RUzMGLQJRRIwwRsuP5otldQm9XKUP8EA0PFvFYYnUwhG/Tzho0aNGjRo0aNGjRs6GOpbjsjwQu4bfBch2idgCPj4fToHgPC2hdHIULNzF+Uj4oa7T1IcilIIGEZK9FAJygyWJgnFthQhBlwHPLWkZsSlHoNRo810JIkzrtTiigR6g2q6UYgydTwXINloCCCvh7ps8ghAwsSZRiU0eVP8AQAF0dU3L+7VvmbjMSG1sxNTjRhhYRzupgFanMBHlOWApQ+AClwlaxnWdYlirTC2KEWhlzqZZgYBmDtgtSaoBKKUCUaJZYpiQiARkL4jlTIymEUnqPE4bgjSc2vBdBEhfQYJCSw0Vt0ycaPdkKeOGqwxleqBFGVQl+8t9WKjeDDLsBELrNQXys0KjTrThAhd6gINwir+IXkYzJBIjWjESaVWIBB3JrDju9pmND0o0H+R4sSzypOAx/wDZJhhvirH8mEsD+kpNMsNhwDREyGZm7BAK0Yg5bAsxdenhjEiYFj28W8UQi2BGQ8LpUmpKwgy1aYWAvSj5dYoEgUOZghJbRae1iqbPUEHrE1aFATnYRiG8RVjgKsT1wj1JoMm3oRnlLEzV1uOSbuWxoUNLQnaPDhHmM0cqUOyTk1pkO0jDMRHnKtXlAyXMgSc+C2aTONpW8TuG3yblnqZElDCOX3o4SW1Syy1e45lEDOS6yABfRLho2Aei33jaec1pC8cgbg5NCnz0SLdNjIzvoSx3HAkW5oVc0gJEnRWaBHhnXijjxOVIwtROpwU1ynguPtfnQAnh7ps4EAgwPADAHgYaHBciVhHmkEstFEGqTyiolq7ZkXC+EqUB4qZbhJJbFMN/jyJuxGSmyKstbNcskOhS2r/napu5UikQnSHNbiEdVXmX10VDyXnxuWGhwXIlYR5pBLLRRBqk8oqJau2ZFwvhKlAeKmW4SSWxTDf48ibsRkpsirLWzXLJDoUtq/52qbuVIpEJ0hzW4hHVV5l9dFQ8l58lycOXNk3wDgJhLqK5aAYm03sWpazt2Cm1dsloaLgi7uZeVRwlV2bKyCKSwkwqnikQU1AckvUWCMykrL2naK6i5y3qBfaMJSAImBgm6FZOIirstwWVBpoiX7RcwpFz/wBUnPKE1sUHggLxDI6UoBQVGnBoCFnZoNuSSaC1zrIQ5XGLk0jbzSdtLdVF661X2yg2AEoujS0aVBYvB1DizhdWjN7ieZlMyaTeSPHyIjTwbxG0FIMjTrXk7AnC8HEnEH9pSliIqkMAWv8ASlCc5AilU5TAaVBDhIhObrYxFJ3oCKbOZXSgVgxbnaTCxo50Zt4hHW+DSldkbjlEQz7KKwYtztJhY0c6tM5EFspxNB05VCLCZt2q4WR9uC0AJrzUC+nzce4bfBdMWEiELx3H4/q53TZwIFwG5wJJqENfATZi2calR+uWSLSzqLpqIgOcoEhyDI1NMMK0uIHKkWtg12bBFM5UVWGdM5Yv1LqaN58OQWrJN6wk5+NzyrquIyxm2ssKXqEjUl539XGpUktj0KAZiTAqENfATZi2calR+uWSLSzqLpqIgOcoEhyDI1NMMK0uIHKkWtg12bBFM5UVWGdM5Yv1LqaN58OQWrJN6wk5+NzyrquIyxm2ssKXqEjUl539XGpUktj0KAZiTAoVbCDI3nq+JxDL62Pwi4EogeYGk+vlySk/lC8k9SoSDF1DqPYU+tw/dopBi6h0HuKBHOZJiL5+0p9bh+7RSDF1DoPcUEgxdQ6j2FPrcP3aaeIEpc4cCJtepQMRkvZWK78Kb9HntyN4rn4FZbbwPQOSnGrVGLvrbVZrs3rBMAv5bVPgyHR0TOIrFGMksN98eeII8CZYA0R5v379+/fv379+/fs4tph0igYBwLsBl2nOzwlKUoAaxMc2Umz/AHD8eCCS0TlFINjm86pUqVKlSpUqVKlSpYLQCLjDnZGpLROUUg2ObzqlSpUqVKlSpUqVKlgtAIuMOdkaUyMphFJ6jxOG4I0nNrWoq6kZifSu4Pqu4Pqu4Pqu4Pqu4Pqu4Pqu4Pqu4Pqu4Pqu4Pqu4Pqu4Pqu4Pqo+HMg0o1tPO0bxKyrbiyI2v53bt27du3bt27du3aX5sOptZCppM42lbxO4beN0sC7zLmHT8NY+1+dACeHumygF+ywYoEGB4AYA8TBNaq1SuTigSllcxbQ6wtc8QM8yy1PflkQKgM8iRKLG/lOWGoQj9OGz0pzjYQIG3SMVoFfR7kUiKkTbqQpukpwZZ8esljoQlWmp3ES+XrbynJw4zHCDUMPJ87169evXr169evXr0PTll99pYu+do3ida8nYE87169evXr169evXr0qi2+4UhQATXmoF9Pm49w2+C6YsJEIXjuOKc3IAkVjzfXr169evXr169ergMVyOyHj7ps4EC4Dc4Ek+JhKI45iRr9M8QIR5SKR7auPR0GaAdHoidFDaOVCAaeU5YRMhmZsyQglH0gSAWQU9lS/8/WmP6FI4SdqDMbSzAmt8Up1hlJ5pV0rgi5lDcXRt4nIq2EGRvPV8TiGX1sfAXCrFgRZAOhmRq8xLPQvJiegp4vZPuozZaVTjjRNIKajkGlEA3giXY6zFRQdZCeCkxETU/yWKidMZiCyGpExSTFmEk9KxAm5AjRQ3rR0LKRrU2ecTrACHEZTQfMpoFCJmHUpMfBW4TdYn8CTo3irRMxsmWVhrANTwvAty5Wcl5mv4CjKvWWas7AXQ7Gj0VPI4RKNd6+CgtJyuCimXdoSKRq9B05AcwxpQD91oHAobM0vitPcRqpBoirg/NHAEWF2Z9KB7sdPUuZpRbSGRR1F8Umz4qIjBqC0Z8K2F3Db4LkO0TsAR8fB6iZjZMsrDWAanheBblys5LzNfwFGVess1Z2Auh2NHoqeRwiUa718FIRgAbKgg2xyVrcVRBoOUUZLdxE343kHNUSgjZw5ujHKrA2yMw3ErKCGM1euU9hNkz9Q50s8j6TxuQbLQEEFfD3TZ4iEDCDsHIsYYrtX3JGwMQ6/OSpQVaeBJic3iKFCaKaAyZdARXHcZWUcZDNW6ipIWcQorWPxHIWf9Kydm+E6PnCgnWuMtEvWHxuWEHYORYwxXavuSNgYh1+clSgq08CTE5vEUKE0U0Bky6AiuO4yso4yGat1FSQs4hRWsfiOQs/6Vk7N8J0fOFBOtcZaJesPgcqZGUwik9R4nDcEaTm14LnR/ulswE6XKM1MhjoiZg9V50Fd8xbclsiks36CFQIJZSjbkxTRsncxW3q913LPOojf8aOTKuUtFS2doouiCr3dfoSZnwVNtD0KEzsFSDY0BAQJsci2YpfkRNRCEnomuQ8iJgiaTTLDYecGjeKIRbAjIaAk/hjhKlKK2YJFWG/Sgay6GtsT0ijZQ/gWgJwCXAptRe3I2K9i8KdiJBskYTQRlYu0tgvPWpXrKmrhcOSKhaTLeWlJGMxAhIT6iicYyO3BLa3KUcOMI8NuZvLSK38y6sMTrNDxucu1piP64LZpM42lbxO4bfIuWegJP4Y4SpSitmCRVhv0oGsuhrbE9Io2UP4FoCcAlwKbUXtyNivYvCnwZB3I64jT3TSmxKJ7Xl9xzqY87vt8CSHM0RAFeQywu3wowJq90tkCKvNLp2LzRaBRySikKYZdeNx9r86AE8PdNnAgEGB4AYAob/KdjJCccePLN25DIhy2oUUZFO13gsZJqJxB2QFEzelquR8TmSOam9m7RJkOW1bhJIqGlCIlwnElbIoHCodYz+9QwfbCVFKNiebUZkeU8ceOpIlESjCdqjf5bsZITjjx5Zu3IZEOW1CijIp2u8FjJNROIOyAomb0tVyPicyRzU3s3aJMhy2rcJJFQ0oREuE4krZFA4VDrGf3qGD7YSopRsTzajMjynjjx1JEoiUYTt4Zw4zvnpIBkjzqrVq1atWrVq1atWrKRuKCL8ExBPO0bxMYjOZbANZ85ixYsWLFixYsWLFjqVPypIzIoAJrzUC+nzce4bfBdMWEiELx3HGxILeQSTzXnz58+fPnz58+fNuAyoFCALLx902cSP5oAtXbQcf5oAtXbQcf5oAtXbQcf5oAtXbQcf5oAtXbQcf5oAtXbQcf5oAtXbQcf5oAtXbQV6yqLRMcP5oAtXbQcf5oAtXbQcfphdVt83+jicQy+tjoE71Yw5V85EWLFixYsWLFixYsV1JHdo+lho0VzYbREkrYpD/sEmxOOmil66XjVHtcUulOAd2LzpooAvxIF2LEY1rBCJuE5jG2mJpfs0GxadqwveGqxpGK0HVc5o/TFd276+K7fwo0jFe5vcR+uK7PjW1nFWCLtMCVt5wkSJEiRIkSJEiRIkquUahQhkyeCF3Db4LkO0TsAR8eII8KZYR0R5v379+/fv379+/fsYtph0CAJRwg2WgIIK+Humz/AIhEOG4I0nNr4FykyLcgqygognmmTMR2mt3HOgnLW2mmyBOTCcJFrwaCSzTQkAJTHU0asB4iSiw5DejYh/5pdwAzSIhKT0PJy+AmmWGwoLYuvI4UDIJiZYShfGamlSDFyC+q6FwtJUyN3rV/IpaT+pS022iYokdObVFb6Diy/i3iiEWwIyHz1s0mcbSt4ncNv41yz1cfa/OgBPD3TZ/yCIcOXCTIlySowBsJea8NZ9KjdEw5pUvVIkHIqDFbDRFM8IUnBIbqEgJO2yZZBMNqw6oul4aManMqDfd5I+scieBQCgqNOLQQILpeQH6o9GAG2RNK2hJW1lo96lDLBpAr906wJS1Uvj3ida8nYEp9aEDpMWeVOoKc5CEUG2LhQAZT4qJLSUESwGigBfZ6NCzSzYzExWkxvmrJoClxSykglyoYQJcW9RJ31pIRAudiQWrTKoqTyGAeR6qnKoXoAl6Ixi6kuzR7peH6OVXKA77Zyq94990wd+qpMv4y+iCgAmvNQL6fNx7ht8F0xYSIQvHceD0+tCB0mLPKnUFOchCKDbFwoAMp8VElpKCJYDRQAvs9GhZpZsZiYrSY3zT3Zkg8BNF/lSEpOsih3hDFIetICXgTLShJw7oYtBaxec1E0WuSIXjAwxJQQKguIQs7okqGBWm7cc+nkXO6bPySDy4cQy+tj8Au9vtN0iHmiopWFfhLR70ZFcqsBDnhim3KAsN9BzmK1QGTSSVxa1EKSt23kEOlbQwu0Q0LN4qPXQTYNKNbPFJ0QQWhNMFCkmAzR4yOQkmQM+tJTEw2emTZNbKzVg/hUmqRUMHVnRNA63cqzW2lC5Y7ijAmU53zSXwxDRJkYCUE2DTs+JvFWyBQGQqftrP11U35d9FKSXheFwKodZpHxS6LNmudJonApAdyIlnm1GhZRUhgc2XSrkzh1Kb0RUEiUlVZQyO4FQIXDK5M/tRXYm18UEuLFtNKzwEWJ6ZR6E0VDE5AYxfdrLRU42lkciPCthdw2+C5DtE7AEfHwesgUBkKn7az9dVN+XfRSkl4XhcCqHWaR8UuizZrnSaJwKQHciJZ5tKIVFNYurN7VHkhCivUeyouNAfnM/sRRpmIz3M6VeLJFvKYoaO1JVTBhjSGshDPbm6vV43INloCCCvh7ps/JI1+WHDcEaTm18C4/MY8QMk3LFQLGpgSmdPWo/K5/EEQ1sPV7ZYqIbduyDlcPSpkSMh+ibCxi4q0EAmTeQy1tKhra3SoiW9QqA2ugDLHnF3FNMsNhwDQ6he4YwOk+tOiYnKje43jQqWoEZoBLnKpZ9vLXTAGN1QwdWdA1DpdzrcUz6mtzzUNm6ssjmtgFZMQRjSdD4RvEbIFl/8ABT5znz58+fPnz58+fPm0HAkKIDs9amkzjaVvE7ht8dywBFIVppRh5qhQoUKFChQoUKFBwOegWpGeB9r86AE8PdNnEiUPjGyQkmhmkTNjvcOE2q2C9yiJmx3uHCbVbBe5REzY73DhNqtgvcoiZsd7hwm1WwXuURM2O9w8nX0eYOHJXwRADBCnj+vXr169FQ3BT2PG9evXr16UupFHPZ2uvnaN4kWkVwgh1t5zFixYsWLFixYsWLGSxcdG9nZaACa81Avp83HuG3wXTFhIhC8dxwNIPZoJY87Tp06dOnTp06dOnSSn7HRiuuPj7ps4kCNkuI0T0/G/qeWOIZfWx0OG1hBmy4kmTMeMNgKyLobweqx82KXwZwY0n5SYpEqZhBlSPrNDWPJ2uyRhrdFDZoi4KDOVT7dI6TOGz2pi7GpdF++vgkyZNqgXM0RiZfP0bxVgWB9Mpajp2SnYTOKRaLM0DWPUoDryqAbtTNaIAN5pINqLzCf1WV8YHXDbgjUBKulAWNIMiUoEtilYSjZ3MPRjxLYXcNvguQ7ROwBHx8Fw63SpJ0WtpVY8w3L0nyIO4OJPRq9dwsiWxRZmAYrtgp96oGRsMuCiyUxHk6nFIJZEls8/C5g2WgIIK+HumziQJkmoDwZRYunMK5Hv51yPfzrke/nXI9/OuR7+dcj3865Hv51yPfzrke/nXI9/OogfjOCDmkpihCMvJPieWOG4I0nNr4FyuI8TmRTuoEloyA0NIVgbpPEtPqUK5NNBM2WLzZSVP5kFRRlzQpOixRsIHcaNhQ2/bssAnNphKAO8jSeXLXDwE0yw2HnBo3iiEWwIyGi67CCJ0FMIMCyUTuWLVQQAhO9EFaVs982QKU+VQohi4BKLnLaFNSUF/pCgLs0HKzk7kt0Ztig4/ry+6RCBhQBXEMRqN2mjE47kranQyVLuOnkhVwBYbVF2hQQLaPqho6IMYBJAAKTcvHnhkWppM42lbxO4bfIuWXLCjn3tRHUUG7DCQwS80VMRi2YAWEusKwalT7xYg4tcKRKvMDKWXQtSTcxDDkfoL0+cis4SRZa0OiDGASQACrMHW7myi2pPfxJk0GAXsOlEoel13HhF3rTJ+tOUCfY4uX2vzoATw902eIgugX9EFoUB6ArQbTTpsEXN2q9QB7ebIk+VFKUX45nKzo5URPZgAGxMKUcLOUAlyeTaKUXKEECGYBN4sFSJTg2YXUfVx9YcyIDDfyT4n7eecOXYFohCLhdqsdmAJKPc4p1iimzjIkzN9qIQErw5g1nMDLR8hsFKgFewuM9F81cqWZ9aNqHQiJkFCerSqZBWDhj0eKgFBUaec0bxOteTsCUCQPplJUdOyU7gYzV104FZZ6KxAgOjBAa04gpAH0F/WirHKIGBdSs7RSHVBevnPUIov60IaTwG9obFq28JcJTFtJr5EJyYzQCA8DCP0virJb2NtgZtwWgBNeagX0+bj3Db4LpiwkQheO48Fw63QpB1StpVYcg2LUOtBCAwSyViEYwhSIjRxR4m5zaYCJphGSmFvb8qkPLLmc2EVZLextsDNqlhhEsuYdK5tt4xI5a+SSS0EFAxAQBp5DnumziQI2S4jRPTjQAWNCEiUuhgKN+lHIIqJLEiCyrELxNY4Crkdcp9Cau27vVksGcs2TUDlAUQyEiQxrWWRRHCkspnMqgHiCK7MB9Hmehs8n7eWcQy+tj8AudSDWgJXZQRmflRWhocJT47BacNeZ4ovGGn5yAEsDikJc0ZQgPObUxRLyOD8yoSRhZRHIjvQjaTVyC8iHzRS7xFBLMtQIj8GTo3i6lL2uR6+d79+/fv379+/fv37ARJTjMaC08ELuG3wXIdonYAj48OTgqcCY87t27du3bt27du3bsJXKjGYsXacINloCCCvh7ps4kCZJ8KCAh4DHF4TKxqCyKMPKFh6NACrUSIB7RDWLRSYHQM5JU9wc8xIRfwHpKYoQjLye0bvLOG4I0nNr4lxgTSAm5hp8Eq0no8hNMsNh5waN4kKmQw51SlgdLSckOCFTIYc6pSwOlpOSHBCpkMOdUpYHS0nJDghUyGHOqUsDpaTkhwQqZDDnVKWB0tJyQ4A3YZHIOUce4bfBcnSEMgWl+2orDzA8hWPdq/TciLofu4KIrDzA8hWPdq/TciLofu4KIrDzA8hWPdq/TciLofu4KIrDzA8hWPdq/TciLofu4KGgduxaUCuzVq/TciLofu4KIrDzA8hWPdq/TciLofuoY9yMjAnw902eQQXQDcRD9q3JOallHBaERnnVo6HerZszrBSAgtpiIYxNGPGQSc2E+8+D1hzIgMN/yWhw5czPSPI9D3aRm1M2B8w2CRNUgza7MrIsHVpJ1fcEmqqFpCWY4fC2I1zFMAOWodl20IOFNmDDkR4FAKCo0/4DRvF3Db+Xce7ps4kCNkuI0T0rljGqWEm3Ja7J+67J+67J+67J+67J+67J+67J++JIl2T91By8Ionv8Ai8TiGX1sdA205QRoxOAidYp6RCVV77HyM8KJ1inpEJVXvsfIzwonWKekQlVe+x8jPCidYp6RCVV77HyM8KN2I1rGRAhD/wADRvF3Db+Xce7ps4kCZJqA8GUWLpzCuR7+dcj3865Hv51yPfzrke/nXI9/OuR7+dcj3865Hv51yPfzqIH4zgg5pKYoQjL/AMHxOQNG8XcNv5dx7umzyCC6BgBHhcDkELxWzcGykWbcZtCU3shDAtrIliTS7OTG1WPDSxVrn+LYziHweD1hzIgMN/8AwbQ5A0bxdw2/g3E1bjJrOenxYaZZZc9VzPGNcxcEDksooYDctq3jCO8kf2o0dzLNjmi3woDgBmanV1+VTwJACgwkynI1JkVS0L8sGKsA1aQxdWaXtpQnGNP4lVf/AA/rCcgaN4u4bfy7u6bOBBZAe1SZXnQmSfCggIeAxxeEysagsijDyhYejQAq1EiAe0Q1i0UmB0DOSVPcHPMSEX8B6SmKEIy/8HlOQNG8XcNv5d3dNnkEF0A3EQ/atyTmpZRwWhEZ51aOh3q2bM6wUgILaYiGMTRjxkEnNhPvPg9YcyIDDfyFgrjpUlSah6syf9ocgaN4u4bfy7u6bOJAjZLiNE9K2p5xYxSzbRa/sqf2VP7Kn9lT+yp/ZU/sqf2VP7Kn9lQGzwiRPIRSpgdBdfSu1Purkno48sTXan3Xan3Xan3Xan3Xan3Xan3TqTg+jeB5/wDTOQNG8XcNv5d3dNnEgTJNX3jTDV359V359U8EmH3ya+BQKIld+fVd+fVd+fVGUhUIQzfFABSOP41359UNLcJHpUlMUIRl/wCDcsDkDRvF3Db+Xd3TZ4yC6Dav55Z2Csu+2G79ieUU0IUeU5nB9jIUbZQLgSRADrUKTj7htEDdRcbZHakDZ9a71tx9YcyIDDfyHJdyliszFubYpKMZFUyVAyWg/Qc7JSWGIWNKVxbT0uSHSCeRTQlB0QJ6S0TUHc+OYuDJOkKXOSUALNwuQtSgGD8qEl7XKAopSid6P+mcgaN4u4bfy7u6bOJAjZLiNE9PBQOn5lOno1GCICLRsINKmAUz45kC9WS3sbbAzakVoskV0RnpUBbQQWOS+9AQIDyfTDYMCuMTarWswlIavCO6RdG+5oia8mSawfI0ahrUDCSDc01YDEbBTrbxzq586MRrGFmMTUH8cT5QvTfGaj3qLxahvzErV7KDQZvM4UKwhkRD1J/0zkDRvF3Db+Xd3TZxIEyT4UEKn6AlAm9oNoverCECJiltQ48oJaZXPSgXEwZpeOTkSsT6oHLseD0lMUIRl4CwZqoECTma7M+65AbCw5YL1ELb6Qf/AHDA5A0bxdw2/hXOdKGA5i139913991399139913991399139913990TLgGjChT27Ct1qOdPnIkw0DLHARotvGmCrvz7rvz7rvz7rHFH0X/1RrSHCICDJAd6g7MJhMIzupSew0Y3kOrcKW7wD6QMPRFd+fdd+fdLS3CV61YcyIDDfxlhnLL/ABiIOBv4cuXLliogscJ9HgZcuU7VgQl/9MA5A0bxdw2/l3Dd02cCJFo/ZGnIW3oM+DiNE9K3xHNkn1/8fFFFFFFFFFFEWLnIGjeLuG38u4bumziQ0iRYh6ScCikSbEfSWmkSLEPSTgUUiTYj6S00iRYh6ScCikSbEfSWmkSLEPSTgUUiTYj6S00iRYh6SVceGDBErB/8GWLnIGjeLuG38u4bumz/AIZBYucDt6Xxuu3UsuoWUHmcGKVKXviiOHHqEjgxSpS98URw49QkcGKVKXviiOHHqEjgxSpS98URw49QkcGKVKXviiOHHqEjhoAyAg0D843i7ht/LuG7ps/4pBYuc9QHDawgzZcSTJmPGGwFZF0N4PVY+bFL4M4MaT8pMUiVMwgypH1mhrHk7XZIw1uihs0RcFBnKp9ukdJnDZ7UxdjUui/fXwSZMm1QLmaIxMvDQiUzzu4e/wCd3i7ht/Cu7Hv5PdNn5ZBZAZjIWw6ZqQCsTBde8eMcF9JVZYIP14YC5XEeJzIp3UCS0ZAaGkKwN0niWn1KFcmmgmbLF5spKn8yCooy5oUnRYo2EDuNGwobft2WATm0wlAHeRpPLlrh4knReQEow6lnhEbjtkhP7KbzkrcWZojhzqrxbV6ULuKBssSeVaiRWnYCLy/I3i7ht/Cu7Hv5PdNn5ZBYyA4QyVDKZUcj0PGcNUUeEJHwQFwwKBYXx9XKpxgyg9ZTWrsk+RdM1OMGUHrKavKBYW3Mb1jzgUwsTi1PCCQlltPrUtBheIzlNStEnkG8ppIJZQQ9jfDR+rmWE5Pik6H0zLkgr2W1SPixDCy24fO5b0LXIjAZYPp4d4gzEEIRWJqLqKm7nzwNexBDewzRdRU3c+eBr2IIb2GaLqKm7nzwNexBDewzRdRU3c+eBr2IIb2GaLqKm7nzwNexBDewzU1Q1/wSSano49w2+O6JTfBxcQs0VbVgHs3cEpYwX2OlW1YB7N3BKWMF9jpVtWAezdwSljBfY6VbVgHs3VrF1/Ly0lLGC+x0q2rAPZuqAJskTmD9ni7ps/IILWm97DxLNFZe2UiNkhHkxWhIWNWOAwiFzwwz8ua6eUc9QFyzMU/YLdaFFyh+SkSW+VdR6myAhhS+RmgtDsL0pil3pDBbHTAuXelKvFGlZhuZM0ILdNoVnqz9Gruz2zdrHqkuvRFoG54rLI1FRo5sGwNhrM6qYxYmMYP3rwJOhEpnndw96rrmH6Ylq6UYgydTwzAimbw28G8QATXmog9Pmp3cGkhiNhr53Pnz58+fPnz58+fPX1UUgI7OlQAuJauf949w2/l3Je6bOBEUvbll0jhvMwIbggmope3LLpHDeZgQ3BBNRS9uWXSOG8zAhuCCail7csukcN5mBDcEE1FL25ZdI4bzMCG4IJoxldbIseOWK5YBg4msABynehM4mpR2+WTSRk3GGgHCAQc1iTRSXCaOUm9l5Ge9VPTAynLTgc7CxWpW3gPlylsr0AIjITTm59B4DgvpKrLBB+uEDUVdSMxPp5ECBAgQIEBFBLADoOPTxQIECBAn5IHE7wcNF5ASjDqWa0jRKOc/XVnLOVjT21CJwml8nEQKn5VAnJTLMmTU54yVCWClsJlp0CSlTVIlclBm70KnKGDdl38G8U0mMbSk4hFW8zLCV6AK1iQFvcxdqxcTqUFvQwvEAmwvoCZpTiAlexcwzXPmYyQVigoMFAG17+lJ8oJKOJTaacmQBElLztir+yTjiwLduYrMIPOKbZY8Xur3Db47pGkEiefnZE63EYYY9PF3TZwIMZXWyLHn41SSfwiWOGqKPCEjwgOG1hBmy4kmTMeMNgKyLobweqx82KXwZwY0n5SYpEqZhBlSPrNDWPJ2uyRhrdFDZoi4KDOVT7dI6TOGz2pi7GpdF++vgkyZNqgXM0RiZeGgJs1dGkRFI3ii127UtMTX3F2pC9IiuZ97VoEhjNIs8IkIMQHWJoeEygKERv00o7s4hpfL6JmirwRbFklvvVNcEvqSJ+Ksa8aN7YY1qcljPvpq/pAnVhbiIrLKLsyGEBN8tHM3rdYshBsmKuZ8ZMwC5BljnQEUlTQwGEAcqnvZHZhwXA2JSinY54oGtZtSXDRCl3KCyDNigrThEIiORYoom6Kc2NSzaojhHqBLLzuFBrg7cw9Tvx9u9aFGTE+XHuG3x3MAaoNeoLcAyHSa7++67++67++67++67++67++67++67++67++67++67++6R60dIQGoAmyROYP2eLumzgRGqSTRLl4GUeKByebixYsWLFixYsWLFIS66gKttp5BbSNuA96jp5qf7Po6wU7zqB3MDdVHk9d+hXsfh8qwu87XsNFQnAlHr4n18k56gLlcR4nMindQJLRkBoaQrA3SeJafUoVyaaCZssXmykqfzIKijLmhSdFijYQO40bCht+3ZYBObTCUAd5Gk8uWuHiSdCJTPO7h7+V3igWRegAmvNRB6fN+Ax9qgBcS1c/7x7ht/Eut9028ZL3TZ+CQQ9GMrrZFjxSwak2zPAOawVLLnM+w/p8c5wS3MguNF8HgxoSDS2fR4nBfSVWWCD9eGAuiXZyzIDevkxqpDLSJq2ohOAj1ihCdaXSlLQYWLlQ0g2is6jSOqMUQtJD/AEG1MShdCdbgjm2qJduIsEwm828MnReQEow6lny94ppMY2lJRzZVjglMB5wkSJEiRIkSJEiRImV7akkCUgKppVQrtWJXGDBDJlvTcD9zuhVBjfwNWrUq2agZuoGqiyn5o5PpxtwYMSxZlMstsNHj+YgiC5XRS8TArSASGW8V/wDanF5XlqJREwwZIVbzFXbKfJGA1DInFM4tWMKKhLOa1Pg9egVBswLtGXeEXLTs3iOHdNqFMWXEEILmDE+LVq1atTgKBhMNSuM0xyojDVVtSIECQsJwELtP5Wd0SIdPWp+pbX4IhDclGIjsVh2WWGujAXYJ9xfijcxMuirDkgN6gAcWXg2wsiWhITp+c6Y/0oPsUVbxVk5KU8MyPmgN+aUI5jN5yDl5rHQvkt3QhjN6v17mPiJcHrcl9KtguzxfPueq3EAZk8eSnCaD1VDKHRHUTRNvIJ62XFmuIcNUUeEJHwwF0pVPOwgsrNxUJBCUSvNRGlHP9X2O29yrJTcvYMMZyKA5FhsxJUpmMGxRkAW1JV3QMr/QD7+S1pn8ZhsctTS5EFgH8GTofbxQndwaSGI2Gvnc+fPnz58+fPnz589fVRSAjs6d60KMmJ8uPcNviuICqRas2VppgDVBr8dsJDmsjADldfWiu2hs4pCSTcb1K3nRgTENlcBGlRNGxYBBodrRIQETJSIBlvjNTRLxQyV5yUWY08eQjjbK9WoZQAlEgVuI1dCBto+tZszlAcO6bUgCbJE5g/Z4u6bKgLKhybjq9aCymoWwTgQ3NmJdSxzbT0KIbnWRspXSzMlTdlcgM5IYyxak6G1MBkW2Z9OVDHrUQmYYmWRkqxweMQiEM0sdQ1/jGX9CiyNKueTmBEWLdothpRAvNQmaWtqKCdCgEft5bzUw+ASEECUb6tBMneuFN3Ij0eT6cuWVq723EedFohn/ABfsVD12nsaAkfltCSQ5te399lTa6CV8gei0qvfK09rT7DrQRpVgHhDnqBqKupGYn04wIB8ecowuklvBAgQHSOESfoFGg8Il/YOECG+zgDHqRfwQIECfkgcTvBw0IlM87uHv5feIAJrzUQenzcWIyjBzbm7kZ6UgSE6Oq53LUSHNRNy63NQpQFLpTLR5zkjblHUDWaFU5PYJt60X624nuvZ60sDYjNZNk3tVlGA4riDZtrTWIPsYSMzW6cyCM5RpR4QyiROHtUALiWrn/ePcNvkXWfx7qN7LzHLly5cuXLly5cxrYjRO++NL3TZxIUO9Pg5au9/uu9/uu9/uu9/uu9/uu9/uu9/uu9/uu9/uu9/uu9/uu9/uk8kHKQGaMZXWyLHk3KF13BS0o899V8Pn+ddym7eJgcF9JVZYIP1wgOG1hBmy4kmTMeMNgKyLobweqx82KXwZwY0n5SYpEqZhBlSPrNDWPJ2uyRhrdFDZoi4KDOVT7dI6TOGz2pi7GpdF++vgkyZNqgXM0RiZeGiYfS+QcFXsXUFvycM12ubF0TQApkUPJPwoAUyqHkn5UNAvMftdFACmRQ8k/CgBTKoeSflRArwisWuNaB1oAh5NaCW0oB5NKe3i3chfE0CcVg1KjbACoJX0pusBHWb+o5K7JOfhwhkmksDCUsGUQn6rUBhBQw2LVy28QFgJdcVn5lCpJRrN1IgdPgxjr5VMoIMnHYJdrPzKFSSjWbqMEAhpYEpBYFpIvlaWwNsXDxe6vcNvjukaQSJ5+dkTrcRhhj08XdNnAgxldbIsefjVJJ/CLlgcNUUeEJHwwFyuI8TmRTuoEloyA0NIVgbpPEtPqUK5NNBM2WLzZSVP5kFRRlzQpOixRsIHcaNhQ2/bssAnNphKAO8jSeXLXDxJOhfACZyNTE70LOFtiD0rDjOcyERQ+AOlQGSNymYWWCRN3X6NQuBI9BCxq51F7MFZEpYbdfxd4oRH271oUZMT5ce4bfHcwBqg1/OwBNkicwfs8XdNnAiNUkn/AIpcsDnqAuUCWxRKQkP9BtQK4CknAsxUbPm5YZRNc6p2YZXF6m4NQBOoNLlRQ7OHspv6V8Io2NMtKpCEi7ntmt+fg1AXzedKQkR28EnQiUzzu4e/CGkxT8FJbJSHW5wyEBi9Q1A06kKEgJI4hIB2HFQdstKNQsPTw7xABNeaiD0+aubKscEpgPOEiRIkSJEiRIkSJEyvbUkgSkBUqAFxLVz/ALx7ht/LuS902cSGtDh9kQJwfXyrP7YrTWhw+yIE4Pr5Vn9sVprQ4fZECcH18qz+2K01ocPsiBOD6+VZ/bFaa0OH2RAnB9fKs/tiviUuWKUeqsCj23NxNE28hM/Jm7J7rrxOC+kqssEH68EBd6UQGYTXpSrFsUZ6Aek+S0jFSEZMDeLuqltnfMhgOhLFqYJcX4bCp7WmnWqXJEC2wBTremojcCltlEaUpDwlGgXIVmpXZCSBM3UqUGnEQPZNvDJ0G5ogTOxYZ50jsWewGYcOTMUyDY6KgxhpsCwsnMNqUEIQoyMYpiQy8kUGKyNPf1ZQVytTovrilRlxY0U4iul3Pg6H7uHYIRL8jyFY92rpdz4Oh+7h2CES/I8hWPdq6Xc+Dofu4dghEvyPIVj3aul3Pg6H7uHYIRL8jyFY92rpdz4Oh+7h2CES/I8hWPdq6Xc+DofuoWAKMmc24WnHuG3x3E5rctBGWmwcsF1mXhY30C1Ng5YLrMvCxvoFqbBywXWZeFjfQLU2Dlgusy8LG+gWpYOVsF1mWpE63EYYY9PF3TZ+QRLkEN97ropFQGqfRHSVXxv+XWgJH5bQkkObXt/fZVZdzp3hhazFcinta/XrUCHywDicNUUeEJHhA1FXUjMT6eKBAgQIC7bEtDflEeCBAgOkcIk/QKNB4RL+wcYECfkgcTvBw0MpJpgDQEoy6qpTBBNohQ6CfmMEnSyFOMxhGQyRPop531iOwEhcbXiaGJAS7KsGNSs6BETNcDZaSKQmrZtgM8zI5Rgog1P5m98yD+MLuG38u7umz8ojkmEmmbtzf1WXjl/lXxjP6eM56n9zSgo3PwAwYMGDBgwYMGDBgwYMRxzG4nQjlUiUzzu4e/HHlcTJPt4t8vBbQV/AV/AV/AV/AV/AV/AV/AV/AV/AV/AV/AV/AV/AV/AV/AV/AV/AV/AV/AV/AVoUgC6eAQg0TtX8/X8/X8/X8/X8/X8/X8/X8/X8/X8/X8/X8/X8/X8/X8/X8/X8/X8/X8/X8/X8/X8/X8/X8/XdNlAWEmuH/BIIIIIIIIIIIIIIIIIIIIIIIIIIIIIIIITFIAjSBhjUaF9JVZYIP1XyBjOU67PLUQ4fIGM5Trs8tRDh8gYzlOuzy1EOHyBjOU67PLUQ4fIGM5Trs8tRDh8gYzlOuzy1EPJQeRRIiI0lrp/5P/8A/wD/AP8A/wD/AP8A/wD/AP8A/wD/AP8A/wD/AP8A/wD/AP8A/wD/AP8A/wD/AP8A/wD/AP8A/wD/AP8A/wD/AP8A/wD/AP8A/wD/AP8A/wD/AP8A/wD/AP8A/wD/AP8A/wD/AP8A/wD/AP8A/wD/AP8A/wD/AP8A/wD/AP8A/wD/AP8A/wD/AP8A/wDtf1jARyqv/9oADAMBAAIAAwAAABAEEEQEEEFEAAABXPvPPTDPPPMpnLTnTLDLLLLLOoAAAMAQAAAAAAAAAIAABWSQAAEAAABYDXHmQGtiYCqg9etzckiUsAAKgAAAM7Dg4GuQAAAAIUAgUAgUAAAAABYAEAAAAABoCqiMUEEEEEEEsAK8Sxsal86p86RMaxyFAgDTyCAAgAAABYDcgzhzyy0CqgoGwRzwAQIMAK4IzTwwwwIQizwwwkBSwwTAgQyAAAABYCY000000sCqgMA888888OMALsMOMKONcgNMNJMO0EVDD3XXHCAAAABYAAIIIIIJECqiNEQAwQwAIsAL4EG1FEEGEFH20kFIFCgCyBgAAkAAABYCNDSDiRwUCqgoEABDDCAIMAK4V4oooo4o64YYYY8BSEAACAACgAgghYCgAAAAAAACqgMTPPPPPMKMALsU000E02s00Ek018EUwAQggQQgTDChYAggQwwghECqiMFCAggigIsAL4IAAggQAIAARSAgEFCgCgADBAnTSiR1SPCCAABAQ6ucEA888888MAEG3zxyyzzz/wAs8cc8/AUZwwwwwwgAAAAWApAAAAAAIAq5DABBBBBBCjAS6CAUcUAACAAEoAABBF4sAQg4YpAAAAWAbkkcwwkQAqojBwYcccwCLAC+ATjnPxBKBzTPbjFBQ8888888gIIMAZE/888888PAqoKDMMMMMMADAC6BiRBiRBiRBibBiRhUoUYckIAgAAMgWAtMIEMAELAqoDBMMEEEACjACoAAAAAAAAAAAqAAACFoAEIMAAp4oQ8WAQySSSyCaAqojFwggQwQCLACoGDJGDJGAAAAiAAACQQw9l1xwAAAAAWAhOCCGKCmAqoKTw00w0wDDACoAOOOOONAAAACAAACUoEgsUMAgAAAAWApIowIcQDAqoDCgcQwkEDjACogUcYoAAAAAACAAACFoQE4ggApAAAAWAY2w72w70Aqot37/wB+/d6iwAqCwAHKAEwAAAAgAAAkJSLZSDRSQAAAFgAAAAAAAAAKqAAAAAAAQAAAAqETjjjjjwAAAIwAAAgAAAAAAAAQAAAFgAAAAAAAAAKqAAAAAAATzzTSb4ABLAAAAAAACgAAAgAAAAAAAAQAAAFgAAAAAAAAAKqAAAAAAAAAAAAuywAHKAEwAAACQAAAgAAAAAAAAQAAAFgAAAAAAAAAKqAAAAAAAAAAAAqFMOMNMJAAAEcc84wgAAAAAAAAQAAAFgAAAAAAAAAKqAAAAAAAAAAAAqIAHKIIAAABTUMMOggAAAAAAAAQAAAFgAAAAAAAAAKqAAAAAAACwwwxYhgFGLAEwE0qAxgwggAAAAAAAAQAAAFgAAAAAAAAAKqAAAAAAAKwAAAqxsu98u5gAgAAFgAAgQSRASRASAAAAFgAAAAAAAAAKqAAAAAAAKwAAAqAAAAAAAAAgAAFgAAgCAOGFAACQCDAFgAAAAAAAAAKqAAAAAAAAwAAAqAAAAAAAAAgAANgAAgKLCHAKIKJGIIFkCIkwYkwaQKqAEw4Ug4U0QAAqxwiRwiRwQgEwnSwwgAQDBJAAIVEOIFSQpNAJACLQKqABSwwwwwzwAArwggggggowgBBADAwgKBJIEAAKAAAAFohjTTTTTYgJ7jyajCCACLjzy47iADAACDCQKwAAEQgIQAMAGAKIAAAFkYgjjjihuAKqAEagogogsQAAub7PDHDCAQAAZKEIggCAOGFAACdCBABZQoEMIMALQKqABQAAAAABwAArwAAAAAAIwAAQAAAggKEGNAPIKADLLFg2Nc+9c+wAKqABwixwixyQAAqE4ck4ck4QANTyDjQhDDTTTTTbcNCMMgQQQQQQQQQaJTjjjjjjjjjjibDTTTTTTTTTTTf7DTnAIHAIHAIAAAAIAAAAAAAAAAAAAAAAAAAAAAAAAAAAAAAAAAAAAAAAHP/xAApEQACAQEHBQEBAQEBAQAAAAAAARFhECAxQXGx8CFRgZGhMNHhwVDx/9oACAEDAQE/EHaieZXfsrv2JuDf0rv6V39K79ld+xhpeV1o5KX1lD6yl9ZS+sofWJ2X1lL6yl9ZS+spfWQkCesSuVRozK5XKhXK5XK5XIwxgXXpX/DX9/4a/v8Aw1/f+DRjPv8Aw1vf+Gt7/wANf3/hr+/8Nb3/AIa/v/DX9/4a/v8Aw1/f+Gv7/wANf3/gyzSozrofVahKGQiII0W4+l3G7OjHAUiENEJTgJIhWMvkwIhixGyWR1DfXqJ9CZ6ENW4mh9T3dxG8CUzJOIknJBmJBCUx91tNxJ1P+DUZilmR1GozFLMjqNRmK02n/buN2PEX1VUiyrMvkwIY3Bf/AP2Yh42Ymgrbdc3uxg2OUVX6G3N+hJzforv0Nub9CTm/Qls3A25v0JOb9FV+htzfoSc36Kr9EsWJHg3GhM67CY2hReii9FF6KL0UXoovRBIZf1XcbsSGvxMvkwKzPfxIaizE0G61rufZfw/F/E0OrxbiyjXY4tb6/TdXcbsfGL4ADEh2ZfJgViZzfAAS/QfVzZiaEPI9xxljfkkkYqXb5fkkkaxnI0s03GiCuw+jUlyhQ88FBzwUHPBQc8FBzwUPPAq5mP5dxuxOIpFIpFIpFISLKsy+TAhipSUSiUSiUSiKk1A8bMTQTreu4mhN4lV7Kr2VXsqvZVeyq9jEjT69Cq9lV7Kr2VXsqvZVexwl5CwjTcaEzrscWt95TruruN2JDX4mXyYFZnv4kNRZiaDda13GOBZlAoFAoFAoCOC0KBQKBQKBQFaaVkdXi3FlGuwpOsCqKoqiqKoqhTVzT3V3G7GRJ9yfcn3J9yfcn3I0OzL5MCsVhXK5XK5XK4qB9XNmJoQ8j3JHIqcpOUnKTlJyk5SR8O305ScpOUnKTlJykwxA0s03GiCuwmNoUXoovRReii9FF6KL0dI4f/LuN2OTUMqFQqFQqFQdvqsy+TAhme/iQ8bMTQTreu59l/D8X8TQWEabjQmddji1vvKNd1deJHBroJDV94sGmBzSQ00+omc3wAEv0sQJASNaXfcZ31NUcDRwNHI0cjRwNHE0KLOhxNHI0cDRyNHA0cTRJHk6vFuLKNdhQSPNSu55K7nkrueSu55K7nkrueSdlPR7q7jdnRSiHYh2IdiHYh2IdhSTFmXyYFb9ZrNZrNZrs76ubMTQgmVXufZfw/F/E0Glmm40QV2OLW+jXPtdxuxpav71mXyYEMz38SHjZiaCdb13FcXR3xAIFRV16XwIIHFpkLCNNxoTOuwuKVX9ttokQ4/6ruckeiXfSSSVJ0dmXyYFYyUK+kkkxuqGosxNBW+tm92JQQ+403mJQQ+403mJQQ+403mJQQ+4peYlBD7jTeYkeDcWUa7HFrfX6bq7jdmX8TL5MCsz38SH1c2Ymh9T3f6Ztbm03GiCuxxa30a59ruN2OdNIolEolEolERqDsy+TAhipSVSqVSqVSqOm1A8bMTQ+p7smzG0sRNPAqDaWImngVLubW5tNxoTOuw+jUlyhQ88FBzwUHPBQc8FBzwUPPB0jEl/1XcbsZFK+qqxJdmXyYFYkc3/AP8AQ0IaizE0Pqe7JvsIiIiIiISrREXc2tzabiyjXY4tb6/TdXcbsy/iZfJgVmB/gPq5sxND6nuxYRS8kpOZ3c2tzabjRBXY4tb6Nc+13G7Et1Q+0LtFIfaF2ikQSFZl8mBDGJ0ZVKhUKpXKg2bqPGzE0Pqe7Hl1Lyylcxu5tbm03GhM67Cuyfo60dfQ04z6E3CfTOtHX0NOM+hNwn0xLS7PdXcb/PL5MCvrG7iaH1PdjJjalI5o/hzR/Dmj+HNH8OaP4KWgi7m1ubTc+r8MfS7jf55fJgV9YkEEECQHOU+rf/T4LySk5ndza3NpufV+GPpdxv8APL5MC/TE0Pqe7Hl1LyylcxuolDubTc+r8MfS7jf55fJgX6Ymh9T3Y6Y4mCk54KTngpOeCk54KTngSrKEXISUjpwnUpCkFGGJtNz6vwx9LuN/nl8mBfpiaH1Pdiwil5JScztbSUswtLn2G03Pq/DH0u43+eXyYF+EMh9iH2IfYRph5l4t7seXUvLKVzG2bFA8kOkFBezqR/0oL2MwsKm03Pq/DH0u43+eXyYF+DxuYmg4ys3uzDpBCjAUPIcLIhRgKHkN5FZh53Vx4PNu03IeYUZjieg+gUZjieg+gUZkJx2u43+eXyYF+DxuYmh9T3f44ed1ceDzbtNz6hMbQovRReii9FF6KL0UXoVJK5hdxv8APL5MC/B43MTQ+p7v8cPO6uMo0+lu03PqOLW/x+LuNiSN2HYt4l2LeJYoSVZl8mBWJwTJLMCZJZLMXbiaH3Pdic5DcZDE5yG4yGJzkJyYed1Y0Iceg3yHFxZNpufULPQas4GzgbOBs4GzgbOBsdjhL+XemTrcfg4NmXyYFbDIfYh9iH2IfYh9iGnbiaDQ+v8A12KgKAoCgKAoBKDDzurMDMCizMIEiSmbTc+o4tb/AB+LuNjHTK+AAnSZAeY8iaEQxulJgXsIhkMRph1R9Z/6zG1d9JLljCx5KshMtxJSwZtNz6hSdYFUVRVFUVRVCUGa/l3GxkATKpVKpVKpVOtG7MvkwKyWISSyoVCoVCoOmluJoKkXf/rMbV305twNLn2G03PqExtCi9FF6KL0UXoovRRehUkrmF3OOV+Hg2ZfJgX4q3E0Gh9f+v8ABKLcDS59htNz6ji1v8fi7jYyE8UUCgUCgUCgYYWZfJgVisi2LMHbiaH1PdjR4kKIEiwQ0eJCiBIsENHiJRayOIYOixMQlIodODabkKJ6iT0Sf0pP6Un9KT+lJ/Sm/pSf0eGjwzuo23BHYR2EdhHYR2EdhHYR2EdhHYI11VEQupDuQ7kO5DuQ7kO5DuQ7kO5DuQ7jptHY631ea7upHOn9I50/pHOn9I50/pHOn9I50/pHOn9I50/pHOn9I50/pHOn9I50/pSXwiMP+f0jnT+nT4N9f/Y//8QAKhEAAgECBAYDAQEAAwAAAAAAAAERMWEQIHGxITBRgcHwQZGh0eFAUPH/2gAIAQIBAT8Q5qWWJnY9CRw52I9CR6Ej0JHoSPQkehI9CR6EjjLMR5E21H6yz+ss/rE/4/WWf1ln9ZZ/WWf1ln9ZZ/WWf1ln9YrNPkT1P/A/f/8A/wBxE+dRre2CaKDHRDZRwIlxQndEN1lDasDFwq7dmVCUOgriCqzhEuHBjUMUOJKdMaevgoWROME8ScDaklDc5aPOo1vbCY6DQ+zQ+zQ+zQ+zQ+zQ+xxHRhV27MqCKznqqXSULCnr4KAmKUWMasYlJuMSsY1YG6SyjzqNb2weDXzpPZhV27MqYfHPSxOVOFPXwUClnrcipe/HOo1vbCKPqWGWGWGWGWGWGJtmFXbsyoJQMhGdVVqNMShYU9fBQEJRBHoR6EOhHoR6EOhBIj0I9CPQh0I9CHQUkFPnUa3thLx8FxFxFxFxFxFxDYOjCrt2ZUEREMvF4vF4vF4cjllCwp6+CgKmhDoQ6EOhDoQ6EOgikQ6EOhDoQ6EOhDoKkHledRre2Dwa+dJ7MKu3ZlTD456WJypwp6+CgPwEolEolEolFQlEolEolEoeRS9+OdRre2ECieJeF4XheF4Xhwgo4YVduzKglBBCx+Fj8LH4WPwsfhY/MCJQsKevgoEKZNRqNRqNRqFINRqNRqNRqIkyU+dRre2CiCYZYfRYfRYfRYfRYfRYfQkJKOGFXbsyoI+OellCwp6+CgUs9bkTyvOWVrewpG5SgeDXzpCrE/YHJztsxLNicqRkIzqqtRpiRkBpXXwcATUJFkslkslksibUkWSyWSyWSyIOKKXvxzqNb2wbwoQy597lz73Ln3uXPvcufe5c+9x0Uzwwq7dmVtRKDgOBpNJpNJpNJAbgShYU9fBQilnrcip86jW9sEhF87R2YVduzKgj456WULCnr4KAkiZcLhcLhcLghOy4XC4XC4XBDXAeV51Gt7YJniSz3Se6T3Se6T3Se6SQJHDCrt2ZUwjJRnkkkUOUicqcKevgoXMpko86jW9sKI9c84R0wq7dmVBKD456WJQsKevgoXMeSjzqNb2wVo8cS0LQtC0LQtCRtPDCrt2ZUEREItFotFotFocjlFCwp6+ChEMjCGRhDyvJR51Gt7YK+oPST0k9JPST0k9JIT0YVduzKmDFRn//AGTMTlThT18FCEpQajUajUaiUsryUedRre2FEeuecI6YVduzKglBUuQpQsKevgoRRzfHK8lHnUa3tghhvxC+X8Ifw/hHoSF8v4Q/h/CPQkNJ6MKu3ZlQTY14osFktlgtlsQvAVMKevgoRwrmrWV5KPOo1vbl1duzKmd0y09fBQhcRcLhcLhcHJqXleSjzqNb25dXbsypnoJJJRAaV18Dmijm+OV5KPOo1vbl1duzKnMp6+ChHCuatZWmq5KPOo1vbl1duzKnMp6+ChHAEupLqS6kupLqRNcci0kcqsh1IdRKUyUedRre3Lq7dmVOZT18FCKOb48irFHnUa3ty6u3ZlTkQ6kOpDqQ6jJrHXwMg4VzVrBVJaFRkRMMkUedRre3Lq7dmVORRkp6+BmkoK5q4KuT4xo86jW9uXV27MqcijJT18FC5Krk+MaPOo1vbl1duzKnIoyU9fBQuSq5E1io86jW9hokjghpv/glU3G+u5DTf/BKpuN9dxXt8Ku3ZlTBqRJIgNSJJECENQm1jT18FCwjGMirglOQNQUedRrexw8c3nneH9+MKu3ZlTB/BK6kOpDqQ6kOpDqSnjT18FKLRaLRaLRaLWCrimYTQNQUedRrewpJcTLDLDLDLDLDLDFNfy/haHNO2zES4kOolbhFTNXIdSHUZNY6+BMkYqZ4EmsFUTkRORR51Gt7DRJI0LQtC0LQtC0ET1wf+YVduzKmEBx2kWy2Wy2WxG2caevgbghU51WKPO33sSSbjzvD+/GFXbsypg/jO8aevgpXPqxR51Gt7CEvC+jEz/bONV9jR/tiZ/tnGq+xo/2zi8thV27MqYNwJyTYYnJNhj4rGnr4KETGEsmMJZMZE8DE06YNpCmoRR5ykduOL2LT7X9LT7X9LT7X9LT7X9LT7X9LT7X9LT7X9LT7X9LT7X9LT7X9FcFzTZkhwLRaLRaLRaLRaLRaLQjSz18CoubLJwo/9x//xAArEAEAAQMDAwQDAAMBAQEAAAABEQAhMUFRYRAg8DBxgZFAocFQYNGx8eH/2gAIAQEAAT8QpMgDhFRcv4Bo0aNGjRo0aNGjRo0aH2iOSwsi6fRPXOJQYEjcNzSm7H4ln5/FBBBBBBBBBBBBBBBBBBBBWkpUCIDHL0fE51AJXv8Akh48ePHjx48ePHjx48ePHjx48ePHjyphQUAJ+ZUrxz0Tf/A6tWrVq1atWrVq1atWrVq1atWrVq1atWrVq1atUDhMTraVQPv0D0Sh4fISQmVKjR5QOWN9Br1PM0ih3E/DKzROYRlKIgIVABTRQs39hCHNdHbcWcQgCSkNmicDKeynAcoUZ4CjqhdAG+YOs4CCdJRWA2T0R/n9nbdW1SClYCtLQWgDAlArC8HQO0xqQ2NTgKEIk3NYdiZywzYSM4y+rW8dt9F8YAtMky6HZqH1SQAYUZ6MKSRGAyqFk9xhGH1QAAwwr8UWe80gtV2QZtCP/jGoxe6qs2sjqNTUzZJlDuIjBqckoSBxoECoDYiU65JR+GVmietYs2URUbg0NdiYGOYoApWykCBpXm8dNAuEMulC0XAQpBiwDFQF1kVhUmL+TUO5kKXqDpFyhBHNqajEE0GDFQhyUnU2ahM177OdIGBZg8MeI0NbiRCF0CwVmPb4lRNO4Du/grE2UQakAHLMBM0q5Ki3kDq1DoJQ27UiaSQAlWV7R/n9nb5rfVizSGEsktWGgWVagaBk7Q3azMDswCWBDHNQcW3pJGRuqUNkEurqVpxVLBUwOxVlA0QqmEYGKKR2WQDOcVAlpnQqJlIlKPdMvFRzLr/xhb0ubUNiQJZa/CiHLj9eUtysh6Nbx230dA/f8lmaZPOk/d+st5bCiIMgRDsS6jBYYo00VmRQYFc2ilbqzHnYIFtqqX3CG0bQ0iSKC3TBlqSSZTebKRnbjWe7RgkVST5VEN1Ica1boBxRO6Vy6JIktv5QLYYoqWwiN68um7ZtUl8RmGUCcREDXE+rsOObOwn8IWedOwvlCCEUVOj2kcM76HShjshtuQCVKq8NCCNm5m4puaaxZUBKZfwys0S4qNt7ZUaMq5HA7ArouKjbe2VGjKuRwOwK6Lio23tlRoyrkcDsCui4qNt7ZUaMq5HA7ArorQFlRNUMad5JUk3awtj0h4pEyOiKRXaH+f2dHC8EUm48cvROZZQjxN7gI8NOF4IpNx45eicyyhHib3AR4acLwRSbjxy9E5llCPE3uAjw04Xgik3Hjl6JzLKEeJvcBHhpwvBFJuPHLWJIsWgQEyjLKEeJvcBHhpwvBFJuPHL0TmWUI8Te4CPD31vHbfRVuBpnMMpauMXc7EYyyLFa+LZ4Syzoqw68DkUiCyYFQ0e/DGAsFHDuZkwJLTipO6GphEEKAX1BXyAJU6Firh4D3laJo94SCC1E92UeMSxoF2UUqIklCoS7JcFCWQWaAJ+QmXIBKpJ4xpSywH+dFnis0UEf5/Z00nthYVy/hDVzQoh47q3jttKwvnEExUUUYv0gOoPFFGL9IDqDxRRi/SA6g8UUYv0gOoPFFGL9IDqDxRRi/SA6g8UUYv0gOoPFFGL9IDqDxRRi/SA6g8UUYv0gOoOd2GiBIED9gHUXEl5FGoKr0HArNzbgrHDUwgrG/wAJnpHArNzbgrHDUwgrG/wmekcCs3NuCscNTCCsb/CZ6RwKzc24Kxw1MIKxv8JnpHArNzbgrHDU8rEuCCfR6x2aKHo5MEzFGfrAgQIECBAgQIECBAkLn9yGWZBHXRWzM3Hzee0H+f2dsaAdKXYT2Tt6rdu3bt27du3bt27nfkpdAoNunTKBjVKO6t47bQQgunoAsAWApKH9PRuEAfvsMGDAuTaisQkqCjw9JbsDoITa1K/4+yzqqFWOGcX3cbioggjGcRqYCJpz+tdYzLA48mOwwYMGHV5HgsWsCJQlD+no3CAP32GDBgjBgs5cwNSfUdYgpSbwKXakLX5S0XUev3CA9C54pe60w2yYw6rFZfTdqwK4dEdpgwYMOryPBYtYETtBbxgt5qaowHWMmXs4FWxXMNnZwu5agM8taagGxvFj+BE1+x85sr84oDmXWiQlpMMChUiKUaEqCLzMUWiUbVvWf3aVjM+KNb/Px2GTJlsbfWebuhWaLOxp1VFNtqQQsJRziFdJoMrAU3yoSQ0OaMAKJRJE2sNLg1nKQGGDa5mgxytIAgco9laqiXAjdQZ9yJmr8yRJlBNBIbbNqj4KO25sFzJrWTekZgMg8IooXbGibMggSctTxSZb1OBzFA4wSF6Ir0PX1dXVAuGgbcUhAAiWrQV11RcIHtD/AD+zo42JMJFB2Yl2Om21IIWEo5xCuk0GVgKb5UJIaHNGAFEokibWGlwazlIDDBtczQY5WkAQOUeypDLp8RA5fbc3rQo3rZBNBeJoo+bIyjK4/MKXHQbOEFFIue5QDU8iONakXbG82oltKHPMKg5alINavsykfh9GlW8dtormlATkBQQe3EDD1VAQA2MMWUph/lHB50M2Rhlaed9wGwaqIvYQ+UuQiBxJUK+8JiuOAMCknAXxoRhGlRY9Lbiv7nPGbQm0AoboQtuEYAUSIq5noI0ouKZ+JQGkgpw2oQ/oy8QVD0lIqaqCTGkGUXkGe7aGmpMKkzW/XCyxThhQT2FfKp1Ly+Jqbj/2ASTBo0kVeSPwxE3EvzRkk53icJS5tTRTFO5qkrBtxSAkQQk80GEJXo6sgmFZyKi3DbVsheo6Wqhkb8NCFZovlpe8mIK4ExCHcoL+ZVKL8JMu0qbnQLoQGAkxTsDoFI0i+q4tFNa+oDoFqIsKGKFSoGyzIhdWi94U3RoNgU84vUdzzyhSgUO146Wj69siWTFlxdyo4uUWuisCJYTVv3kIl5VXY3dEWpdGQSsNIbEUfqrcIyBgvCBXojrAfdQR/n9nTSe2FhXL2Dq0veTEFcCYhDuUF/MqlF+EmXaVNzoF0IDASYp2B0CkaRfVcWimtfUB0C1EWFKBlVNBjQIOr/NSAjSi+0WrajBanbXl5cl84aVo4RG4b82Jzo1TYKHLOEC3zUxlk8IVV6JyZpbqJxzE8gCkk160mrmhRDx3VvHbeubE3j3kxKYhWV4oMdzshIxtRimfnfNM3DYC2gL16s6EjdMlQY0qDmDXyi5MG1HphDzUoAUiasNhYQKxFcXnWvYDmrQCnS9BB0r9JAgs2ptWCqE9oAEKqBAwsVzpbSYjD7DTwOgMwa+gMZaGCIBLJkJi3Xbibx7yYlMQrK8UGO52QkY2oxTPzvmmbhsBbQF69WdCRumSoMaVBzBr5RcmDaj0wh5qUAKRNWGwsIFYiuLzrXsBzVoBTpegg6V+kgQWbU2rBVCe0ACFVAgYWK50tpMRh9hp4HQGYNfQGMtDBEAlkyExbptdvnsDfukbqLGNHQLIR3qwQgInFXdzChoCVV+e9BMczIB6wrNEgsXaK/XoRWzM3Hzee0H+f2fiRnVLKBjVKO6t47bQQgunoAsAWAp2EAXCKse5ZnIAAlwpe25ACfqWA50PZ732f1nxKAVfKCAJBF7sBs0Pk+ZcJxZKwxcEumANHWURg5oJIHLKCXPKnEVfxf8AYDnQFPMnIh0THBLmFQmGRsnpkd5UyxEgYkl6JEEVLCXS+FcgEPFXVwm6nvkpg0ZCXEa3YQBcIqx7lmcgACXCl7bkAJ+pYDnQ9nvfZ/WfEoBV8oIAkEXuwGzQ+T5lwnFkrDFwS6YA0dZRGDmgkgcsoJc8qcRV/F/2A50BTzJyIdExwS5hUJhkbJ6ZHeVMsRIGJJeiRBFSwl0vhXIBDxV1cJup75KYNGQlxHuxb08CMYzCOqiVUL7mmW8/riBvrN1LiEqENoi7yjWZUx4S21gNjUq9nIX5mXLg6VaDPtBhkFFirejWj5yofZu6rKZxAQsss3QhlrKkLGg4jaKJic1DA02XFeBBXQCaSqgaI8lYD8q85+/avqVuBnBG9s3xKEa0kiE9YrNE6jXWcShPWHDhw4cOHDhw4cOHM46XgZs8/mtBXXVFwge0P8/s6ONiTCRQdmJdS7S5AgYgAeqsWLFixYsWLFixY51/HkAEYJ6Fbx22iuaUBOQFBBoDPhvCoEtr96pUqVKlXDuwxDIA7SpUqVZRtPw8womAFKR2EHLZQAErQGfDeFQJbX71SpUqVKuHdhiGQB2lSpUqyjafh5hRMAKUjsIOWygAJWg01JhUma364WWKcMKCaP5oco0UR/66eYAXc6w5q0vqefPnz58+fPnz5hVgEAGnCF/wUrNFBH+f2dNJ7YWFcvUgHSl2E9k7eq3bt27du3bt27du535KXQKDbp0auaFEPHdW8dt6ZksBn8OGVPq7IIINWYsh+BQhc4aIEwHZI8AiRSZZQZtke92ihygEPutvhd/YtRbj5xER9y0oKTgHrIpAZ3LG/wA9kEEEC5rF0MtRAUlgM/hwyp9XZBBAuYyaBR62K+ISAXeICYqKPBSHkBz/AKvW1PODFDIuIVnzdDUA6cHQ9qcRkbUBnErcPbBBBAuaxdDLUQFO3z2Bv3SN1FjGjoFkIowW81NUYDrGTLYvQQCV+NHtEw4pBIi4oA0aUMNGQpKGwJDHzKNTsZXNjNWoLJU7UWN2STUVOZmcSFFMC4moY1OjjMKo3zgZik21jeSfiGxO3YZMmWHMZKgzqesKzRLHqCRgxJb1ufPnz58+fPnz58+c2HgwCokpraK2Zm4+bz2g/wA/s74zpyQmBZIhEtDkaAC8ljgFCCPaoiUygjMp28xT0OMelaEJGYqKNQIZWBRxyjzWdxDpmVZF1w0pNIwF5cF3BjNN1+olUCpHAFYxE1uruhYum7uFMj9yOLZcPZSygY1SjureO20EILp6ALAFgO3Fd4LC3YEUFCSzWnTcYdoH6QQVJRoO4mZiz4o5xQJCVmyJzSnnGFXNgkKUTFJUIOJAmUYNgBH0tuIspANxq2OQiyJJiQCLd01ONeJJZMFnIuPxRoM+fVkyB4c3oBXmS1+XVA38VKIRL8vNzJx9nq7RbyvNWUQGSfdFiI2RpKdRZ3tYKaIlkFu0Smw1NM4DKMWGQtqWw7APJDNyqDAyNoOICvupKElOG3MihyHUFC/rrYSACFe4ewmcwYJPWKzRZ2NOqo6HDIjFAA7jAsWo5ZltOE1yCUngSFAAlCm4PappWEECSAomDah/1RIlQAK2R4U1l9MlyTd3U2TDfFNgskjNRxWuIhTBWMLQ0iAI2nwT8yk4eikTAcv6zpWgeDRlUOqWza1BtJC3JRC3EREo5jpC0FddUXCB7Q/z+zo42JMJFB2Yl2ukTALGw2FlU4UuFKdhZmVO+9TC9lb5uYSBrMKRT+c0UhizJblY52vBHm8z33DapYVotuUgRFVUc/kbQtxCozCbwMdsrO2ZI2gLIMsuWionqUzBFI2MC97npUq3jttFc0oCcgKCD2YmBXibLQIxKlTi0AxkIrIIN6Xl0eSgi4km1tasDrzvKX5AcqFGDz7ex0Ap1ukiYwoFtBSGZzA9xoXo3Rd//l1FPoWsRchuGylitRAEIKBCS5J37cTArxNloEYlSpxaAYyEVkEG9Ly6PJQRcSTa2tWB153lL8gOVCjB59vY6AU63SRMYUC2gpDM5ge40L0bou//AMuop9C1iLkNw2UsVqIAhBQISXJOzaGmpMKkzW/XCyxThhQT2lZNhr0BChw4nNpqD/ZW9kR0lyW1JZTgSC/d5r0zJG1HwKDboHSnNSHJFUEQKxOGnRPgI5ImYLpk1/FCFZovi4zUFAjUR93QXRWN9iQFJhpJFgEIMxOOZSMyTS4YJTfbKdvxV1MghBEMO1RhahMzRIrUHeKMGLCOVX9xUBs9ky40kG0JUCcEXhhjAHMWxVih1ulJIRS2ferolIvrZDC4m9bN5yw10jYd8KCP8/s6aT2wsK5fwh1SauaFEPHdW8dt6Zlp2rEDJhDqhAk8IGCTGMgIOpSY+ZDGK5GAS2aF3GctBzN1n8xSog84AuR1Be1EoB4huVJISPs1F4YbWQCBoKNIwCadGCxdzPlqXN1Om4MAR9tHEElwqucjqECFaIkE2IgipadqxAyYQ6oQJPCBgkxjICDqUmPmQxiuRgEtmhdxnLQczdZ/MUqIPOALkdQXtRKAeIblSSEj7NReGG1kAgaCjSMAmnRgsXcz5alzdTpuDAEfbRxBJcKrnI6hAhWiJBNiIIqdvnsDfukbqLGNHQLIR2q8WfQGPZByiTS6OSu4MKiZpWs4SHBwsrZnICALTSTZi4xHWEiMyZ4qTfKMNCYAqL49KaCnnaSNGwixzBFFwQQV2OxBMczIB6wrNEgsXaK/XoRWzM3Hzee0H+f2dsYu0uQIGIAHqrFixYsWLFixYsWOdfx5ABGCdMoGNUo7q3jttBCC6egCwBYCm4LtDnOcoICzFFsupE6drnOcQmiNZImA0exznCGUUNwXaHOc5QQFmKLZdSJ07XOc4hNEayRMBo9jnOEMo7QW99QkPYbExL1jRo0aNGjRo0aNGjRZCP4sGIdSsCqsTJi6WkzQ4RAvQhSEijmgk+sLhVLCBwpnDiiwNMZGxe1NpKZM4BBhDiXFFkIfAJH67pogQFttPSR2T1pkyZMmTJkyZMmTJmFH6XKhkka0FddUXCB7Q/z+zo42JMJFB2Yl1gHSl2E9k7eq3bt27du3bt27du535KXQKDbp6Fbx22iuaUBOQFBBpedxOslomD67QoUKFRXMRBsLRiUIbKU38oFZlNrf1Goc2CLUIVMUE0y2N/tQdZDxKH37QoUKFFyBUujWApedxOslomD67AoULMqdlO67/a+pa2lFEzZYtcqXCcj0GpTCYYoOQolj2fppHS9Z2RYsW8fipyp7Vq7afheO0KFChRcgVLo1gKDTUmFSZrfrhZYpwwoJoYLeamqMB60ZMmTJkyZMmTJkyZR7Zw9SRY2XUqssl2wrIjFkEjNLELBEAohWAaOLGqQKTDCk0klfbayHcBbmlaNXcwGk1jVWNEsQEAd00VjJg7M4Iw+sz58+fPnz58+fPnzmw8GAVElNb3QR/n9nTSe2FhXL2jqO6ia0sPtwCnDQEspIphjcnNOsUfI1N+wpnedHbIqwzExT/mzCwyBQofZtWNxDpmRYFl01qLS4NbrGPipzEihMZzITCDVLUwJiSglECzerrN22MkqTx2UmrmhRDx3VvHbe/NiYgkI8qDL1NaHxhupzY3tBmxvUwm1YdKdkVAAFppzgiqECSLvmaUdFMoQXmD0tuIPPPgSkykbUKZfhZBQsjIRJbxaoOaBZ8uIGJB91LtzGMHCYn9VYxnD2+kDJJi80DOp58CKAMBZz3bXb57A37pG6ixjR0CyEdFcQVyqpcjIAWLxTfZQEBU8sbY1IpcZNxGLOjors1Kcs1qhxVnFq1NwwALvCwEAftrTPMUwwkhda1Z4N+tmuKdyovJHIJ0JEpCASL1KfKSaAOdYhLYaCcgw4g0yBZFik8gAcy8eINOxbioYuJhHDNR36uoFJSG6knNIJjmZAOgqpTw0aAIJUIBzSqLXY6kEdSUdum+BRMYC6900SCxdor6UwDMpLIIxg0qSUgrf/ACpK+KIsFExjk0pHENZ2AoSZIBhBwLU4gB4GOF9d7xSkwgHxwZnceFFgLo5SSILmu0KsTEXIKMu4iRjSkyV7ZJuE7HjQ9bWCMKkWh8UDV1/cpgPAxe9Iju7Xeg5NAI6PSEVszNx83ntB/n9nfGdJA3Oy6jQkfdNU4lQBMNqI1IaXKogVrKzsmVxenHpA0yS2MSYy1I1cuKeFMBgCKMReh5s9Qxc78Nn3qJRKTPgFRPiooR6K4vMBKBhTmB3gBACvmmaCcNImUENzo9lLKBjVKO6t47bQQgunoAsAWA7MS1LxmxVvYvX2q2vjOJLkpbF63Iq2tGUSz5pgoxpUe0IjXSH6GhM0pxgKkWwXlHdQkOQCnYq+Z+b2dyjNqcGDL7HWxkYphCBjQ1kTUtUgwiL479uJal4zYq3sXr7VbXxnElyUti9bkVbWjKJZ80wUY0qPaERrpD9DQmaU4wFSLYLyjuoSHIBTsVfM/N7O5Rm1ODBl9jrYyMUwhAxoayJqWqQYRF8ejtFvK26i6eJugTYmQabW3wsIApGckWu0MjP8sUFyVAmKJiOJBhWYFhSkVmuGOQ0ySOtSUk1c9/8AhsqCvcWq7zyI7hamJIHiZyhIJDkUa2flZQfifsuTTtFOUzOpfo+KxUf5DqhQRn7qkyyqRTliyAyW0otdE4vWD4BjiiZzBgk6FQ95I3WCgHQSizi3s7tSyQLtoog4mAoLLT3YtmgMQ2WSI5P9qhlIhyFmgfLopUJQ3Mg4QueslWmfmOaTJgIVm0RT/NkTOPCsiItHZNEcPAIDhErOxp1VHSYJsaZjGtIRq4n7TDN9q2MpVv8AlAwEktjPKutxJgCqMwWvfqS9+coDMOTDkxTzgJd+TsQErUKKJ8FHyjM3U6LPMUkuQEQ084CXfk7EBK1EcyUlZXEkZ/7VsQyv91hRJ2R8B5AdsgHpC0FddUXCB7Q/z+zo42JMJFB2Yl+Q6pVvHbaK5pQE5AUEGkv2DiGNH1Z88dZBcIdyQ0EBT4eQZHBDO9NxbeZmlEWbqgaiQgjIWWMt9DANWEVi28EUiXM8hsBEUUKpQnGKBYy6jIccSPkRT43UmnCTIut7J+es+evRO7saaNRL9g4hjR9WfPHWQXCHckNBAU+HkGRwQzvTcW3mZpRFm6oGokIIyFljLfQwDVhFYtvBFIlzPIbARFFCqUJxigWMuoyHHEj5EU+N1JpwkyLreyfnrPnr0Tu7GmjUDTUmFSZrfrhZYpwwoJ7Ssm5DAkoskFIc+oESw3FjDEURvVGA8e6r3VPrOr5t4qIojeqEB491V08D0OvEDSj7qn1nV828VEURvVCA8e6qIojeqMB491XuqfWdXzbxRGUTIzRtKEyLkZYiimON3AzBwV+6f9a13NUexCMkk4/bP4HyE14IKismPINdev36MsEnR2rVKwZhBNTPQDMIagjAhyKqlwtZ4+5Ne9QHUXaXIEDEAD1VixYsWLFixYsWLHOv48gAjBOhO+DjJlFj25znI/UAwmbFRakSk2B4d+maahsyFYmgX1jNmzZs2bNmzZs2bMJMARczQCIzU1DZkKxNAvrGbNmzZs2bNmzZs2YSYAi5mgERmnb57A37pG6ixjR0CyEV9QkPYbExL1nbt27du3bt27du3a/q3uLAgr1gVmiMuD5ZAci9PrTJkyZMmTJkyZMmTMKP0uVDJI0VszNx83ntB/n9lG+Yk2O6vKLx+HGygY1SjtMm3GWqGm+EpK2KCEF09AFgCwHdinHZMRSlVbSitbqxIQjRhzrOlMoBILCeCC684IoCBjS2xZbIjlooiqDLl9Lbi2V+acZOCbs1y1MREVSSvlqAjJGbRA5xb9qfQ3OfheQFFLERQTIGCNXc0qhYkvTtUreUDLaQpid/S2i3ihv+4MIoMh8+s+fPnz58+fPnz58+ismGEVQwH1srNFnY06qj1nz58+fPnz58+fPnz0HW2dYmJB+K0FddUXCB7Q/z+zo42JMJFB2Yl1RCuGSQaquX1Xz58+fPnz58+fPiSKz4FDpZT0K3jttFc0oCcgKCD3YrvJxQUJJCWqHL4jSwZPthteo1m4d8/o1uKcZGPggwM1mDUazAAlVtuvpbcSlPRBoIghBkTFZnqnOmYdbKkY5wGoAzZ1tKd3tQAAd3DA5VKoqBknhfolNKYa9OumDmGbh3bQ01JhUma364WWKcMKCehXGCiqKEnSqrIIo9pRios7yloibNKY8GJ5ghIR9yiSc6H38SSJCMVJdcaHUOwbGlTk3IpA4RfDToqTWFOS8ITVYG1m/JRBPJ6MPakmROuayZcbZpTqIKwwddgRrUHQS7SM4CUPary6GKBnrnU5pn5O3mDm5gH3/ACFZoviMPVUBAJcwTdCgwIiGk6SgAytVyW8uiH7idrZpsu62oiEMMrJJFIiUzPgt5YXvuVbytKxOmSCcJCiLkhDUtuNwuUqLsSIzTWXQYCEjWpNR0lMEmAmVk1N6I4pZa+oy5lIC85m5vmQKJTTegCBYGBGe4ALtcUoKjPUDozQgGTvhQR/n9nTSe2FhXL2DpGHqqAgEuYJuhQYERDSdJQAZWq5LeXRD9xO1s02XdbURCGGVkkikRKZnwW8sL33KFErCHAllswsYmmWvCqSwAF52Vr06rMT4woXyEG1R0JgfQmV+gtUSFcFpSyrYRdumht7x25hfp0cUhUhQE/T1pNXNCiHjureO29ubEdvZ0KchFvlqCvSfQ2ldN2VnNIAWeAiymokhmaKVyQYYYqfKSItR6nyJDNoFCVik0HlEZQiOACw7yqiIEFRS8/ZrFYsbcJLQy3Gl8meRULKipCIsnftxHb2dCnIRb5agr0n0NpXTdlZzSAFngIspqJIZmilckGGGKnykiLUep8iQzaBQlYpNB5RGUIjgAsO8qoiBBUUvP2axWLG3CS0MtxpfJnkVCyoqQiLJ2bXb57A37pG6ixjR0CyEdFYNGKiRJCEFDDOaSZIcrHKtZljmgtRCKWZMEgSy+ay5RwENpCAw5ipi83oRszxeaec/oxbTNkULb+R7KBEACmxelrrm2BMhIItRyQSJdEKFlNFOwBcCBZhHvig93wd59hnS4XKg0M3aDjRDuWKmn2X3sSxMUgmOZkA9YVmiQWLtFdTwaQBGZQjsiIilC1A35itkUG/FTQqS0SsxJwptrUzXpmihMsAnF2KLy0csCZK0fYq7GO5Itm9AA3r0u0dqkqtNlvG4q0Ws4mFMWU18U8U3JZAQsfcoBqgUV3LEuzkahiN2FuKVJZsWp/pRTNNUoQNOKd+q4KlAVtkLrN10hFbMzcfN57Qf5/Z3RnTwaQBGZQjsiIilC1A35itkUG/FTQqS0SsxJwptrUzXpmihMsAnF2KLy0csCZK0fYojMW/5rjHBkgyrsXSgF64EJUY0rak29FdKrZ2XMbxgx14Y9qA1kaGZ2CpZnFGSCQFM9/MI2xahPQGKVuwBL1pZQMapR3VvHbaCEF09AFgCwFNfRECCmd1CJAZjKDoBC4qq7U4YZ4ZZVrLN5tHihUWSNBQCN5lugblEFgaEikq+7WiLe96cZXvCpktCItG5LWQXuv2RR1Q+lxjMWZBYoEYOWYEXeqRIWsu2awJQsUl9MQIKZ3UIkBmMoOgELiqrtThhnhllWss3m0eKFRZI0FAI3mW6BuUQWBoSKSr7taIt73pxle8KmS0Ii0bktZBe6/ZFHVD6XGMxZkFigRg5ZgRd6pEhay7ZrAlCx2i3oAbUgCLkJ8etw4cOHDhw4cOHDhwvO3c9cZ+swrNE8g5meNyetzp06dOnTp06dOnTva39crH/OtaCuuqLhA9of5/Z0cbEmEig7MS6nAY14VEbmj6tKlSpUqVKlSpUqQOF4PfCQy7p6Fbx23oeKKMX6QHUHiijF+kB1B4ooxfpAdQeKKMX6QHUHiijF+kB1B4ooxfpAdQeKKMX6QHUHiijF+kBQ+kDbfMzM9DxRRi/SA6g8UUYv0gOoPbnIBFuBZWhp1CyxThhQTSR2hloo8iB6ylSpUqVKlSpUqVKkGDl1TooDqq1ccnAxdCP9zWWOC5NsSdzmbWv/ANIteRybrtf7JV2hSuWpThu9JICT3E60zcY9yk8nNU8v2OyEi7yN6Ue9Z7ARD5l80p67qkjIPl760XGy3/D5rBPtMRUXI/A1+1OWP3hpoXZgfmkYKwGD1hw4cOHDhw4cOHDhxOOl4GbvP47oI/z+zppPbCwrl6hdpcgSMxSPVWLFixYsWLFixYsca/jyACMV6NXNCiHjureO2/4OixjR0CyEdivgKrzFfoqLSnBTvYEygPyKETgvAcOVdvipwBKwDgrwggmlTLQjVUaQFgCFymUq6FtGUMln5VObSFLOZiSzZpNWaT2dYJxioAjvr2IJjmZAKWb2yBIIH76IDJgGRRYC3AvR1QoNEBNRuYp8mn8myAKhYNGEoE4BVG8Q2bVEUR6kSEAyPdtRBbEjNFbxM900SCxdor9ehFbMzcfN57Qf5/Z+JGdUsoGNUo7q3jtv5Gv2evFvK+QqvME+mhy2BHvSAEMAWZYqUMmGKOsREfeoNsYuYBEYybV8UTDUwQMT06kuyHLJUMrULkV194psp17ExQ+zMpUggIZFjS/YTOYMEnUrIqrEQYuNpM0YAMISkCL2XaptNgAMQRbKaGDvBIn0ImZetPFtSUeRAWlt3zRZ2NOqopBiYEisXfYXFQSBsPhk65bJSGKPIwXm+aaMN4o5+KnBGM3XhPahFONDoA1k1xAVII0sRYHascnBWA8AUPFJhqwZmnjwniBNsLFbxFqk8zJZmWUJkaZ9usBsWYDiaFKAfCKHcFUr0F48IixZaQysUUANRB0zbNTdLluUiI49q0FddUXCB7Q/z+zo42JMJFB2Yl2OkGJgSKxd9hcVBIGw+GTrlslIYo8jBeb5pow3ijn4qcEYzdeE9qEU40OgDWTXEBQbc3xmAA0k28vaiw1sOsd3bVeb0b+uICTMWGidKXkEJ0xKMQlJvsxoOfCBAXLWVI7atVME+wtzQHwiJcqicJAhLb0aVbx238jL7PTiyxThhQT2FYE9KNhgWvsHNIOkBMlzxNxUS3t0CrXJqs0FQFxAYiZJ/wBlWvkpJ/CQFN4oDPVXTBr5J0Q5oh8kxEgBFqRkHN0bKdwCFZNAkPxJCQDNvTuELQdpQbhME3pOEavXzALJhvRYsZwzQ0NsJIc0aS47Ir6htVDKHUUMgYEbZK43GzFLYgy4hLJ7EVXLPQNISLgptPdNF8hySDWIRiz91CKCbZEJ31S1pm1esrcVgl2e1TDQ0ExgBFbHFAoHkHkm6uiC3b1idI+UutiCWV0ptIq4IibBWMAtik93Gu80zzKzLOaLVMVxSrt5Ms5pOvsEoE4JiwhYUJMKB88mZ2HlSCaGKIRIlykmCpLQbtELo4740Ef5/Z00nthYVy9g6hySDWIRiz91CKCbZEJ31S1pm1esrcVgl2e1TDQ0ExgBFbHFAoHkHkm6uiC3b0moZvIRJtSwsr5oms84ohCOZZttao3RikoWpRSpE+MZBjYcEa6UhBNsaJGM3nPNFRs9ZBIleDGkVEq6EfzEEgJIOtJq5oUQ8d1bx238g/V/9+mLGNHQLIR2K4E4IvDDGAOYtiiBBffquqiiCObO3LEJE0WEncFnYM4M0PvAMUmCwQoR/SS51DjNys2bLVwYiw8KRigvZihtMix8uHQhzRAnZ5chXGBghxPVBMczIB0FQakpIuqkqOw96DSxLBsaIgxiFt3m9yebjL7lNKL09XJESROVluDTpLjtmtqC9UsoNPl1g7zYfg/8VEQGCNTMiWRrEIMRkGNoZ7TNENAVSjksCnrQIECBAgQIECBAgQJC5/chlmUV00VszNx83ntB/n9nbGgHSl2U90b+q3bt27du3bt27du535KXAKTfr0ygY1SjureO29J/m02gzxRDRZCULAJbF0kMncYbLGiyEoWAS2LpIZO4w2WNFkJQsAlsXSQydxhssaLIShYBLYukhk7jDZY0WQlCwCWxeieRv9QW8nmhyjRRHc8+fPnylVX4HJHVlTvPnz58+fJ2U9QEPeZ9aVmiP4MougRQj62PHjx48ePHjx48ePf9ZnTkJmnoK66ouED2h/n9nRxsSYSKDsxLofTEhbkFBUPWr169evXr169evXrgXbGFOET6DreO29FdGU2Fr9D8Y8jf6YssU4YUE0MFvNTVGA6xky2L0EAlfjR7RMOKQSIuKANGlDDRkKShsCQx8yjU7GVzYzVqCyVO1Fjdkk1FTmZnEhRTAuJqGNTo4zCqN84GYpNtY3kn4hsTt2GTJlHtnD1JFjZeuVmi+MoBEEjNlPxSOiX/APuyK6xOGmbgECQIyQQXmnazNmEqNgKhCAxAzJWDmj6uMEkAYwqH5qKv9yxgi2jXo49i0ALqrQVNAkCREyNOlAJVoG3GJyfGuRDhj0IUEf5/Z00nthYVy9gS5wK5MBKc0ax1ckImN0FzcoJa5GYlkBse1W5XQTAEuqoFBzJoVoC6qgFMxERkA7YbMuadKgqoyTpJ79WahIkILFi4s9pxq5oUQ8d1bx23oZIiUte4w0nMNgkMVmFenLly5cuXLly5cTTn4cOLS7jWBKImE9Hwu/0xYxo6BZCOxXmrKIDJPuixEbI0lOos72sFNESyC3aJTYammcBlGLDIW1LYdgHkhm5VBgZG0HEBX3UlCSnDbmRQ5DqChf11sJABCvcPYgmOZkA9YVmiQWLtFdQCK6yvwcHmaHJDrvIiLdFFybiKnDYiledS7mClxbgqa55LchjBMBi1WDDJM2d8rRU7J6wCQM0EtTdFHBeuI9a0um8Vfhd5asBm7LQeF0QQJEDSTgq9pXF1lgNwSpzlyj91vKIsUuVvIdpaWL6xSEUg/eXylaK2Zm4+bz2g/wA/s7oxKZa4WP8A9RSGdlVLiG5EGFCQODfG8Ow1MVGNUqZMlP7FGyKzg+YgKbrzQ7GIEs6wysK4Xypfaa3DisR/NLlbyHaWli+sUXoliSDPp6qY+2X9y5JATQDyXpIVy8MzM2li8EyRQdBxLcZt1OZQMapR3VvHbe2jBADAwCCuvwiitB4BuX7G65dM0ZFdy6RF5L+afpxbqy60RALUvBiQhMYHVILfE0DEbNHgLGxFwqz6mZaoGdApdErFgQ5xKRji/V1llvYIsNBfyK4t5WiETG4QtjotbuTYzAtsG5xUOaplQxmhIKNYpgkcMMrSHvTMz3g9f1kBR3CFO0hvcwnC5QdcBBuFg+VPKShwALYsC5bFDL5gyQmQNh46kzmDBJ6xWaLOxp1VFMoBQEnN1HxSOiX/APswK65GWnrKrdikmUXMNbKm8dYBECTWL02HiCWUgN91DOwr055DQWCodNWfcSL7UYJI9giD91MnkRWU27kLFrFDEFwm6QwIyRib0EBo9gBD81ojPDOUBkQmUYXaA5bjkJCEEMxNjpC0FddUXCB7Q/z+zo42JMJFB2Yl2EuMCuTBSHFGkdTJSJjNBY2KmUpO0hBClgZrWphHkBCEUaLJRk4AMKCMgQZibFcTcr7jBcyr3k1McAp1tQHLcchIQghmJsU1a0gIiUTIsxmi52GJwYlgu3o43BBsRcLGxRj2DQAsAHonK3jtvRXRlNha/Q6wUqaBIEIjkaeEKSRuLiDRFFyf6DaAuw6TNKXGAPHBidz5UYElPwEhUACErjQ0fgCtoJ0EZvm9NxhMqCshFKKgy1KI54UgEW9R0eZ6fiyxThhQT2FYKLjvAgaSZoXjyAUhMiLUnnJ77FizvlTCNBskYJgFHdTS2z5KQKZ7rooVxYcNNWaV0IHM2gndtiXoL/fxgQgLnQZ0+b0GQFkEeiDf8EIVmiQD39pyiY9Zo0aNGjRo0aNGjRoEnBrSCKAj2d0Ef5/Z00nthYVy9D7rLfziYn1sePHjx48ePHjx48Zq/l6ERQCezo1c0KIeO6t47b0MkRKWvcYe2CZ2SW6JRMmtjFSYH/iZIsP6MWradXI2imYWC7iixCOO6GJRuuI0pBWwSbDvi1rkG/Y6XcawJREwn4gcWMaOgWQjuVl2iHAgwOogjRgEGJSFThSz6CCY5mQD1hWaI+FE0GCU1yQwXEAnQ+FE0GCU1yQwXEAnQ+FE0GCU1yQwXEAnQ+FE0GCU1yQwXEAnQ+FE0GCU1yQwXEAnQmDhoNwhIbdo/wA/s6ND5FhbOA0ErN3bgrHDU8gJG/wmZ56YZKzd24Kxw1PICRv8JmeemGSs3duCscNTyAkb/CZnnphkrN3bgrHDU8gJG/wmZ56YZwcdm6dlwhqeQEjf4TM89MMlZu7cFY4ankBI3+EzPNWNikwTmNJjureO299GC9qBCnUe6nfZvRowvANigsgL7UktnfLg5wIC/dAMJhIFhwlv3WbiUVyUMFvd2HWWW9giw0F/JxC3lb6hAtUg6vuampUYc63yRSi1BDOpTNeaoDGyCs5q+m0L2aIHHdpTmZKBacwIX6EeamzM6ySTIkGWxSlMK8kLRGnYTOYMEn+CKzRD/P7Pyldbx23oroymwtfoUKy4qWGUIxvTjx48ePHjli0eRxjKVkRvH8VELLFOGFBNEyPzgiykHTuPMQQbqDSI8KFlwQOnceYgg3UGkR4ULLggdO48xBBuoNIjwoWXBA6dx5iCDdQaRHhQsuCB07h1EdkTmHYR/gis0Q/z+z8pXW8dt6GSIlLXuMNJzDYJDFZhXpy5cuXLly5cuXE05+HDi0u41gSiJhP9FbizxWaIf5/Z+UrreO299GCya0M8EXJbUnfpzWFY5Q5aZoTWnUKTFipBrNAYZaxPrGZSyQzU+vDywCmm52TrLLewRYaC/wCithZ4rNEP8/s9eVM3zYKxI+hX9ZZZbXc2rk1nQawzNUWbOOgGgixg2rztAZDApIiphuqlpbuvbBeJccsZwyi3ijiNjfHDpCookl5RoIsy4gYRFqgTUCYpMBleFy8GrqdVaUTIBbrr/pLpkLPFZoh/n9n5Vbx22iIG5lMwspy0ZIiUte4w9sEzskt0SiZNbGKkwP8AxMkWH9GLVtOrkbRTMLBdxRYhHHdDEo3XEaUgrYJNh3xa1yDfsdLuNYEoiYT/AEWELPFZoh/n9n5Vbx23vowXtQIU6j3U77N6NGF4BsUFkBfakls75cHOBAX7oBhMJAsOEt+6zcSiuShgt7uw6yy3sEWGgvoHLICsJbbBUGYsdgsQ2j7/AM4LPFZoh/n9n5Vbx23oroymwtfoUVQPFt3g3RvTo0aNGjRo0aNFfvGYLIj6HOU1rIJAEqDprn8oJNatoZfnv169evXrSSEkSgpCA/5ULPFZoh/n9n5Vbx23oZIiUte4w0FyYGOxI9Y0YP8AQU1sCYX96CpskliyR+HsjRo1qP64BJIBF72iiadKEE36IxTkwwQRMqXcawJREwn+i7cQs8VmiH+f2flVvHbe6jB5CtjcfuYv9qXyBygEm4ir1My6Df4j2gEjCqfupa2nkgHdTNRzNLBVgBpbU9HylBanQkXKvK7OrrLLewRYaC+htQknQYjS5pQj71H+EosVwKUIJq4BsbySVygBClsmefmHoG9hWUzA1OKtmgkYCJkeFDdHMVlOYCGSZ0rUYjCDQHeVrNrNE2juycFMYlBDap7A9PUIVrsf5UWeKzRD/P7Pyq3jtvRXRlNha/Q7IImrKqLimintRF8L5EmUPDNLgdEcQjBOs0By3HISEIIZibFThYFTJK2ckzi1MJlFAHBQbCyamaCkYACAD0XWMtlwEwFgW7Sf6wfdSnlDs4rZEZRxKUyrqqwXli5Qawz2ANUCbE2aOWqpqCFYZIHSa1ijUmFzESGjyoblucWwKBu+mkuBny1sQ7QHdQijQookI3hBMpXVis+YbSI/Y/5UWeKzRD/P7Pyq3jtvQyREpa9xh7YIt+bMN4kVzNVCifHnEpD/AO3qGdzyYZZULMSxA6RBSt3v7jkjhazStYwtgkOD2Ol3GsCURMJ2DjNcAZQhM6fl/fmYIYKEFJRO4Zykbu65/wA9iFnis0Q/z+z8Di1RuABH0WbNmzZs2bMHf0QAiNjQrT4FhERq3cRB66ozWCQFZEaS5MDPIleyNGjRQKtm29oHtKkyYjTDIEAA2qJZ72ADALXVsU+JjAZflUYtimJTPyMrkmUIW/WNGacmGAABlWWW9giw0F74AaxwjBCUSBB2gQIECaBaEZ5O7K89gECBQqc+ygSs/wCVBZ4rNEP8/s/KyreO20RfePw2JgAFlTQjIbCl+hR8AhGAtMU8P/leH/yvD/5Xh/8AK8P/AJXh/wDK8P8A5Xh/8rw/+V4f/K8P/n+jQKIs8VmiH+f2flZVvHbeml3IBRZvJOa/+/prdyAVSLSDmtLuQCizeSc1/wDf01u5AKpFpBzWl3IBRZvJOa/+/prdyAVSLSDmtLuQCizeSc1/9/TW7kAqkWkHNaXcgFFm8k5pHqBhMpKDR/0WBRFnis0Q/wA/s/KyreO2/wCCgURdjzMTgSSYMzzSkSK4kgD0MhQyKbqrU+UnCC4IknRkKGRTdVanyk4QXBEk6MhQyKbqrU+UnCC4IknRkKGRTdVanyk4QXBEk6MhQyKbqrU+UnCC4IknQ6H08oAAHwH+AmiH+f2flbVvHbf8JAoi3R4wW81NUYDrGTLYvQQCV+NHtEw4pBIi4oA0aUMNGQpKGwJDHzKNTsZXNjNWoLJU7UWN2STUVOZmcSFFMC4moY1OjjMKo3zgZik21jeSfiGxO3YZMmUe2cPUkWNl0Kpk7DCexwQOD/ATRD/P7PwPN7PSreO2/lQA8VDuEwEUY08kU0iWbkn094s3UVEHndWBftPK81ZRAZJ90WIjZGkp1Fne1gpoiWQW7RKbDU0zgMoxYZC2pbDsA8kM3KoMDI2g4gK+6koSU4bcyKHIdQUL+uthIAIV7h7ghU5M2gQRD3Eh6XJjQug5iCH7qnMHAAK11MODSrXiIGsChYlyTUcpqJxsMcptikwbiDhIowuBl/KmiH+f2fgeb2elW8dt/KgP4xMhCERyNPFlk4se33oti2lyOFwiPYeVtVqeAVRZvMTVI1gYS7cwwxyVc9+yVmOw2iawMJduYYY5KhAUww7Fw1iYohGYDBbkWKLWs0NhAKuIRYmz7KZyqA+BMEa2rmjcDkMEayUifqyMVWbgkDZ2oWJjz2EJE7ghUIGjONmcRXxWMwhXpos9uoMPtI1BRWEygF37ZoiGpPqBJZPqocVCW9uKPRSrgcDuCqHFQlvbij0Uq4HA7gqhxUJb24o9FKuBwO4KocVCW9uKPRSrgcDuCqHFQlvbij0Uq4HA7gqmK+L/AAqZIhM9sf5/Z2u40+jkR26plzgSJugHSBS0LjkVaMucCRN0A6QKWhccirRlzgSJugHSBS0LjkVaMucCRN0Aoo63pzbixNQKWhccirRlzgSJugFPHfC7iCDd76t47b+PAMh0tooqOGOmCKckhagqCce5zKwLdNqP4hSQGzZoRJ9ILdHlZ7zaXOSAbiTC9RAM7QrA0TshhVXjRKegCMTXmiAD9uwy1EsvxcU96GCgxIWcypUZOLiBYL94rRKoZzZvC1mhF2EA8WyIq1pU/TI7SSquwnkkbD6zuQjALUeJRGHTTXybd+wIVTJ2GE9jggcFImkF0ZEU/FXWbtsZJUnjtUF4BEEsNYLvZNFqK66ouEhRZD6Imi6qXrQgQIECBAgQIECBAkUiSDONIkHmob/JAgMDdgXaP8/s/KGVvHbaPkxER2EZ6DiCOC7mpBWCj5MREdhGeg4gjgu5qQVgo+TERHYRnoOII4LuakFYKPkxER2EZ6DiCOC7mpBWCj5MREdhGeg4gjgu5qQVgrU0Wdljh70ALU2JDomUintC0Bw30VR0LiQxj6Kgjp4UaTFYwHCUa7A29mYg2FXM6E0MwWrLCWU2MaWqRVAtuprIrDllwlrrbXZFm6iog87qwL9D31CQ9hsTEvQNGjRo0aNHbEpMEWie3uGjRo0aSmB/YgoQVDoVOTNoEEQ9xIagR3QLOzk8UYMAehAdJhG0jazpIz4QgUZEMxQ8u5lyUikMhmr8iKTwpSRPEaZ4UO3o0NbvbWKlZnQjEDFh2La+yaJrYmbD7vPUBRN3DRCjqXcbFGWpF5cE4S6Xp1PilUkAC3amJIL0ITTeArJiL0hZcZaVmAWQuawmQhhaiLl51qKxNShl3SG10w0MODDA7BytMTSAg1T4AQZ0JGiBWiE4aMKJXaQa6B2JJGWqxj0Nlwf5/Z2qaBeIUV9aTJ5LcaShsi763jttamizsscPrmQCTWFQPwoAti2lyOFwiPQ8YLeamqMB1jJlsXoIBK/Gj2iYcUgkRcUAaNKGGjIUlDYEhj5lGp2MrmxmrUFkqdqLG7JJqKnMzOJCimBcTUManRxmFUb5wMxSbaxvJPxDYnbsMmTKPbOHqSLGy6FWoeJBuY2tMtKTIDdAwhDgtYoJ0X4+VSV9zyNZNoiMwEmjJHJSaLqTQMaYkCggPGB8CCbAEMYoYdBl0QG7iFDNJkQRdLS5WQlioBovj7tvaaEb6oi6AIdBavSY0YlYyLVgXgjXaBIlP66gj11D/vAE4CdFP1gVZ2mw3TTQYgQ3zwYzgkEpWwSgq2zITWgzToG0X0kTBQC51p23AxOExckLfete20lObeA6DgZZnnUkhJEn70DLQIeCPNh771IJ0sCTjnus2hqWN21ipFicjV67CcV0JMLiE7R/n9naQotTBbTQxmKTJlDJ9RmzZs2bNmzZs2cj6Nw2QWnjvhdxBBu99W8dtpkAk1hUCprLdh8Ic9URIkSJEiRIkSJEiKItxIRlWPQIAMhksfLRjQBMvZMHJKPnXn0CXQLF299uSgtIvNPkaPRXJId0PomjLELVuCDbB9EW6PK81ZRAZJ90WIjZGkp1Fne1gpoiWQW7RKbDU0zgMoxYZC2pbDsA8kM3KoMDI2g4gK+6koSU4bcyKHIdQUL+uthIAIV7h7ghVMnYYT2OCBwelNFEgiIOoNaiuuqLhIfgEWyG/wAkCAwN2Bdo/wA/s/KIoBlbx238BA61NFnZY4e5AnaJzq+6EaQeKKJgz9TCy1d7yAProCLdyhqOGdDRtAAUJZHrCzdRUQed1YF+08rt+ASSSrLBGAm5X61ugQfANCbqF0DaF5Q5qbyoDne+iNAwohkKotANrRSxdCVQkil+VQt8NHdIfOKWfSOdBgOQcqGV3fmkiGRlZ9doQqcmbQIIh7iQ+nNE1sTNh93mgbBpxmA6Vvd9YcOHDhw4cOHDhw4cjbKaEFFCwb0qb+dzcEdOqBBZsLgcNr0jbeMIOOBHsTp054bCLaEQSiSP5OhX+h1I7UNXakBEXVTWRjyJQo4RFkOaCwyL47Ts6riIdSkmE48mR2ELc2MVgYEalO66hExeK3kEk7QMkvGRqTx+GNMhZJGy29EaI6OxsABFZpl3W0tpbyGRYu46oCe8n6KBqCwBPcnTp06dzEwwTAgTko42vGU2QTQmmZWzvWoLpQJbokTztEACUHL9ddhRiEhNJcpFv+eorbWOIC7LUe5s4BYGSodx6CUfqGWCMXij02DcQQVSQm96fxBrER77xu0TTKJF2pATKNa0+ZNeYwnWMmTruveuZhFFMZXLFqVC7EZwZRjZ7Kcy0CrLpIxD5b0dTasFQKC8CdazZ1fLRXXGp1VuCWWPyKuyOFIKy11SKuInoLtXIM4WsCXv1FsW0uRwuER7TytyA4DbGwiHIqCfFCAgLAwLJQl2p00LDWhSiKcm3NxWt+UypxIWEHCkn3UzAY2mM2snA5lprtC9Rs4rYTaBgTIoCgsdchwWYXMNn2/BCFQk0UFZD6Imi6qXrQgQIECBAgQIECBAkUiSDONIkHmicV0JMLiE7R/n9nY1RPQaSnBLmiFFqYLaeojKZyaFSGCSRK3VNXt1gYFeUGsFTkIVpWCAgzUQLUSLReRXWABGF1mrB64skZe1llNRw1hMZpJ4EAWAKFCtSgDBYFdfcaTQuPjInABJVOmyNV7iSsEunVA8d8LuIIN3vqwujzVHOEwLU0SuzN0BAT95qgxiZCRX4qILHDAxgtQKGlBMGUMIG1pICWpTGkU0lDBYIBYFGezExeEEmkhVteghqJChcIDtXkVOY4RKZpqTQ5aNlPCcoAhIFlS9UMQg+C6QSA2oeVw6rBhViK9nFEYGokAmBhaHJWRQAIRuDA7H0XW2wEGkIgZSX+7UgZeOf3sHj3NImmPIPtQZKwi/prnqxFZBsCBfZpdNrIv6lQh2eJkXaAbjeVFOt+bYA7Rbo99QkPYbExLqaNLiCBygLEOwaNGh/iJZfZBKH+AFlt1F6GlfkAYswA7Bo0aSmB/YgoQVDoVTJ2GE9jggcHpzRaiuuqLhIdSIemyQTAIzmAQjKZos7hIiAk2aGq5vQUSLQizbTL6o6ipazAjSTSaPFFDCQu0IJYktSKOQCZMjS2HRil8tEFTgiqQCL04n6M2OCWtabUJFGvkdUBaFN84fI8cADKxFWxwJ8sLyBLfRoLmTqRIiWR6bIb/JAgMDdgXaP8/s7lriMbPJZp6ly5cuXLly5cuXMPQqaZyavt6Ayt47b0vSjRoRJo+qgQIECBAgQIECBAfnVvkAXK1qaLOyxw+i25aiCb4a5cMv+6sShuKszevMB3YhZuoqIPO6sC/Q8YLeamqMB1jJlsXoIBK/Gj2iYcUgkRcUAaNKGGjIUlDYEhj5lGp2MrmxmrUFkqdqLG7JJqKnMzOJCimBcTUManRxmFUb5wMxSbaxvJPxDYnbsMmTKPbOHqSLGy6FQQyNgD5Ms8UG4Cdn6ZckoLzXmK5+tTNAWC6dheQ9jSFgmnZTkPYVFsFDac6rxNAWC6dheQ9jSFgmnZTkPYU0zdGyyIbgzlKd+uy2FmT7UslxWWpMn3oZbBqn15OzT4sFEZRGlbzViEwCVdgpJaoxLBIMsSoHm2UkKwb9FmNplFl6kC4RLo8uSN9bsf6khts0+hSiNM3a5AbtII2U4wRtRHSXvUCXC4pYZyilqan3hkAD2mkEbKcYI2ojpL3p0MlwAqVBojbCafbjQIZBX0Nlwf5/Z2qaBeIUV9aTJ5LcaShsi763jttamizsscPrmQCTWFQPwtuIWxbS5HC4RHtPK81ZRAZJ90WIjZGkp1Fne1gpoiWQW7RKbDU0zgMoxYZC2pbDsA8kM3KoMDI2g4gK+6koSU4bcyKHIdQUL+uthIAIV7h7ghXib0gBXKOefEmjLAMJbFGc3s/ghE780j/dBrDdhZ+6tQI6GlfgnB7lLoTxDxUAIZPjSiBbygAnWE+n4s0UEFsJxXQkwuITtH+f2dpCi1MFtPrHjvhdxBBu99W8dtpkAk1hUD/C7cQt0eVulAJVqFPB47pA21ilmQTYIYl0FoOZ19GCwKcLU+6NKRaAbF8XKtQAXi0BOQtcrmBMvUAfEqgq/eOYIiR2KCEQsIBBrdAb7lHAbE7GMBAsAFzi9M5ECqJOGOwIVTJ2GE9jggcHSH1DK2AZspt1KzAAxMNZrDWgiJOShpZhOwGhECqayiQlRTGqE2T2zRaiuuqLhIUGwacZgOlb3fWHDhw4cOHDhw4cOHI2ymhBRQsG9Q3+SBAYG7Au0f5/Z+UMreO29JHIsocpHI9LIwaUp40KRyLKHKRyPSyMGlKeNCkciyhykcj0sjBpSnjQpHIsocpHI9LIwaUp40KRyLKHKRyPSyMGlKePcLRBSz7ijhRnZBRCllrqkVcRPQDK/C7TesQWjHqLN1FRB53VgX7DysMbNwTK9SLjdijGTXaqhWyNoFC8xATIXlckXvFBkKLfMhgXIy96YnV9dmuRuErFGFtWaKDP8Q7U1cGC2xh6yU2Dmj23BsB0IC0ealzwaVIQBluRQEzYMDTJjce0IVwJyWbhJi1kRDR/29tQJYZCalSNAcGUhCuQhjDXAd3eCAuGgVodClKRGoxFBkSE6QGiUpaamnZYGzD9hr+rxkToZ5oy3/MxqROolsHI3cEzPPTR9zCSBKxw1LYORu4Jmeemj7mEkCVjhqWwcjdwTM89NH3MJIErHDUtg5G7gmZ56aPuYSQJWOGpbByN3BMzz00fcwkgSscNS2DkbuCZnmt6rgshnQR2h/n9naW3poLg8ZyUiowmFaq6Y1E6ycH0pFRhMK1V0xqJ1k4PpSKjCYVqrpjUTrJwfSkVGEwrVXTGonWTg+lIqESCtVVkmTyW40lDZF31vHbfx2PYNCIFklqUc0aoG7cOHu0dOFeN/agyVhF/TXPViKtL0wIF9mVHOkX7DEoEHJJRF2CDcDoGggkzAB1FsW0uRwuER6HvqEh7DYmJdxo0aNGlSAgGzcZOw0aND/ESy+yCUP8AACy26i9TRpKYH9iChBUOhVYdmpjQWaNSoKCuI4HF9dCaUepsMbTsbDnEU+z+sshZz3AJy0AyyRqHQJOdrKjBiOtqqWXZvGKRYY/Yfj043FEHPGXxTLcTXBTv1huFEUYxwH5Ah/n9n5Vbx238l0hZGH4abO/v/fo/O9KXzerYd4t0eoPnIeTj8A6dOnTp06dOnTp06dOk8fmkpgseY0pMnYYT2OCBwddAbNrMShPhoAA7Zs7OMFfimGGGGGGGGGGGGGGGGGGGDqaFQx0TjceohERa8L/teF/2vC/7Xhf9rwv+14X/AGvC/wC14X/a8L/teF/2vC/7Xhf9rwv+14X/AGvC/wC14X/a8L/teF/2vC/7Xhf9rwv+14X/AGvC/wC14X/elaUu1eAiSUhRYUWFFhRYUWFFhRYUWFFhRYUWFFhRYUWFFhRYUWFFhRYUWFFhRYUWFFhRYUWFFhRYUWFFhRYUUE/leZIKj9KjdRUQed1YF6X3+AwmP++ogtX7JmfZ0X3+AwmP++ogtX7JmfZ0X3+AwmP++ogtX7JmfZ0X3+AwmP8AvqILV+yZn2dF9/gMJj/vqILV+yZn2dF9/gMJj/vqILV+yZn2ejM2OGyMOVJmLf6nr169evXr169evXr169evXr169evXr169evXr169evXr169evXr169evXr169evXr169evXr169evXr169evXr169evXr169Zza3mQQAMbV//2Q==;" vertex="1" parent="1">
          <mxGeometry x="199.64" y="110" width="1298.36" height="810" as="geometry" />
        </mxCell>
      </root>
    </mxGraphModel>
  </diagram>
</mxfile>
